<?xml version="1.0" encoding="utf-8"?>
<svg xmlns="http://www.w3.org/2000/svg" version="1.0" viewBox="0 0 451 399">
	<title>A caricature line drawing of a camel that has fallen on its head, with its four legs up in the air, and flowers flying through the air.</title>
	<path d="M426.432 1.944c-.648.36-.552 1.992.312 4.416.72 2.088.72 2.136.264 2.592-.408.384-.552.408-1.008.168-.6-.312-5.76-.216-6.552.12-.528.216-1.08 1.296-.96 1.848.216.888 2.328.984 6.504.288 1.32-.216 1.392.36.12.96-1.272.6-3.24 1.92-3.744 2.544-.816.984-2.544 6.84-2.112 7.272.216.216 1.224-.192 1.224-.504.024-.84.816-3.624 1.392-4.92.576-1.248.936-1.704 1.776-2.208.552-.36 1.344-.864 1.704-1.128.744-.504 1.368-.432 1.368.168 0 .216-.24.84-.552 1.392-1.632 2.976-1.296 5.928.696 5.928 1.008 0 1.392-.792 1.464-3.192.12-3.048.192-3.288.936-3.288.96 0 1.44.384 2.472 1.872 1.152 1.728 2.4 2.688 3.648 2.856 2.352.336 2.208-2.04-.312-4.224-.6-.552-1.2-.984-1.32-.984-.456 0-1.968-1.224-1.848-1.512.048-.168.6-.552 1.176-.864 1.392-.72 3.432-2.736 3.624-3.552.216-.84-.312-1.776-1.176-2.064-1.056-.336-2.256.456-3.48 2.256-.552.84-1.128 1.56-1.248 1.608-.12.048-.432-.144-.696-.408-.432-.432-.504-.792-.504-2.664 0-2.376-.312-3.456-1.296-4.44-.648-.648-1.2-.744-1.872-.336zm1.44 1.104c.528.768.888 3.312.576 4.152-.192.528-.264.48-.864-.792-1.296-2.616-1.056-5.256.288-3.36zM435.6 7.08c.24.288.144.504-.432 1.2-.744.912-3.168 2.856-3.336 2.664-.36-.36 2.592-4.224 3.216-4.224.144 0 .384.168.552.36zM425.52 9.6c.912.576-1.728 1.44-4.32 1.44-1.272 0-1.44-.048-1.44-.48 0-.264.024-.48.072-.48.024 0 .48-.168 1.008-.36 1.08-.384 4.128-.48 4.68-.12zm4.104.408c.768.456 1.296 1.704 1.08 2.616-.12.48-.312.576-.984.576-.936 0-2.064-.384-2.328-.792-.36-.552-.192-1.752.288-2.28.6-.624 1.032-.672 1.944-.12zm3.768 4.68c1.392.912 1.968 1.632 2.136 2.712.12.72.072.84-.312.84-.648-.024-1.104-.432-2.496-2.16-1.224-1.536-1.32-1.728-1.032-1.992.264-.288.528-.192 1.704.6zm-6.336 3.24c-.168 1.2-.312 1.632-.576 1.632-.288 0-.36-.312-.336-1.488.024-1.536.432-2.472.888-2.016.168.168.168.816.024 1.872zM190.8 24.672c-1.56.432-4.536 3.36-5.088 5.016-.6 1.728-.768 5.592-.336 7.752.552 2.736 1.2 4.368 3.144 7.944 2.328 4.296 2.496 4.728 2.76 7.152.6 5.472 1.104 7.44 2.616 10.608.528 1.128 1.056 2.424 1.128 2.88.096.456.504 1.296.888 1.872.648.936.72 1.272.744 2.88.024 2.208-.456 3.768-2.592 8.568-.48 1.08-.864 2.088-.864 2.256 0 .192-.144.504-.336.696-.168.216-.768 1.416-1.32 2.664-.912 2.136-3.888 7.824-4.968 9.528-.432.696-.96 1.704-4.128 8.112-.576 1.176-1.152 2.28-1.272 2.4-.096.144-.528 1.176-.936 2.28-1.32 3.552-1.464 3.96-1.68 4.2-.12.12-.432.936-.72 1.8-.312.864-.672 1.824-.84 2.16-.312.576-.48.984-1.512 3.36-.264.6-.696 1.56-.96 2.16-.288.6-.744 1.656-1.008 2.376-.288.72-.72 1.608-.984 1.968-.24.36-.456.792-.456.96 0 .144-.552 1.488-1.224 2.952a80.098 80.098 0 0 0-1.656 3.744c-2.496 6.528-3.36 8.88-3.36 9.096 0 .144-.096.456-.24.696-.12.216-.504 1.152-.84 2.088-.36.912-1.056 2.688-1.584 3.912-.504 1.224-.936 2.376-.936 2.544 0 .144-.216.696-.48 1.224s-.48 1.08-.48 1.272c0 .192-.144.624-.336.96-.96 1.848-1.2 2.712-.936 3.432.288.768.024 2.184-.504 2.856-.168.192-.432.72-.6 1.128a5.093 5.093 0 0 1-.84 1.344 10.647 10.647 0 0 0-1.08 1.632c-1.152 2.088-5.376 6.936-8.688 9.936a84.609 84.609 0 0 1-3.192 2.76c-3.96 3.192-10.344 9.552-12.024 11.952-.6.888-1.416 2.04-1.8 2.568-1.776 2.4-3.048 4.488-4.8 7.92-1.032 2.04-1.968 3.864-2.064 4.008-.12.168-.504 1.224-.888 2.352-.36 1.128-.768 2.256-.912 2.52-.552 1.152-1.2 4.656-1.68 9.12-.456 4.224-.48 5.088-.24 7.296.192 1.512.528 3.072.912 4.032.336.84.552 1.584.504 1.656-.072.048-1.944.264-4.176.48-4.56.408-7.968.936-9.096 1.416-.432.168-1.032.264-1.344.192-1.176-.192-8.712 1.704-10.632 2.688-.648.336-1.488.6-1.848.6-.36 0-.744.096-.816.24-.072.144-.336.24-.552.24-.24 0-.84.216-1.368.48-.528.264-1.176.48-1.464.48-.288 0-1.176.312-1.968.72-.816.384-1.536.72-1.608.72-.456 0-5.544 3.168-7.2 4.464-1.848 1.44-4.2 3.912-4.2 4.368 0 .12-.216.408-.48.648-.264.24-.48.576-.48.744 0 .312-1.824 2.256-3.216 3.456-.864.72-2.184 1.584-3.024 1.944-.336.144-.768.384-.96.552-.192.168-.84.504-1.44.744s-1.872.792-2.832 1.248c-1.008.48-1.944.768-2.184.672-.696-.216-6.336-6.12-8.112-8.496-1.632-2.16-2.424-3.144-3.888-4.872-2.136-2.52-2.808-3.36-4.08-5.088-.672-.936-1.368-1.776-1.584-1.872-.192-.12-.36-.312-.36-.432 0-.288-.84-1.512-1.968-2.904-.792-.984-2.328-3.624-3.384-5.856-.24-.528-.528-1.128-.648-1.32-.12-.192-.6-1.128-1.08-2.04-1.248-2.352-4.272-7.032-5.64-8.76-.48-.6-1.056-1.464-1.272-1.944-.216-.48-.552-.936-.696-1.008-.168-.048-.744-.744-1.272-1.512-1.728-2.544-2.52-3.552-4.896-6.096-1.272-1.392-2.976-3.216-3.744-4.08-1.392-1.512-5.52-5.496-6.504-6.264-1.776-1.368-5.496-4.224-5.808-4.44-3.312-2.256-4.848-3.072-4.848-2.592 0 .288 3.288 2.736 4.008 3 .144.048.696.432 1.2.84 4.8 3.96 7.176 6 7.92 6.864.504.576 1.536 1.608 2.304 2.328.768.72 2.184 2.232 3.12 3.36.96 1.128 1.92 2.28 2.184 2.544.24.264.72.864 1.056 1.32a35.105 35.105 0 0 0 1.608 1.968c.984 1.152 1.416 1.704 3.6 4.752.696.984 1.536 2.112 1.872 2.52.792 1.008 4.608 7.344 6.072 10.152.648 1.272 1.488 2.784 1.848 3.336.36.576.648 1.128.648 1.248 0 .12.408.744.912 1.392.504.624 1.2 1.632 1.56 2.232 1.8 2.928 6.504 9.312 8.184 11.112.504.552 1.368 1.608 1.944 2.328.576.72 1.224 1.536 1.488 1.8.48.528 4.968 5.808 5.688 6.72.456.552.456.6.048 1.056-.24.264-.6.408-.864.336-.24-.072-1.224.264-2.208.72-.96.456-2.232.96-2.832 1.128-1.392.36-2.808 1.104-3.048 1.56-.12.192-.552.456-.984.576-.672.192-.816.144-1.248-.384-.264-.336-.48-.696-.48-.816s-.312-.36-.672-.552c-1.416-.72-6.72-6.48-9.768-10.608-1.512-1.992-1.728-2.328-2.88-4.392-.384-.72-1.224-1.992-1.848-2.832-.648-.84-1.152-1.608-1.152-1.728 0-.096-.288-.552-.624-1.008-.336-.456-.744-1.152-.912-1.56-.192-.408-.624-1.2-1.008-1.8-.864-1.32-1.32-2.136-2.952-5.28-.696-1.368-1.416-2.664-1.608-2.856-.168-.216-.888-1.464-1.56-2.76-.672-1.32-1.752-3.048-2.352-3.84-.624-.792-1.704-2.304-2.4-3.36-.72-1.056-1.584-2.256-1.92-2.664-.336-.408-1.104-1.44-1.704-2.28-1.2-1.68-1.944-2.544-4.728-5.328-2.616-2.592-2.592-2.568-4.992-4.464-2.016-1.584-2.736-1.92-2.928-1.344-.096.36.144.624 1.968 2.04 4.392 3.432 9.816 9.48 12.552 14.016.168.264.792 1.152 1.368 1.944.576.792 1.752 2.472 2.568 3.72 1.944 2.952 2.064 3.12 2.4 3.84.168.336.96 1.68 1.752 3 .816 1.32 2.16 3.696 2.976 5.256.816 1.56 1.752 3.192 2.088 3.624.312.408.576.84.576.936 0 .12.24.504.504.912.288.384.768 1.2 1.104 1.824.552 1.056 2.064 3.528 2.952 4.848 2.448 3.624 3.288 4.8 3.984 5.52.456.48.816.96.816 1.104 0 .144.336.552.744.96.432.384 1.104 1.224 1.536 1.896.912 1.392 2.208 2.76 3.672 3.936 1.848 1.44 1.824 2.088-.072 2.904-1.056.48-5.16 4.368-5.16 4.896 0 .192-.072.384-.168.432-.552.24-1.992 2.664-2.304 3.912-.072.264-.36 1.056-.624 1.776-.768 2.04-.888 6.528-.264 9.288.264 1.176.696 2.64.96 3.264.264.624.48 1.344.48 1.608 0 .432-.12.48-1.032.384-.552-.072-2.664-.288-4.704-.48-2.016-.192-3.768-.408-3.864-.48-.12-.072-2.784-.168-5.928-.24-3.144-.048-7.44-.168-9.552-.264-2.424-.096-4.2-.048-4.8.096a48.1 48.1 0 0 1-2.16.528c-2.16.528-2.064.456-1.992 1.272.072.696.144.768 1.032.84.528.048 1.704-.12 2.64-.336 1.488-.384 2.76-.432 10.68-.408 7.992.024 9.36.072 12.24.528 1.776.288 4.272.672 5.52.864 1.248.192 2.88.456 3.6.6.72.144 2.232.36 3.36.48a65.41 65.41 0 0 1 3.96.576c1.44.264 2.808.336 5.448.216 3.744-.144 5.328.072 6.072.888.48.528 1.176 5.016.984 6.48a62.28 62.28 0 0 1-.552 3.36c-.384 1.896-.408 2.424-.144 3.12.144.456.288 1.032.288 1.272.048 1.296 2.088 3.192 3.744 3.456.72.12.864.048 1.104-.456.192-.456.192-.744-.024-1.152-.264-.48-.336-.504-.504-.192-.264.48-.912.336-2.376-.528-1.512-.888-1.656-1.584-1.056-5.208.264-1.68.456-4.008.456-5.712 0-3.216-.288-4.152-1.92-6.048-1.32-1.536-2.592-1.872-6.84-1.8-3.528.048-10.464-.552-10.92-.96-.12-.12-.264-.456-.264-.744-.024-.288-.288-1.296-.576-2.208-.672-2.16-.912-3.336-1.176-6-.192-1.944-.168-2.4.36-4.368.72-2.76 1.224-4.056 1.92-4.992.312-.408.912-1.176 1.344-1.752 1.656-2.16 2.76-3.24 4.272-4.128.864-.504 1.896-1.2 2.28-1.536.408-.336.96-.624 1.224-.624.288 0 .648-.144.792-.336.144-.192 1.392-.792 2.736-1.32a172.721 172.721 0 0 0 2.928-1.224 73.13 73.13 0 0 1 5.256-2.064c.936-.336 1.896-.696 2.136-.84.24-.12 1.2-.504 2.16-.864 1.776-.624 3.312-1.296 4.104-1.824.264-.144 1.056-.648 1.752-1.08 1.416-.888 3.648-3.048 4.584-4.44.312-.48.672-.888.792-.888.096 0 .6-.576 1.104-1.296.84-1.2 3.384-3.672 5.856-5.664 1.176-.96 2.88-1.944 6.264-3.624 2.76-1.368 13.2-4.92 15.912-5.424 7.512-1.368 9.648-1.68 12.96-1.872 2.28-.144 7.272-.672 15.48-1.68 1.656-.192 3.552-.36 4.248-.36.696 0 1.824-.12 2.52-.24 3.528-.672 5.16-1.032 5.592-1.2a66.78 66.78 0 0 0 1.728-.696c.672-.288 1.368-.504 1.512-.504.6 0 8.568-3.288 11.712-4.824 3.24-1.608 3.48-1.68 3.888-1.296.528.48 1.656.384 2.016-.168.168-.288.144-.576-.096-1.056-.36-.624-.336-.672 1.08-1.944 1.944-1.752 8.208-5.904 10.68-7.056 4.464-2.088 7.68-3.744 8.808-4.488.744-.48 1.68-1.104 2.112-1.368 2.064-1.296 4.824-3.816 6.72-6.216 2.928-3.648 3.96-6.336 3.984-10.392.024-1.44.048-3 .048-3.48.024-.552-.144-1.08-.432-1.368-.432-.504-1.08-.672-1.08-.288 0 .12-.216.264-.48.336-.456.12-.456.168-.072 1.416.744 2.448.24 6.168-1.104 8.208-.336.504-.936 1.512-1.344 2.208-.696 1.224-3.024 3.84-4.392 4.92-.36.264-1.032.84-1.488 1.248-.984.888-2.304 1.848-2.544 1.848-.072 0-.576.336-1.08.744-1.104.888-3.576 2.328-5.736 3.336-.864.408-1.728.888-1.92 1.056-.192.192-.792.456-1.296.624-.528.168-1.56.72-2.28 1.248-.744.504-2.256 1.536-3.384 2.256-1.128.72-2.304 1.584-2.64 1.872a9.54 9.54 0 0 1-1.488 1.08c-.48.288-.936.672-1.008.864a.578.578 0 0 1-.504.36c-.192 0-.36.096-.36.216 0 .384-.792.528-1.08.216-.336-.36-1.176-2.712-1.536-4.272-.624-2.736-.984-6.336-.984-10.032-.024-2.208-.096-5.472-.192-7.248-.24-4.848.168-7.8 1.632-11.424 1.152-2.88 1.704-3.816 3.312-5.592 1.8-2.016 3.216-2.904 4.656-2.904.816 0 1.2-.144 1.824-.744.888-.816.864-.696.408-4.056-.624-4.536-.456-6.624 1.008-12.6 1.224-5.04 1.272-5.232 1.488-5.52.12-.12.432-.888.696-1.68.528-1.584 1.152-3.048 2.232-5.328.384-.816.696-1.584.696-1.704 0-.12.168-.36.36-.528.192-.168.36-.48.36-.696 0-.216.216-.768.48-1.224.24-.456.912-1.752 1.464-2.88 1.08-2.208 1.152-2.352 2.568-5.112.552-1.008 1.104-2.208 1.224-2.64.12-.408.576-1.632.984-2.688.984-2.568 1.368-3.672 1.56-4.68.096-.456.528-2.016.984-3.456.456-1.44.816-2.784.816-2.976 0-.216.144-.552.336-.744.192-.216.504-1.2.72-2.184.72-3.384 1.512-6.36 2.784-10.44.384-1.2.912-3.024 1.176-4.08.264-1.056.72-2.352.984-2.88.264-.504.48-1.152.48-1.44.024-.264.288-.912.6-1.44.336-.528.912-1.608 1.32-2.424.504-1.008 1.344-2.064 2.688-3.384 4.8-4.632 6.192-6.672 6.192-9.144 0-.888.096-1.248.312-1.2.504.096 1.512-1.08 1.92-2.256.408-1.224.36-1.584-.648-4.512-.336-.984-.624-2.064-.624-2.4 0-.336-.168-1.032-.336-1.56-.192-.528-.408-2.496-.48-4.44-.144-3.12-.096-3.744.384-5.88.528-2.208.6-2.4 1.152-2.472 3.072-.312 6.072-1.536 7.224-2.904 1.416-1.704 1.992-3.264 1.992-5.4.024-2.304-.408-4.368-1.2-6.024-.312-.672-.576-1.296-.576-1.416 0-.12-.408-.84-.888-1.584a126.458 126.458 0 0 1-1.728-2.76c-.456-.744-1.104-1.536-1.44-1.752-.336-.216-1.152-.84-1.776-1.368-.648-.528-1.944-1.416-2.88-1.968-1.92-1.128-6.072-3.192-6.456-3.192-.12 0-1.08-.384-2.136-.84-3.096-1.368-4.752-1.824-6.936-1.92-1.128-.048-2.304-.024-2.64.072zm5.04 1.032c4.416 1.2 11.352 4.608 13.2 6.456.456.456 1.2 1.104 1.608 1.392.912.648 1.968 2.088 2.832 3.888.36.72 1.008 2.064 1.464 3 1.224 2.496 1.776 4.44 1.8 6.288.024 2.016-.12 2.376-1.8 4.68-1.248 1.68-1.464 1.872-2.64 2.208-.72.216-1.368.384-1.44.384-.264 0-.144-.744.24-1.464.408-.792.312-1.488-.192-1.296-.168.072-.624.72-1.008 1.44-.816 1.56-1.128 1.68-3.6 1.488-2.256-.192-3.84-.912-6.984-3.144-.84-.6-1.608-1.104-1.68-1.104-.192 0-1.032-.696-3.264-2.688-1.824-1.632-5.136-5.544-5.904-6.984-1.2-2.232-1.344-2.784-1.56-5.208-.336-3.84.336-6.12 2.304-7.872 1.392-1.2 4.008-1.704 4.92-.936.696.6.984.696.984.336 0-.192-.336-.48-.72-.648-.816-.336-1.176-.72-.672-.72.168 0 1.128.216 2.112.504zm-4.32 19.68c.6.696 1.2 1.44 1.32 1.68.24.408 3.624 3.048 5.52 4.272.528.336 1.008.696 1.08.768.168.24 1.584 1.056 3.696 2.16 1.56.816 2.208 1.008 3.696 1.104l1.776.144-.12 1.344c-.096.744-.288 2.16-.456 3.144-.144.984-.264 3.312-.264 5.16.048 3.48.576 6.48 1.68 9.36.288.744.432 1.584.36 2.208l-.096 1.032h-1.272c-.696 0-1.44.072-1.656.144-.48.192-.48.888 0 1.824.72 1.416.84 2.112.408 2.928-.696 1.32-3.144 4.08-5.184 5.784-1.008.84-4.248 5.256-4.248 5.808 0 .096-.432 1.056-.96 2.112s-.96 2.088-.96 2.28c0 .192-.264 1.176-.576 2.16-.336.984-.864 2.88-1.224 4.2-.36 1.32-.888 3.144-1.2 4.08-.288.912-.84 2.928-1.2 4.44-.36 1.512-.912 3.528-1.224 4.488-.312.936-.576 1.848-.576 1.992 0 .168-.144.624-.336 1.032-.336.768-1.584 5.136-1.584 5.544 0 .12-.144.408-.312.6-.168.216-.504 1.032-.744 1.824s-.84 2.352-1.344 3.48c-.504 1.128-1.2 2.736-1.56 3.6-.384.864-.864 1.824-1.104 2.136-.264.312-.456.816-.456 1.104 0 .288-.216.72-.504.984-.48.432-.48.432-.312-.264.096-.408.312-.936.456-1.2.168-.264.384-.816.48-1.2.168-.768.6-1.848 1.368-3.36.264-.528.528-1.32.576-1.776.072-.432.216-.984.336-1.224.144-.24.24-.648.24-.888s.288-1.296.624-2.352c.504-1.608 2.016-7.176 2.76-10.2.096-.456.432-1.752.696-2.88.552-2.208.936-4.032 1.056-5.16.096-.816.456-2.784.96-5.28.336-1.68.168-2.52-.312-1.608-.144.264-.432 1.656-.648 3.096-.216 1.416-.6 3.336-.864 4.272-.264.912-.552 2.328-.672 3.12a16.12 16.12 0 0 1-.432 2.16c-.12.384-.408 1.584-.648 2.64a96.777 96.777 0 0 1-.96 4.08 126.341 126.341 0 0 0-.792 3.12c-.12.528-.456 1.608-.744 2.4a578.1 578.1 0 0 0-1.704 5.28c-1.416 4.44-2.28 6.576-4.824 11.76-.648 1.32-1.368 3-1.632 3.72-1.032 3.024-1.224 3.576-1.8 5.52-.792 2.592-1.008 3.384-1.344 5.16-.168.792-.48 2.184-.72 3.12-.768 2.976-1.032 5.184-1.08 9.096l-.048 3.84-1.584.84c-2.256 1.2-3.36 2.232-4.992 4.656-3.048 4.464-4.296 8.664-4.128 13.848.024 1.248.168 5.568.288 9.6.216 7.296.504 10.032 1.344 12.816.336 1.176.36 1.512.12 1.92-.24.384-.24.528.096.744.336.264.336.312-.048.672-.768.672-4.416 2.592-7.968 4.152-.864.36-1.944.888-2.4 1.176-.456.264-1.584.72-2.52 1.008-.912.288-2.544.816-3.6 1.152-2.928.984-5.328 1.536-7.176 1.68-.936.072-2.616.24-3.744.36-1.128.12-3.168.336-4.56.48-1.392.144-2.688.312-2.88.384-.192.096-1.176.192-2.208.216l-1.824.072-.24-.888a40.15 40.15 0 0 0-.6-1.824c-.816-2.16-.696-8.472.192-12.96.648-3.192 2.976-9.6 4.848-13.44 2.016-4.08 2.4-4.704 4.416-7.56a221.349 221.349 0 0 0 2.472-3.6c1.032-1.56 9.744-10.56 10.2-10.56.144 0 1.056-.672 2.016-1.512.936-.84 1.896-1.608 2.112-1.752 1.056-.6 4.248-3.864 5.856-5.976a47.41 47.41 0 0 1 1.368-1.704c2.976-3.552 6.312-10.464 7.272-15.096.216-1.056.648-2.616.96-3.48.72-2.016 4.032-11.04 5.04-13.68 1.008-2.664 5.592-14.184 5.856-14.64.096-.192.36-.696.576-1.08.216-.408.552-1.104.744-1.56 1.344-3.192 2.424-5.904 3-7.56.744-2.088 4.248-10.392 4.584-10.8.096-.12.768-1.368 1.488-2.76 1.92-3.672 3.504-6.648 4.368-8.16.408-.72 1.392-2.664 2.16-4.32.768-1.656 1.8-3.864 2.304-4.92 1.08-2.256 2.4-5.664 2.976-7.68.6-2.04.192-4.464-1.296-7.68-1.68-3.576-2.136-4.872-2.4-6.744-.12-.96-.336-2.016-.48-2.352-.12-.36-.24-1.176-.24-1.8 0-2.64-1.104-5.76-3.264-9.192-.336-.504-.792-1.488-1.08-2.184l-.48-1.248.792.888c.432.504 1.272 1.464 1.872 2.136zm3.84-18.024c0 .6.384 1.056.6.72.096-.168 0-.456-.216-.672-.312-.336-.384-.336-.384-.048zm199.368 21.768c-.096.072.072.504.336.96.576.912.504.96-.72.336-.6-.312-1.008-.384-1.248-.24-.192.12-.672.144-1.08.072-.456-.072-.84-.024-.936.12-.168.288 5.472 6.024 5.952 6.024.144 0 .528.264.864.576.744.696 2.304 1.584 2.784 1.584 1.248 0 5.184 1.92 9.24 4.512 1.224.768 1.272.84.84 1.152-.24.192-.576.336-.744.336-.144 0-.408.168-.576.36-.504.6-.72.408-.72-.6 0-.672-.096-.96-.336-.96-1.032 0-.696 3.36.432 4.296.576.48 1.056.144 1.344-.912.288-1.056 1.224-1.944 2.064-1.944.312 0 1.008.312 1.584.72 3.816 2.664 5.016 3.6 6.84 5.448.696.672 1.44 1.656 1.68 2.136.552 1.128 1.104 1.512 1.704 1.152.864-.552.648-1.392-.696-2.52a28.882 28.882 0 0 1-1.752-1.608c-.288-.312-.888-.768-1.344-1.008a11.682 11.682 0 0 1-1.56-1.128c-.744-.72-4.872-3.672-6.36-4.56-1.92-1.152-7.752-4.152-8.064-4.152-.072 0-.408-.216-.744-.456-.312-.264-1.2-.648-1.944-.864-2.232-.648-3.192-1.272-5.136-3.336-1.032-1.056-1.872-2.016-1.872-2.088 0-.216 1.44-.528 2.208-.48.384.048.72-.096.864-.36.216-.408.36-.36 1.752.36.84.432 1.896 1.176 2.328 1.656.648.72.768 1.032.768 2.088 0 1.368.192 1.632 1.32 1.896.384.096 1.2.528 1.8.96.6.408 1.632 1.08 2.28 1.464.672.384 1.368.816 1.584.96 1.248.768 1.416.84 1.416.6 0-.264-2.784-2.376-5.208-3.936-1.32-.864-1.464-1.056-1.584-1.92-.312-2.112-1.824-3.864-4.032-4.584-1.44-.48-3.984-1.728-4.2-2.064-.144-.24-.912-.288-1.128-.048zm18.312 4.68c0 .144.312.816.696 1.488.6 1.08 1.2 3.288 1.68 6.264.168.984 1.536 3.24 1.968 3.24.408 0 .528-.72.24-1.344-.552-1.176-.744-1.704-1.224-3.36-.576-2.016-.576-2.016-.144-2.016.432 0 1.416 1.512 1.92 3 .216.648.48 2.16.552 3.312.096 1.488.24 2.16.48 2.256.504.192.624-.048.624-1.32 0-1.8-.312-3.84-.696-4.56-.168-.36-.336-.768-.336-.936 0-.144-.72-1.08-1.632-2.04-.888-.96-1.992-2.328-2.424-3.024-.504-.744-1.008-1.248-1.272-1.248-.24 0-.432.12-.432.288zM297.6 67.344c-.336.048-1.056.168-1.584.24-.936.12-3.504 1.56-4.08 2.28-.552.696-1.536 3.576-1.752 5.112-.144.984-.144 3-.024 5.184.192 2.904.144 3.816-.144 4.944-.36 1.392-1.488 3.336-2.28 3.888-.576.384-.576 1.008-.048 1.92.36.648.384.816.072 1.752-.408 1.2-3.12 4.104-4.104 4.416-.312.096-1.2.48-1.968.864-.744.384-1.824.768-2.376.84a3.99 3.99 0 0 0-1.848.936c-1.512 1.344-2.856 1.68-7.32 1.92-2.736.12-3.648.672-4.584 2.688-.576 1.2-.672 1.776-.744 4.272-.144 3.792-.576 5.664-2.688 11.472-.672 1.872-2.688 5.712-3.552 6.72-.312.384-.576.816-.576 1.008 0 .336-1.464 2.232-2.88 3.72a35.052 35.052 0 0 0-1.68 1.944c-1.056 1.296-3.432 3.696-5.76 5.784-.984.864-2.4 2.16-3.12 2.88-.72.696-1.944 1.8-2.688 2.424a61.503 61.503 0 0 0-2.64 2.352c-.696.672-1.584 1.392-1.992 1.584-.696.36-.984.6-3.264 2.472-1.2 1.008-2.52 1.92-2.76 1.92-.096 0-.528.36-.96.816-.672.672-6.48 4.728-7.416 5.184-.144.072-.648.408-1.104.768-.48.384-.96.672-1.08.672-.12 0-.768.384-1.416.864-.672.48-1.44.96-1.752 1.08-.288.12-1.104.648-1.824 1.176-.696.528-1.344.96-1.464.96-.192 0-3.264 2.136-3.48 2.4-.072.096-.6.48-1.2.84s-1.608 1.104-2.28 1.656c-.648.552-1.752 1.392-2.4 1.872-1.128.816-2.4 2.088-5.28 5.352-1.272 1.44-2.712 3.936-3.192 5.544-.36 1.248-.384 4.2-.024 4.992.6 1.272 1.656.912 1.656-.552 0-.48-.096-1.008-.216-1.2-.264-.408.216-2.376 1.008-4.128.456-1.008 1.344-2.088 3.72-4.44 3.984-3.984 8.736-7.728 13.92-10.944 1.248-.768 2.976-1.896 7.896-5.16a573.983 573.983 0 0 1 3.48-2.304c.576-.384 1.464-.984 1.992-1.392a83.399 83.399 0 0 1 2.28-1.584c.72-.504 1.704-1.2 2.16-1.56.456-.36 1.752-1.32 2.88-2.16 3.36-2.448 14.352-12.792 17.64-16.608.792-.912 1.56-1.776 1.68-1.92 1.968-2.208 4.992-7.368 6.408-10.944.384-.984.792-2.016.912-2.28.12-.264.504-1.464.84-2.64 1.608-5.472 1.968-7.44 1.584-8.52-.504-1.512.432-4.008 1.944-5.112.552-.408 1.2-.528 3.84-.672 2.88-.144 4.944-.552 5.832-1.176.384-.264 2.328-.912 3.24-1.056 1.056-.192 3.384-1.344 4.8-2.4 1.512-1.104 3.336-4.2 3.6-6.072.096-.768.576-2.304 1.08-3.432.888-2.016.888-2.088.936-5.28 0-1.776-.024-4.224-.096-5.4-.12-2.016-.072-2.28.672-4.128.816-2.04 1.872-3.6 2.76-4.056.288-.168 1.272-.48 2.16-.696 2.088-.528 5.832-.312 8.928.48 4.176 1.08 9.528 3.48 11.712 5.256 2.568 2.136 4.464 4.08 5.232 5.424.432.816.936 1.608 1.08 1.776.144.144.36.552.456.864.096.336.48 1.2.864 1.92 1.56 3 1.944 6.048 1.152 8.76-1.032 3.456-3.888 4.728-7.776 3.456-2.664-.864-10.752-.648-12.696.336-.264.12-1.032.264-1.728.288-.744.024-1.56.24-2.064.552-.432.264-1.488.768-2.352 1.128-1.848.768-6.192 3.12-8.448 4.584-.888.576-1.68 1.056-1.752 1.056-.096 0-.768.408-1.512.936-.744.504-1.608.984-1.896 1.08-.312.096-.552.288-.552.408s-.84.816-1.848 1.584c-1.032.744-1.92 1.44-1.992 1.512-.072.072-.36.312-.624.504-2.256 1.512-9.024 8.448-11.376 11.592-.456.624-1.152 1.536-1.56 2.064-.384.504-1.248 1.656-1.896 2.568-2.136 2.952-2.64 3.672-3.744 5.064-.6.768-1.992 2.64-3.12 4.128-1.128 1.488-2.88 3.576-3.888 4.608-1.032 1.032-1.872 2.04-1.872 2.232 0 .192-.216.48-.48.648-.792.48-4.896 5.424-6.264 7.536-.672 1.032-1.92 2.592-2.736 3.456a97.879 97.879 0 0 0-3.096 3.48 355.027 355.027 0 0 1-2.736 3.216c-.624.72-1.32 1.584-1.536 1.92a82.67 82.67 0 0 1-1.608 2.304c-4.608 6.456-7.224 10.704-7.224 11.784 0 .192-.096.336-.216.336-.264 0-1.224 2.448-1.224 3.144 0 .288-.096.408-.264.312-.192-.096-.216-.576-.12-1.392.696-5.352.864-7.344.864-9.768 0-3.216-.408-7.92-.744-8.256-.192-.192-.336.144-.24.672.144.912 0 9.144-.24 11.688-.144 1.776-.264 3.408-.264 3.6-.024 1.464-1.704 9.408-2.544 12.072a80.08 80.08 0 0 0-.888 2.928c-.24.792-.6 1.92-.84 2.52-.24.6-.768 2.04-1.2 3.24-.72 2.04-1.344 3.672-2.04 5.28-.168.384-.552 1.368-.864 2.16-.552 1.44-3.504 7.368-5.496 11.04-.552 1.056-1.512 2.832-2.112 3.96-.576 1.128-1.152 2.136-1.248 2.28-.24.312-1.464 2.568-2.184 3.96-.288.6-.672 1.248-.84 1.44-.144.192-1.008 1.728-1.872 3.408-.864 1.68-1.872 3.552-2.256 4.2-.672 1.2-1.464 2.784-2.568 5.232-.36.792-.84 1.872-1.104 2.4-.624 1.368-1.176 2.736-1.536 3.84-.168.528-.816 2.136-1.44 3.6-.624 1.44-1.368 3.456-1.68 4.44-.288.984-.72 2.208-.936 2.688-.216.504-.384 1.152-.384 1.488 0 .312-.168.888-.36 1.248-.192.384-.36 1.08-.36 1.56 0 .456-.12.96-.24 1.08-.24.24-.576 1.464-1.32 4.896-.216.984-.528 2.4-.72 3.12-.672 2.688-1.56 6.744-1.56 7.224 0 .264-.168 1.152-.36 1.968-.168.816-.576 2.616-.84 4.008a249.34 249.34 0 0 1-.744 3.48c-.144.528-.408 1.68-.6 2.544-.576 2.592-1.584 5.688-3.552 10.848-.336.888-.624 1.824-.624 2.064s-.264.912-.576 1.488c-.312.576-.72 1.536-.888 2.136-.168.6-.48 1.344-.696 1.68-.216.336-.48.816-.552 1.08-.264.96-1.104 3.048-1.32 3.312-.144.168-.72 1.224-1.32 2.352-1.464 2.784-1.704 3.12-3.648 5.616-1.632 2.088-7.824 8.52-8.208 8.52-.096 0-.888.648-1.752 1.44-.864.792-1.632 1.44-1.752 1.44-.096 0-.744.384-1.416.84-2.16 1.512-4.56 2.304-6.336 2.112-1.08-.12-1.272-.072-1.608.432-.456.624-.456.6-.888-1.632-.168-.84-.456-1.632-.624-1.776a.96.96 0 0 1-.336-.672c0-.216-.096-.504-.216-.648-.12-.12-.648-1.056-1.2-2.088-.552-1.032-1.392-2.448-1.872-3.12-1.296-1.824-5.352-5.328-7.872-6.792-.792-.456-2.256-1.32-3.24-1.896-.984-.576-2.664-1.344-3.72-1.704-1.056-.36-2.016-.72-2.16-.816-.432-.312-1.944-.72-3.984-1.08-1.104-.168-2.76-.504-3.696-.696-1.896-.432-4.32-.48-5.616-.168-.48.12-1.464.336-2.184.504-1.824.384-4.968 1.824-6.168 2.856-.552.48-1.536 1.296-2.184 1.824-.648.528-1.32 1.2-1.512 1.464-.192.288-.864 1.176-1.536 1.992-1.008 1.272-3.144 4.8-3.624 6.024-.072.192-.336.84-.576 1.44-.24.6-.504 1.464-.6 1.92-.168.936-.528 7.32-.696 12.84-.168 5.808-.84 8.976-2.52 11.88-.816 1.392-4.416 4.992-5.304 5.328-.408.12-.72.312-.72.432 0 .216-1.536 1.248-3.048 2.04-1.8.96-4.776 1.344-6.576.84-2.472-.696-3.552-3.744-2.352-6.768.672-1.704.96-1.992 3.336-3.216 1.128-.6 2.52-1.392 3.12-1.776 1.344-.864 2.856-1.584 4.608-2.184 1.896-.624 4.584-1.968 4.704-2.304.144-.504-.576-.624-1.44-.24-2.064.888-3.504 1.44-4.152 1.584-.384.096-1.896.816-3.36 1.584-1.44.744-3.264 1.68-4.032 2.064-3.168 1.584-4.56 3.648-4.584 6.816-.024 1.776.024 1.992.744 3 1.08 1.56 1.488 1.848 3.072 2.28 3.744.984 7.392.144 11.472-2.664 3.12-2.16.456 1.272-3.12 4.032-.696.528-1.272 1.128-1.272 1.296 0 .456.216.408 1.32-.264 1.152-.72 1.32-.744 1.32-.144 0 .456-.888 1.224-1.752 1.536-.672.24-.408 1.032.288.936 1.272-.192 5.184-4.08 7.056-7.032 1.656-2.592 3.168-6.312 3.864-9.456.576-2.568.672-3.72.864-10.32.144-4.104.36-7.872.48-8.4.12-.528.24-1.368.24-1.848 0-1.056 1.008-4.08 1.872-5.664.336-.624.792-1.464 1.008-1.872 1.344-2.544 5.808-6.72 8.784-8.208 1.584-.792 4.224-1.68 5.712-1.944 5.808-1.032 15.36 1.44 21.696 5.616 3.816 2.52 6.816 5.112 8.328 7.2.576.792 1.224 1.632 1.44 1.872.408.456 1.44 3.192 1.824 4.848.144.528.288 1.776.336 2.76.072.984.168 2.112.24 2.496.36 1.992-1.488 9.024-2.928 11.184-.312.456-.552 1.056-.552 1.344 0 .288-.168.648-.36.816-.192.168-.36.48-.36.696 0 .408-.72 1.968-1.176 2.52-.552.672-1.032 3.624-.936 5.952.096 2.784.024 2.88-2.376 2.664-1.584-.12-1.752-.096-3.312.744-.888.48-1.824.864-2.04.864-.24 0-.672.216-1.008.456-.312.264-.912.552-1.296.648-1.368.336-2.832 1.08-3.744 1.896-.504.456-1.056.84-1.224.84-.528 0-2.76 2.256-3.264 3.288-.288.552-.504 1.392-.504 1.872 0 .984-.312 1.056-1.248.288-1.464-1.2-2.808-3.816-2.832-5.472 0-1.248.432-3.816.72-4.176.096-.144.312-.84.48-1.56.312-1.368.936-3.12 2.04-5.76a333.886 333.886 0 0 1 2.304-5.4c.48-1.056.936-2.976 1.08-4.584.24-2.496-.696-7.584-1.56-8.52-.216-.216-.696-.84-1.056-1.392-1.008-1.464-3.288-3.12-4.56-3.288-1.392-.192-2.472.336-2.688 1.344-.096.384-.096.816 0 .96.192.312 1.344.312 2.16 0 .912-.336 2.184.072 3.36 1.056.936.816.96.84.456 1.2-1.152.816-1.728 2.112-2.112 4.632-.24 1.68-.288 2.688-.12 3.24.12.432.216 1.272.216 1.872 0 .6.12 1.512.24 2.04s.24 2.544.264 4.464c.048 3.744.048 3.648-1.752 9.336-.288.864-.552 2.256-.624 3.12-.096 1.584 0 2.232.888 6.192l.504 2.232-.48 1.104c-.264.6-.48 1.344-.48 1.656 0 1.176-2.496 3.96-4.488 4.968-.408.216-.792.48-.84.6-.072.192-3.48 2.496-3.912 2.664-.288.096-3.384 1.512-4.8 2.208-.528.24-1.488.576-2.112.696-.648.144-1.56.408-2.016.6-.48.192-1.464.432-2.208.504-.744.096-1.656.288-2.064.456-3.672 1.512-16.104 2.088-19.32.888-.336-.12-1.128-.288-1.8-.384-.648-.096-1.416-.312-1.68-.48-.264-.168-.912-.384-1.416-.48-.504-.096-1.152-.336-1.44-.504-.288-.192-1.272-.576-2.184-.864-.936-.264-1.848-.648-2.04-.816-.192-.144-1.272-.672-2.4-1.152-2.112-.888-6.648-3.144-9.312-4.632-3.192-1.776-6.216-4.224-6.504-5.28-.072-.312-2.136-2.592-4.584-5.088-2.448-2.472-4.896-5.04-5.448-5.736-1.464-1.752-3.48-5.928-4.728-9.672-1.368-4.104-1.344-4.032-1.512-7.992-.144-3.216.12-5.16.888-7.008.12-.264.384-1.056.6-1.728.384-1.224 2.592-5.544 3.504-6.84.264-.336.456-.696.456-.792 0-.192 2.76-3.864 3.552-4.752.336-.36.792-.648 1.008-.648.84 0 2.784-2.832 3.552-5.184.264-.816.768-2.064 1.128-2.808.504-1.008.624-1.536.504-2.16-.216-1.104-1.2-2.352-2.664-3.312-.648-.432-1.464-.96-1.8-1.176-1.056-.696-5.76-1.848-9.84-2.4-.864-.12-2.16-.36-2.88-.552-.72-.192-2.136-.48-3.12-.648-.984-.144-2.4-.48-3.12-.72-.72-.24-2.136-.672-3.12-.984a46.09 46.09 0 0 1-3.24-1.104c-1.512-.576-4.296-1.392-6.12-1.776-.6-.12-1.56-.312-2.16-.456-2.808-.648-5.04-.888-5.448-.6-.6.456-.192.768 1.272.96.72.072 1.704.312 2.136.504.456.192 1.128.336 1.488.336.72 0 3.96 1.008 5.472 1.704 1.44.648 5.568 2.064 7.08 2.376.72.168 1.44.384 1.56.48.288.216 4.608 1.536 6.24 1.896 1.32.312 4.128.816 7.44 1.344 1.2.192 2.76.456 3.504.576 2.712.456 6.384 2.688 6.168 3.768-.072.36-.264.432-.864.384-.864-.048-.936.144-.504 1.392.312.864-.072 3-.72 4.08-.192.336-1.704 1.92-3.36 3.552-1.656 1.632-3.336 3.504-3.744 4.128-.384.648-1.344 2.184-2.112 3.432-1.296 2.112-2.352 4.416-2.808 6.048-1.464 5.28-1.536 6.024-1.056 10.56.264 2.616 1.248 6.36 1.8 6.936.12.144.216.408.216.6 0 .216.168.696.36 1.08.192.36.36.792.36.912 0 .144.384 1.056.84 2.04.456.984.84 1.848.84 1.92 0 .072.288.408.624.768.336.336 1.368 1.632 2.28 2.832.912 1.224 1.752 2.232 1.848 2.232.096 0 .864.648 1.728 1.44.864.792 1.656 1.44 1.776 1.44.12 0 .024.216-.216.48-.432.48-.432.504.264 1.248 1.608 1.728 5.016 4.968 5.976 5.688.144.096 1.104.816 2.16 1.608 2.112 1.56 4.632 3.168 5.76 3.672 1.296.552 2.712 1.584 2.856 2.04.072.264.264.384.456.312.168-.072.648.024 1.032.192s1.176.48 1.776.72c.6.24 1.776.768 2.64 1.152 3.96 1.752 6.408 2.784 7.08 2.928.408.096 1.608.432 2.688.744 3.192.936 9.048 1.344 13.632.912 6.888-.648 17.448-3.384 20.328-5.28.504-.312.96-.576 1.056-.576.576 0 6.648-4.512 7.56-5.592 1.368-1.656 2.376-4.512 2.376-6.72v-1.44l1.032.96c.576.528 1.176 1.008 1.368 1.08.216.072.312.768.336 2.592.024 2.28.096 2.616.672 3.6.336.6.984 1.776 1.416 2.592.504.984.984 1.608 1.368 1.752.336.12.864.432 1.224.672.336.24 1.176.624 1.824.84.672.24 1.368.504 1.56.6.672.336 4.896 1.416 6.6 1.68 1.296.192 2.448.168 4.92-.096 1.776-.192 3.504-.432 3.84-.504.336-.096.864-.192 1.2-.24.336-.048 1.368-.264 2.28-.456.936-.216 2.496-.528 3.48-.72.984-.192 2.496-.552 3.36-.84 1.632-.528 4.464-.984 4.992-.768.408.144 2.496-.408 2.928-.792.192-.168 1.056-.408 1.92-.552a34.068 34.068 0 0 0 2.976-.648c1.56-.432 3.696-.384 5.856.144 1.104.288 1.344.264 1.944-.096.96-.552 1.512-.504 2.184.192.624.672 2.064 1.272 3.48 1.44.528.072 1.776.216 2.76.336 2.016.264 5.952-.048 7.68-.576 1.416-.456 5.808-1.32 6-1.2.336.216 2.904.432 4.608.408 2.112-.048 3.12-.504 4.128-1.848.816-1.056.792-1.944-.096-3.288-.648-.984-1.056-1.272-2.472-1.728-.312-.096-.384-.288-.264-.72.264-1.08-.288-2.136-1.392-2.712-.576-.288-1.32-.6-1.68-.672-.792-.192-1.2-.624-1.968-2.184-.336-.672-1.104-1.728-1.704-2.376-.6-.648-1.08-1.248-1.08-1.344 0-.096-.696-.528-1.56-.96-1.128-.552-2.088-.816-3.432-.96-1.008-.096-2.64-.36-3.6-.552-2.664-.6-6.864-.192-10.056.936-2.208.792-2.376.816-2.664.432-.888-1.248-.96-1.272-2.76-1.272-2.136 0-2.856.384-2.664 1.416.096.48-.024.96-.48 1.68-.36.528-.72.984-.816.984-.096.024-.648.12-1.248.24-1.392.312-6.144.552-6.888.36-.432-.096-.552-.288-.552-.888 0-1.296-.768-2.904-1.872-3.96-1.848-1.752-3.432-1.632-6.336.456-1.056.768-.744-1.056.384-2.376 2.688-3.072 3.336-3.936 3.888-5.088.792-1.632.672-2.424-.576-4.272-1.104-1.608-1.416-1.896-3.024-2.808-1.104-.648-1.272-.672-3.768-.576-3.192.096-3.384.24-4.08 2.976-.36 1.512-.456 2.616-.432 5.448.024 1.944-.024 3.6-.12 3.696-.264.264-.984-.288-1.056-.84-.048-.264-.336-.648-.624-.864-.432-.264-.576-.648-.696-1.704-.264-2.688.216-4.248 3.432-11.04 2.304-4.872 2.88-7.176 2.88-11.688 0-2.784.048-3.096.36-2.832.288.24.576.24 1.272.048a44.43 44.43 0 0 1 1.968-.528c.6-.168 1.656-.552 2.352-.864.696-.312 1.32-.576 1.392-.576.072 0 .48-.264.912-.6.432-.336.864-.6.936-.6.288 0 2.328-1.488 2.328-1.704 0-.12.432-.528.96-.912 1.752-1.272 7.44-6.84 9.24-9.072.984-1.224 1.8-2.28 1.8-2.352 0-.072.336-.576.72-1.128.408-.528.72-1.152.72-1.368 0-.216.216-.768.48-1.224 1.584-2.808 4.464-9.12 4.92-10.8.096-.336.384-1.08.672-1.68.816-1.848 2.4-6.168 2.928-8.04.168-.672.504-1.68.696-2.256.216-.576.384-1.296.384-1.608 0-.312.168-1.08.384-1.704.216-.624.6-2.016.816-3.072.24-1.056.648-2.784.912-3.84a87.112 87.112 0 0 0 1.632-7.92c.216-1.32.696-3.624 1.08-5.136.384-1.512.696-3.024.696-3.384 0-.36.168-1.248.384-1.944.192-.72.456-1.68.576-2.136.408-1.704 1.272-4.536 2.328-7.56.576-1.728 1.2-3.6 1.392-4.2.408-1.392 1.92-4.92 2.4-5.664.192-.312.36-.672.36-.816 0-.144.312-.936.696-1.752.384-.816.864-1.896 1.08-2.4.288-.696.48-.888.96-.888.336 0 .672-.096.744-.24.312-.504 3.336-1.512 5.472-1.8 1.344-.168 5.424.6 7.032 1.368.864.384 1.056.648 1.68 2.184.672 1.584.792 1.728 1.488 1.8.912.096 1.152.696.912 2.352-.072.576-.024 1.32.096 1.656.336.864 1.56 2.16 3.336 3.504 1.56 1.2 2.664 1.512 2.664.792 0-.288.12-.336.432-.216 1.2.528 2.712.648 4.344.36 1.8-.312 2.256-.6 1.608-1.08-.312-.24-.696-.216-1.872.048-1.872.432-2.736.264-4.08-.768-1.416-1.056-2.04-2.424-2.232-4.824-.24-2.688-.648-3.912-1.872-5.52-1.608-2.112-3.096-3.072-6.408-4.08-4.44-1.392-7.128-1.344-10.032.168-.984.504-1.848.888-1.92.84-.12-.12 2.856-5.784 3.672-7.008.336-.48.6-1.008.6-1.152 0-.144.696-.984 1.56-1.824.864-.84 1.56-1.608 1.56-1.704 0-.096.432-.888.984-1.776 1.344-2.232 1.92-3.648 1.752-4.32-.096-.408.24-1.224 1.2-2.976.744-1.344 1.344-2.544 1.344-2.688 0-.408.936-1.896 1.848-2.928.432-.48.792-1.056.792-1.272 0-.216.144-.72.336-1.128a33.82 33.82 0 0 0 .72-1.848c.192-.6.792-2.16 1.344-3.48.528-1.32 1.128-2.832 1.32-3.36 1.248-3.504 2.328-6.792 2.88-8.76.336-1.248.72-2.472.84-2.688.216-.408.84-2.088 1.68-4.512.96-2.76 1.248-3.528 1.968-4.92 1.32-2.616 2.16-4.08 2.712-4.68.288-.336.6-.768.696-.96.072-.192.336-.648.576-.984.216-.336.744-1.128 1.128-1.752.648-1.032 3.408-4.944 3.888-5.544.12-.144.384-.48.576-.768.192-.288.816-1.056 1.368-1.68 1.728-2.016 2.688-3.24 2.688-3.432 0-.096.36-.552.792-1.008 2.304-2.496 4.32-4.728 4.8-5.376 1.08-1.488 2.808-3.816 3.024-4.08.12-.144.936-1.176 1.824-2.28 3.024-3.768 3.36-4.152 3.96-4.728.336-.312 1.08-1.248 1.68-2.088a149.811 149.811 0 0 1 4.584-6.048c.456-.552 1.2-1.584 1.656-2.256a48.56 48.56 0 0 1 1.944-2.592c.6-.744 1.56-2.04 2.136-2.904.576-.864 1.368-1.944 1.776-2.424.408-.48 1.224-1.44 1.824-2.136 1.704-2.016 7.44-7.704 8.712-8.64a52.012 52.012 0 0 0 1.8-1.392c.36-.288 1.248-.936 1.968-1.44.72-.48 1.872-1.32 2.52-1.872 1.152-.96 4.536-3.216 4.824-3.216.072 0 1.824-.912 3.888-2.04 3.144-1.704 5.736-2.832 8.28-3.648.264-.096.408 0 .408.264 0 .432.528.504 1.224.12 1.224-.648 3.192-.984 6.576-1.104 3.072-.096 3.96-.048 5.976.384 1.32.288 2.856.504 3.408.504 2.232 0 4.296-1.392 5.472-3.648.528-1.008.624-1.512.624-3.168 0-2.592-.624-4.824-2.4-8.448-2.616-5.424-7.056-10.272-11.04-12.12-.864-.408-1.944-.912-2.4-1.152-.456-.24-2.304-.888-4.08-1.44-1.776-.552-3.576-1.104-4.008-1.248-.84-.264-5.328-.48-6.312-.312zm-85.92 169.152c3.024.744 4.032 1.296 6.12 3.336 2.04 2.016 2.184 2.256 2.376 4.008l.144 1.32-.48-1.008c-.264-.552-.864-1.296-1.296-1.632-.528-.408-.864-.912-.96-1.416-.192-1.056-.768-1.536-2.712-2.232-2.664-.96-4.368-1.32-6.984-1.44-3.312-.168-3.192-.648.312-1.248.672-.12 1.2-.216 1.2-.24 0 0 1.032.24 2.28.552zm9 10.872c.432 1.776.432 1.872.024 1.512-.528-.408-.936-1.848-.744-2.568.192-.816.336-.624.72 1.056zm-95.904 96.24c.432 1.08.936 3.576.864 4.176-.312 2.256-.72 4.344-1.008 5.256-.648 1.92-1.848 4.8-1.992 4.8-.144 0-.96-8.904-.96-10.44 0-1.464.432-2.688 1.248-3.6.864-1.008 1.488-1.08 1.848-.192zm28.824 12.864c1.08.36 2.064 1.152 3.072 2.376 1.32 1.68.912 3.576-1.344 6.072-3.384 3.768-3.48 3.984-2.832 6.456.336 1.32.864 1.824 1.872 1.824.504 0 .672-.12.672-.456a.728.728 0 0 0-.36-.6c-.552-.192-.432-.456.552-1.104.72-.48 1.2-.576 2.52-.6 1.512 0 1.704.048 2.208.672.696.792 1.248 2.496.936 2.808-.144.144-.48.096-.912-.12-1.512-.792-1.872-.072-.432.864.744.504.888.72.84 1.392 0 .432-.072.84-.144.888-.072.072-1.632.144-3.456.168-3.12.024-3.408-.024-4.032-.504-.528-.408-.72-.48-.888-.24-.288.456-.24.6.384 1.248.864.936 2.304 1.344 4.848 1.344 1.248 0 2.256.096 2.256.216 0 .36-1.224 1.104-2.304 1.416a6.932 6.932 0 0 1-3.768.024c-1.056-.288-1.224-.216-1.032.456.192.6 1.272.816 3.984.864 1.8.024 2.184-.048 3.36-.672.72-.36 1.512-.84 1.728-1.032.288-.264.672-.312 1.368-.192 1.344.216 1.296-.264-.144-1.632-1.056-1.008-1.128-1.152-.888-1.776.192-.528.36-.648.816-.576.96.12 5.76.144 7.2.024l1.32-.12.072 1.68c.048.912-.024 2.376-.192 3.24-.216 1.296-.192 1.824.12 3.12.6 2.376.6 2.52-.24 2.592-.384.024-1.752.24-3 .456-1.248.192-2.832.384-3.528.408-.672 0-1.32.096-1.416.216-.096.096-.48.168-.864.168s-1.056.264-1.488.6c-.576.432-1.08.6-1.896.6-.6 0-1.152.096-1.224.216-.072.12-.768.288-1.512.384-.768.096-1.56.264-1.8.384-.216.12-1.464.36-2.784.576-2.136.312-3.48.6-6.288 1.32-.456.12-1.392.24-2.064.24-.672 0-1.296.072-1.368.144-.264.264-3.24.336-4.68.096-5.616-.888-8.016-2.256-9.912-5.712-1.008-1.8-1.032-1.92-1.056-4.008 0-1.896.072-2.256.552-2.856.288-.384.528-1.032.528-1.44 0-1.032 1.464-2.4 3.84-3.6.984-.504 1.848-1.008 1.92-1.08.24-.336 2.064-1.608 2.64-1.872 2.88-1.32 3.816-1.704 4.344-1.824 1.008-.264 3.456-1.704 3.528-2.136.12-.672-.816-.648-2.136.072-.696.384-1.44.696-1.656.696-.48 0-1.944.552-2.904 1.08-.336.192-1.08.408-1.632.504-.576.096-1.32.408-1.656.696-.36.288-1.176.816-1.848 1.2-.648.36-1.704 1.104-2.304 1.656-1.872 1.68-3.336 2.904-3.576 2.976-.288.096-.312-1.176-.024-1.92.12-.312 1.008-1.104 1.968-1.752.984-.672 2.16-1.488 2.616-1.848.456-.36 1.488-.888 2.28-1.176.792-.288 1.728-.72 2.064-.96.336-.24.912-.504 1.32-.576.384-.096 1.512-.504 2.496-.96 1.68-.744 1.92-.792 3.528-.624 1.68.144 1.8.192 3.216 1.44l1.464 1.296-.168 1.104c-.288 1.824-1.128 2.88-2.328 2.904-.84 0-1.104.456-.528.888.48.36 2.208.24 3.024-.192.792-.432.96-1.944.816-8.112-.168-7.896.144-9.432 2.136-9.936.936-.24 3.384-.144 4.2.144zm21.864 14.784c.552.456.552.48.144.936-.432.48-1.8 1.152-1.944.984-.024-.048-.024-.6.048-1.248.072-.984.168-1.128.648-1.128.288 0 .792.216 1.104.456zm15.216.264c.144.096.816.24 1.536.312.696.096 1.656.36 2.112.648.456.264 1.08.48 1.392.48.768 0 1.8.48 1.8.84 0 .168.48.48 1.056.696 1.056.408 1.08.456 2.808 3.624.456.864 1.776 1.8 2.52 1.8s1.296.24 1.296.576c0 .144-.24.576-.552.936-.504.648-.672.696-3.288.912-2.136.168-3.072.36-4.176.84-.768.336-1.848.672-2.4.744-.528.072-1.32.264-1.752.456-.432.192-1.536.336-2.688.336-2.016 0-2.016 0-3.096-1.32-.504-.576-1.584-.384-1.68.312-.144.936.528 1.656 1.68 1.848.576.096 1.248.336 1.512.504.312.24 1.2.336 2.712.336 2.088 0 2.4-.072 4.056-.84.984-.456 1.872-.84 1.968-.84.096 0 .864-.288 1.728-.648 1.296-.528 1.992-.648 4.368-.72 3.168-.096 3.696.048 4.224 1.32.432 1.056-.144 2.28-1.392 2.904-1.272.672-3.264.672-4.104.024-.792-.624-1.464-.6-4.992.12-1.608.336-3.72.672-4.68.744-.96.072-1.944.216-2.208.336-.816.336-3.528.456-4.92.192-.72-.12-1.968-.552-2.76-.912-1.8-.864-2.52-1.848-2.52-3.432 0-1.344.648-2.184 2.016-2.616.528-.168.984-.456 1.056-.624.144-.456-.936-.36-2.304.216-1.56.648-2.088 1.608-2.088 3.744 0 1.272-.048 1.512-.408 1.512-.216 0-.456-.096-.528-.192-.072-.12-.432-.168-.816-.096-.432.048-.792-.048-.984-.288-.192-.216-.264-.384-.216-.384.072 0-.024-.792-.192-1.752-.24-1.296-.24-2.064-.048-3.096.216-1.176.192-1.56-.24-2.808-.6-1.776-.36-2.88.816-3.792 1.488-1.128 5.784-2.688 8.376-3.024 1.248-.168 5.76-.12 6 .072zm-17.064 4.728c-.072.552.024 1.32.24 1.968.336.888.336 1.32.12 2.52-.192 1.104-.192 1.896.048 3.312.24 1.44.24 1.944.024 2.16-.456.456-.744-.024-1.272-2.04-.36-1.464-.408-2.04-.216-3.048.144-.696.24-2.112.24-3.144 0-2.064.12-2.616.624-2.616.264 0 .312.216.192.888zm-127.08 1.824c.024.096-.288.024-.696-.192-.384-.216-.72-.408-.72-.456 0-.072-.072-.312-.168-.552-.12-.312.072-.24.696.288.48.384.888.792.888.912zm395.448-292.08c-.384.288-.432.528-.288 1.512.096.648.384 1.632.648 2.16.744 1.56 1.224 5.136.696 5.136-.12 0-.24-.144-.24-.336 0-.192-.456-.696-1.008-1.128-.576-.432-1.104-.84-1.2-.936-.12-.072-.24-.888-.336-1.8-.144-1.776-.456-2.28-1.44-2.28-.648 0-1.2 1.008-1.368 2.568-.12 1.08.312 1.992.96 1.992.312 0 .336-.192.216-1.224-.144-1.08-.12-1.2.264-1.128.336.072.432.312.432 1.152 0 .912.096 1.104.6 1.368.888.408 1.824 1.536 2.016 2.352l.192.72-.696-.624c-.816-.744-1.752-1.128-3.192-1.272-.6-.072-1.104-.12-1.152-.12-.024-.024-.264-.48-.504-1.056-.504-1.176-1.056-1.728-1.584-1.512-.288.096-.36.6-.36 2.52 0 1.32.096 2.448.216 2.544.12.072.168.696.096 1.392-.216 2.328.96 2.736 2.736.912 1.44-1.464 2.784-1.896 3.408-1.128.24.288.192.432-.264.696a5.059 5.059 0 0 1-1.272.528c-.72.168-3.624 1.872-4.08 2.4-1.272 1.488-3.168 4.272-4.248 6.24-.744 1.32-1.608 2.88-1.968 3.48-.864 1.488-1.224 2.808-.864 3.264.48.552 1.152-.048 1.992-1.776 1.2-2.448 3.264-6.288 4.08-7.488 1.728-2.592 6.048-6.216 6.36-5.304.048.144.288.384.552.504.336.192.552.144.936-.24l.48-.48.24.6c.144.408.144 1.008-.048 1.8-.192.888-.192 1.344 0 1.8.288.6 1.224.984 1.824.768.576-.216.72-1.68.288-2.472-.216-.384-.48-.864-.6-1.056-1.392-2.472-1.248-3 .72-3 1.296 0 1.296 0 1.248.72-.192 2.472-.192 2.712.264 3.216.696.768 1.272.624 1.824-.456.84-1.656.432-3.6-.768-3.6-.288 0-.72-.192-.96-.408-.264-.24-.96-.48-1.584-.552l-1.128-.12-.168-3.6c-.12-2.4-.096-4.056.096-4.992.336-1.776.048-2.568-.96-2.568-.36 0-.864.144-1.104.312zm1.368.696c.048.168-.024.552-.144.864l-.264.552-.288-.528c-.144-.312-.24-.696-.168-.864.168-.408.72-.408.864-.024zm-7.152 7.608c.168.96.72 1.44 1.176.984.408-.408 1.824-.264 2.808.288 1.128.624 1.272 1.272.24 1.032-.408-.096-1.056 0-1.584.216-1.032.432-1.8.504-1.8.144 0-.144-.216-.24-.504-.24-.36 0-.456-.12-.36-.432.096-.24-.024-.648-.216-.912-.384-.504-.48-2.016-.144-2.016.12 0 .288.432.384.936zm.6 3.576c0 .36-.672 1.128-.84.96-.264-.264.12-1.152.504-1.152.192 0 .336.096.336.192zm11.04 2.304c0 .528-.264 1.104-.504 1.104s-.288-1.032-.048-1.272c.264-.288.552-.192.552.168zm-3.12 2.712c0 .696-.408 1.2-.72.888-.216-.216-.192-.408.048-.792.384-.624.672-.648.672-.096zM340.776 155.4c-.36.192-.816.72-1.032 1.176-.216.456-.48.888-.6.96-.096.072-.552-.264-1.008-.72-.456-.48-1.104-1.008-1.464-1.2-.816-.432-2.568-.432-3.12 0-.672.48-.792 1.68-.336 2.904.384.984.384 1.104.048 1.608-.432.624-.504 1.464-.144 2.136.216.36.12.648-.36 1.344-.336.504-.6 1.008-.6 1.152 0 .12-.48.72-1.08 1.32-.576.6-1.056 1.272-1.08 1.536 0 .408.144.432 1.56.312 1.176-.072 1.8-.288 2.52-.768 1.056-.72 1.296-.672 1.776.48.552 1.32 2.208 4.032 2.928 4.8.36.384 1.152 1.32 1.728 2.04.6.72 1.344 1.584 1.68 1.92.312.336.864.984 1.224 1.44.336.456 1.368 1.728 2.304 2.808 3.384 3.96 4.104 4.92 5.208 6.984 1.488 2.736 1.824 3.48 2.016 4.512.288 1.512 1.68 1.632 2.376.192.408-.864.336-1.776-.264-3.648-.72-2.184-2.856-5.76-4.68-7.824-.696-.768-1.536-1.824-1.872-2.304-.336-.504-2.088-2.448-3.864-4.296-1.776-1.848-3.312-3.576-3.456-3.792-.12-.24-.48-.696-.792-1.032-.312-.336-.744-1.152-.96-1.848-.528-1.68-.264-1.992 1.56-1.944 1.824.048 2.496-.312 2.4-1.32-.096-.96-.912-1.2-1.272-.36s-1.44.648-2.544-.432c-.816-.792-.984-.864-1.944-.768-1.248.144-2.112-.24-2.592-1.128-.312-.6-.312-.696.192-1.08.672-.552.672-1.104.024-1.44-.6-.336-1.392-2.04-1.248-2.664.096-.336.336-.456.912-.456.6 0 .984.216 1.656.96.792.888.864 1.056.72 1.992-.096.552-.24 1.176-.36 1.392-.264.504-.072.672.504.528.264-.072.744-.6 1.08-1.176.336-.576.888-1.224 1.2-1.44.336-.216.84-.816 1.128-1.32.72-1.296 1.536-1.488 2.28-.552.672.84.672 1.128.096 2.424-.264.552-.408 1.056-.312 1.128.288.312.96.12 1.584-.456.912-.84.888-2.52-.024-3.408-1.176-1.08-2.52-1.32-3.696-.672zm-3.456 8.52c.6 0 .984.672.6 1.056-.312.312-.312 1.512 0 1.704.144.072.24.456.24.84 0 .384.168.84.36 1.056.192.192.36.456.36.576 0 .12 1.488 1.8 3.312 3.744 4.056 4.344 6.288 6.912 6.288 7.248 0 .144.36.624.792 1.08 1.824 1.872 4.464 6.552 4.488 7.944 0 .768-.672.456-1.032-.504-.456-1.08-2.112-3.864-3.024-5.016-.336-.456-1.392-1.632-2.304-2.64-1.728-1.896-4.128-4.752-5.112-6.12-.288-.432-.672-.888-.84-1.008-.288-.24-1.488-1.704-2.472-3.096-1.032-1.392-2.256-4.152-2.256-5.04 0-.696-.096-.864-.456-.864-.264 0-.552.12-.624.24-.192.288-3 1.752-3.144 1.608-.048-.048.408-.768 1.008-1.584l1.104-1.512 1.08.144c.6.072 1.344.144 1.632.144zM61.08 306.696c-.072.144.24.744.72 1.368.912 1.176 1.8 2.952 1.8 3.552 0 .192.096.408.216.48.096.072.312.744.456 1.512a60.7 60.7 0 0 0 .432 2.112c.072.384.216 1.752.312 3 .12 1.872.216 2.28.552 2.352.648.12.984-1.608.84-4.152-.144-2.448-1.008-5.376-2.088-7.128-.72-1.176-.624-1.608.24-1.152.72.384 2.232 2.808 2.88 4.608.312.84.696 1.824.864 2.232.768 1.848 1.176 3.696 1.272 5.808.024.552.744.336.984-.288.384-1.008-.624-6.216-1.416-7.44-.096-.144-.312-.672-.48-1.2-.192-.528-.528-1.248-.768-1.608-.552-.768-.576-.912-.072-.912.432 0 2.064 1.224 3.144 2.4 1.776 1.896 2.928 4.824 3.312 8.52.24 2.256.384 2.76.744 2.76.576 0 .744-.984.552-3.432-.216-2.712-.936-5.4-1.656-6.048-.264-.24-.48-.576-.48-.744 0-.408-2.976-3.12-4.776-4.368-2.328-1.584-2.808-1.728-4.272-1.248l-1.248.408-.552-.576c-.72-.768-1.32-1.104-1.512-.816zm201.696 1.08c-.048.048-.888.168-1.848.24-.96.072-2.376.312-3.12.528-3.648 1.032-4.824 1.392-6.072 1.8-.744.24-1.464.456-1.608.456-.168 0-.96.312-1.776.72-.816.384-1.536.72-1.632.72-.216 0-3.48 1.872-4.752 2.76l-1.056.696-.984-.528c-.552-.288-1.248-.528-1.536-.528-.288 0-.792-.096-1.152-.24-2.424-.912-10.488-1.368-13.44-.744-3.672.792-6.912 3.096-8.16 5.856-.888 1.92-1.464 7.008-.96 8.568.072.216.768.768 1.584 1.224 1.296.744 3.288 2.112 3.96 2.76.696.624 1.872 3.36 1.968 4.56.168 2.16-1.08 4.104-2.976 4.56-2.016.48-2.616 1.464-1.32 2.136.384.192.936.696 1.248 1.104.432.624.504.936.384 2.088-.264 2.688-.768 3.744-2.592 5.568-.936.936-1.848 1.68-1.992 1.68-.168 0-.984.432-1.8.96-2.016 1.32-2.904 1.656-4.776 1.824-.888.072-2.688.408-4.008.744-2.256.6-2.592.624-6.84.48-2.448-.072-5.784-.264-7.44-.408-2.88-.264-3.096-.264-5.4.312-2.736.696-3.408.936-4.08 1.536-.696.624-2.52 2.856-2.52 3.096 0 .12-.168.432-.384.696-.336.456-.336.408-.192-.6.384-2.352 1.944-4.608 3.864-5.592.36-.192 1.512-.576 2.568-.864 2.064-.576 6.288-.768 16.344-.768 5.208-.024 8.88-.264 10.344-.72.432-.12 1.2-.288 1.728-.36 1.2-.144 3.408-1.32 4.344-2.328 1.272-1.344 2.232-3.48 2.256-4.968.024-1.08-.096-1.488-.648-2.304-.696-1.032-1.224-1.32-3.744-2.136-2.112-.696-2.616-1.32-1.656-2.184.432-.384.888-.456 3.144-.456h2.616l.696-.768c.936-1.032 1.152-2.592.624-4.296-.264-.792-.648-1.44-1.008-1.704-.336-.24-.984-.744-1.44-1.128-1.152-.936-3.384-2.28-4.152-2.448-.792-.192-3.12-1.296-3.288-1.56-.24-.408-2.832-.24-3.816.264-1.104.552-1.56.6-1.56.168 0-.552.816-1.104 2.184-1.512.72-.216 1.56-.552 1.872-.744.456-.288.72-.312 1.584-.072 1.104.312 2.04.264 2.088-.12.024-.144-.336-.504-.792-.816-.768-.528-.96-.552-3.408-.432-2.592.144-2.592.144-3.6 1.032-1.896 1.704-2.256 3.408-1.176 5.616.864 1.752 1.872 2.28 4.368 2.256 2.568-.024 4.968-.744 6.168-1.824l.504-.48 1.416 1.152c.768.624 1.752 1.632 2.184 2.232.744 1.056.768 1.2.552 2.184-.36 1.608-.912 2.016-2.592 1.92-2.832-.144-3.072-.12-3.96.552-1.056.816-1.224 1.344-.696 2.376.288.624.864 1.032 2.592 1.896 2.664 1.344 3.168 1.872 3.192 3.336 0 1.368-1.2 3.576-2.4 4.368-1.2.816-3.024 1.536-4.68 1.872a36.61 36.61 0 0 0-2.28.504c-.864.24-3.096.168-3.576-.12-.144-.096-.504-.096-.792 0-.288.072-1.344.144-2.328.12-1.008 0-2.856.096-4.104.216-1.248.12-4.416.288-7.032.36-4.128.12-4.944.192-6.48.696-3.528 1.176-5.712 2.712-6.552 4.632-.72 1.584-1.392 5.16-1.176 6.288.552 3.216.6 3.384 1.248 3.384.336 0 .912.216 1.272.48.624.432 1.44.456 1.44 0 0-.096-.384-.648-.84-1.224-1.104-1.392-1.152-2.808-.168-4.896 1.584-3.336 3.84-4.704 8.472-5.112 1.368-.144 2.568-.192 2.664-.144.096.072.84.168 1.656.24.816.048 1.704.24 1.968.36.288.168 2.184.264 4.824.264 3.672 0 4.608-.072 6.144-.504.984-.264 2.856-.6 4.176-.744 1.416-.144 2.76-.432 3.36-.72 1.272-.624 3.36-1.92 3.912-2.448.24-.24 1.152-1.008 2.016-1.728 1.896-1.56 2.448-2.616 2.976-5.544.408-2.352.312-3.024-.576-3.816-.744-.672-.624-1.032.528-1.728 2.76-1.704 3.696-5.016 2.28-8.04-.984-2.088-4.008-4.968-6.096-5.856-.864-.36-1.296-1.128-1.296-2.28 0-1.056.72-4.56 1.104-5.448.192-.408.336-.864.336-1.008 0-.168.528-.816 1.176-1.464 2.664-2.664 7.152-3.936 12.624-3.576 2.664.168 5.664.744 6.24 1.176.144.096.624.312 1.128.456 1.08.36 1.32.888.696 1.56-.768.84-1.992 3.24-1.848 3.624.264.696 1.104.336 2.616-1.08.984-.912 1.68-1.8 1.944-2.448.312-.864.672-1.224 2.112-2.112 1.704-1.056 3.528-2.016 4.752-2.472.336-.12.792-.312 1.008-.432 2.256-1.152 8.4-2.808 12.576-3.432 3.624-.504 8.904.048 11.208 1.2 1.464.744 3.504 3 4.344 4.776 1.416 3.072 1.68 4.128 1.944 7.8.144 1.968.12 2.352-.216 2.616-1.008.84.048 1.704 1.512 1.2.816-.288.792-.192.744-3.336-.096-6.312-2.832-11.904-6.672-13.608-2.856-1.272-6.528-1.992-10.08-1.992-1.176 0-2.184.048-2.232.096zm-51.096 22.488c-1.08.888-2.472 1.416-3.768 1.416-.696 0-1.272-.12-1.272-.24 0-.144.216-.24.48-.24s1.248-.264 2.208-.576c1.512-.504 2.304-.72 2.832-.84.072 0-.144.216-.48.48zm13.92-20.616c-1.92.192-4.824.96-7.176 1.896-1.92.744-5.28 3.6-6.096 5.136-.408.792-.504 1.368-.504 3.36.024 4.464.072 4.68.696 4.68.648 0 1.224-.48 1.44-1.224.12-.36 0-.696-.432-1.128-.6-.624-.6-.72-.408-2.496.264-2.352.864-3.504 2.52-4.848 1.68-1.368 3.432-2.256 6.6-3.336 2.472-.864 2.592-.888 6.36-.888 2.112 0 4.488.096 5.28.216 1.44.216 3.888 1.056 4.32 1.488.36.36 1.8.264 1.8-.144 0-.504-.72-.84-5.472-2.4-1.488-.48-5.832-.648-8.928-.312zm32.88 1.176c-.6.12-1.608.264-2.28.336-1.104.096-1.872.336-5.952 1.776-1.488.528-4.008 1.944-4.968 2.808a4.73 4.73 0 0 1-1.248.792c-.432.168-.72.48-.816.912-.336 1.512-1.992 4.008-3.36 5.112-.48.384-2.16.96-2.808.96-.6 0-1.848-1.2-1.848-1.776 0-.288.336-.84.72-1.224 1.104-1.056.888-1.776-.384-1.32-.84.312-1.776 1.608-1.776 2.472 0 .936 1.344 2.304 2.52 2.568 1.296.288 3.36.072 4.68-.528 1.632-.744 3.624-2.928 4.152-4.56.528-1.68 1.104-2.424 2.52-3.24.624-.336 1.296-.768 1.488-.936.216-.168 1.128-.6 2.04-.936.936-.336 1.896-.72 2.16-.84 2.688-1.2 9.912-1.848 14.16-1.248 3.576.48 5.304 1.584 7.392 4.632.816 1.2.936 1.608 1.392 4.56.264 1.776.576 3.312.696 3.432.144.12.384.096.6-.096.336-.288.384-.72.24-3.216-.192-3.432-.672-4.68-2.712-6.912-1.896-2.04-3.888-3.024-6.888-3.408-2.808-.36-8.184-.432-9.72-.12z"/>
</svg>
