<?xml version="1.0" encoding="utf-8"?>
<svg xmlns="http://www.w3.org/2000/svg" version="1.0" viewBox="0 0 468 506.16">
	<title>A line drawing of a large nude male baby with his arms and legs extended, his left hand holding his left foot.</title>
	<path d="M244.56 51.168c-2.76.24-5.592 1.2-9.168 3.096-.696.36-1.176.6-3.12 1.56-1.032.504-1.872 1.008-1.872 1.104 0 .096-.144.192-.336.192-.192 0-.84.384-1.44.84-.6.456-1.536 1.056-2.112 1.344-.576.288-1.08.6-1.152.696-.144.192-2.328 1.68-2.472 1.68-.048 0-.936.576-1.968 1.248a96.062 96.062 0 0 1-2.88 1.872c-2.808 1.656-5.376 3.36-6.792 4.56-2.328 1.944-4.896 4.344-5.448 5.088-.264.36-.96 1.272-1.56 2.04-.6.768-1.344 1.824-1.608 2.352-1.608 3.024-4.176 9.984-4.632 12.576-.432 2.352.096 7.32 1.32 12.864.672 2.976 1.008 8.52.6 9.624-.192.456-.336.504-1.968.384-1.68-.096-1.8-.072-2.952.696-1.872 1.272-2.28 2.064-2.28 4.392 0 1.08.168 2.544.36 3.264.192.72.36 2.16.36 3.168 0 1.368.168 2.352.624 3.648.576 1.704.6 1.824.192 2.424-.6.936-.288 4.008.504 4.968.552.648.552.744.24 1.608-.168.504-.48 1.272-.696 1.656-.216.408-.384 1.032-.384 1.392 0 .744-.48 2.52-.768 2.856-.096.12-.192.48-.192.84 0 .336-.168 1.2-.36 1.92-.192.72-.432 2.064-.504 3-.072.912-.312 2.376-.504 3.24-.456 1.968-.6 7.656-.288 10.272.36 2.832.264 3.072-1.416 3.432-.744.168-1.464.36-1.608.456-.12.096-.6.24-1.056.336-1.224.216-2.28.984-2.808 1.992-.24.504-.504.96-.576 1.032-.864.864-2.64 4.824-2.64 5.904 0 .744-.864.792-1.752.096-.336-.264-.96-.552-1.416-.648-.432-.072-1.056-.336-1.392-.552-1.248-.864-8.232-1.248-16.272-.912-3.24.144-4.128.336-8.808 1.92-.792.264-1.92.648-2.52.84-2.376.792-5.88 2.16-6.768 2.616-.336.192-.744.336-.888.336-.24 0-1.032.336-3.528 1.464-.528.264-1.056.456-1.176.456-.096 0-.528.24-.936.552-.624.48-3.648 2.088-3.912 2.088-.168 0-1.512-2.256-1.512-2.568 0-.168-.672-1.272-1.512-2.472-.816-1.2-1.656-2.424-1.848-2.736-1.584-2.376-1.944-2.88-2.352-3.168-.264-.168-.6-.648-.768-1.032-.168-.408-.48-.792-.696-.864-.408-.12-1.824-1.632-3.072-3.288-1.44-1.872-3.72-4.488-4.056-4.608-.192-.072-.336-.264-.336-.432 0-.168-.48-.696-1.08-1.152-.576-.456-1.128-1.008-1.2-1.224-.144-.384-2.4-2.568-4.392-4.224-.648-.576-1.8-1.248-2.52-1.512-.72-.288-1.44-.648-1.584-.816-.144-.168-.792-.456-1.416-.648-.624-.168-1.824-.672-2.688-1.104-1.224-.624-1.968-.84-3.432-.96-1.008-.072-1.944-.264-2.064-.408-.12-.144-.384-.864-.576-1.584-.24-.96-.888-2.088-2.4-4.176-1.152-1.584-2.088-3-2.088-3.168 0-.144-.168-.408-.36-.576-.768-.648-.216-3.264.936-4.488.384-.408.96-1.584 1.344-2.784.696-2.016.696-2.136.36-3.432-.528-1.992-1.632-3.744-3.432-5.328-1.872-1.656-3.216-2.208-5.424-2.208-1.392 0-1.584.072-2.28.768-1.392 1.416-1.752 2.568-1.896 5.808-.096 2.472-.168 2.976-.576 3.432-.768.84-.408 1.368.792 1.176 1.128-.192 1.632.048 2.736 1.272 1.584 1.752 4.656 2.664 5.568 1.656.648-.72.144-1.224-1.536-1.512-1.128-.192-1.656-.432-2.376-1.08-3.528-3.24-4.176-6.648-1.752-9.216.888-.96 1.2-.984 3.744-.192 2.28.672 4.416 3.456 4.752 6.168.192 1.368-.408 3.288-1.44 4.68-.312.432-.72 1.176-.864 1.656-.576 1.92-1.224 2.928-1.512 2.448-.072-.12-.432-.288-.792-.384-.36-.072-.936-.36-1.272-.6-.936-.672-4.344-1.104-6-.792-1.56.312-1.728.264-2.232-.72-1.032-2.016-1.68-2.976-2.616-3.936l-1.008-1.032.528-.936c.288-.504.528-1.2.528-1.512 0-.336.24-.816.552-1.104.288-.264.744-.912 1.008-1.416.24-.504.6-1.08.744-1.272.168-.192.36-1.392.456-2.64.144-2.208.144-2.304-.504-3.288-.36-.552-.96-1.128-1.32-1.296-1.968-.792-4.608 1.104-6.24 4.488-.528 1.08-1.104 2.088-1.296 2.256-.48.408-.456.576.264 1.68.744 1.128 1.92 1.92 3.456 2.304 1.848.456 1.56 1.488-.576 2.112-1.824.552-2.592 1.32-2.52 2.616.072 1.2-.12 1.608-.744 1.608-.528 0-.744-.288-.936-1.272-.12-.576-.36-.792-1.344-1.152-.672-.24-1.512-.456-1.872-.456-1.08 0-2.952.72-3.552 1.344-.288.312-.672.576-.84.576-.552 0-1.008-1.704-.84-3.144.216-1.8.576-2.232 1.752-2.04.816.144 1.008.072 1.584-.552.36-.384.96-.864 1.344-1.08.984-.504 2.16-3.984 1.968-5.88-.072-.744-.264-1.392-.456-1.488-.168-.12-.528-.624-.768-1.152-.432-.984-.552-1.056-1.968-1.344-1.752-.36-2.832 1.392-3.312 5.4-.24 1.92-.264 2.832-.072 3.36.288.84.024 1.632-.912 2.904-.432.6-.576 1.104-.576 2.064 0 1.68-.408 1.68-2.208 0-1.272-1.152-1.392-1.368-1.392-2.28 0-.528-.12-1.056-.24-1.128-.12-.072-.24-.288-.24-.48 0-.912-1.92-4.2-2.928-4.992-1.584-1.248-3.816-.744-5.568 1.296-1.512 1.776-1.608 5.112-.192 7.416.288.456.528.912.528 1.032 0 .096-.648.816-1.416 1.608-1.344 1.344-1.44 1.512-1.728 3.168-.552 3.144-.336 5.16.696 6.264.576.6.648.864.648 2.568 0 1.032.072 1.968.192 2.064.096.096.168.336.168.552 0 .6 2.064 2.952 2.976 3.432.456.24 1.032.72 1.272 1.056.816 1.176 2.616 2.856 3.552 3.312.528.24 1.152.552 1.368.648.576.288 2.28.264 2.472-.024.072-.144.336-.24.576-.24.312 0 .48.36.72 1.608.408 2.088 1.512 4.512 2.52 5.592a44.76 44.76 0 0 1 1.68 1.992c.888 1.104 4.2 4.032 5.88 5.184.456.288 1.44.816 2.16 1.128.744.312 1.752.792 2.232 1.056.48.264 1.32.48 1.872.48 1.872 0 1.824-.072 3.504 6 .48 1.776 1.032 3.456 1.2 3.744.192.264.504 1.032.696 1.68.192.648.624 1.56.96 2.016.336.432.6.912.6 1.032 0 .144.264.792.576 1.464.312.672.864 1.92 1.2 2.76.336.864.768 1.728.96 1.92.432.504 1.104 1.896 3.144 6.384 1.2 2.64 4.656 9.552 6.48 12.96 2.352 4.416 2.544 4.8 3.48 6.48.432.792 1.272 2.352 1.848 3.48 2.088 4.08 3.672 6.288 6.6 9.192 1.536 1.56 2.904 2.808 3 2.808.12 0 .744.48 1.416 1.08.648.576 1.392 1.128 1.656 1.224.264.072 1.032.336 1.68.576 3.096 1.104 3.84 1.248 5.976 1.224 1.536-.024 2.4.072 2.88.336.36.192.792.36.912.36.288 0 4.896 2.112 5.832 2.688.264.168.888.552 1.368.84.504.312 1.104.552 1.368.552s.528.096.624.216c.072.12.864.456 1.752.744s2.088.792 2.664 1.104c.576.312 1.224.576 1.44.576.216 0 .528.12.672.264.12.12.768.384 1.416.576.648.168 2.112.6 3.24.936 3.336.984 5.088 1.2 9.456 1.152 3.336-.024 4.56-.144 6.72-.624 4.464-.984 7.464-2.016 9.336-3.216.672-.432 1.32-.768 1.488-.768.144 0 .744-.36 1.32-.792.576-.456 1.416-1.008 1.872-1.248.456-.216 2.328-1.92 4.2-3.744 1.848-1.848 3.528-3.312 3.744-3.288.192.048.48.576.648 1.272.456 1.944 1.008 3.504 1.512 4.368.264.456.48 1.008.48 1.248 0 .552-1.968 3.576-2.616 4.032-.96.648-.48 2.088 1.44 4.272.648.744 1.176 1.488 1.176 1.656 0 .456-.48.96-1.704 1.776-1.536 1.032-1.704 1.296-1.512 2.328.12.648.36 1.008.84 1.296.984.552.864 1.056-.504 2.04-1.536 1.104-2.016 1.824-1.8 2.784.096.408.36.864.624 1.032.72.456.528 1.032-.648 2.016-.6.504-1.224 1.152-1.392 1.464-.288.552-2.64 3.552-4.44 5.64-.576.672-1.272 1.704-1.536 2.304-.264.6-.792 1.464-1.152 1.896-.384.432-.984 1.296-1.32 1.92-.336.624-1.032 1.776-1.536 2.568-1.32 1.992-2.928 5.16-3.696 7.32-.36.984-.888 2.208-1.152 2.736-.264.504-.576 1.512-.672 2.28-.168 1.224-.504 2.664-1.224 5.424-.144.528-.336 1.56-.456 2.28-.12.72-.384 2.28-.624 3.48-.216 1.176-.432 2.976-.456 3.96-.072 2.04-.216 3.24-.576 5.568-.192 1.152-.192 1.776 0 2.28.144.36.288 1.584.336 2.712.096 3.24.336 5.496.696 7.056.36 1.536.84 4.056 1.032 5.328.072.552-.024.864-.36 1.08-.24.192-.576.696-.72 1.152-.168.456-.456 1.008-.624 1.2-.192.216-.576 1.128-.864 2.064a48.45 48.45 0 0 1-1.224 3.552c-.384 1.032-.696 2.016-.696 2.16 0 .168-.144.576-.336.912-.84 1.608-2.064 6.624-2.232 9.12-.144 1.968.168 3.168 1.152 4.488 1.056 1.44 1.56 1.296 1.464-.432-.312-5.568-.024-8.544 1.008-10.56.168-.336.456-1.152.624-1.8.168-.672.384-1.32.48-1.44.096-.144.312-.648.456-1.128.168-.48.456-1.008.648-1.152.168-.168.336-.504.336-.744 0-.552 1.536-3.936 1.896-4.152.384-.24.744.864.744 2.232 0 .648.192 1.512.48 2.064.264.528.48 1.128.48 1.368 0 .216.096.456.216.528.12.072.288.432.384.792.264 1.08 2.328 5.208 2.712 5.448.912.528 3.192 3.048 3.12 3.432-.048.264-.624.6-1.632.936-1.656.552-5.472 2.472-6.456 3.24-.312.24-.696.456-.84.456-.168 0-.552.24-.864.528-1.056.984-2.904 2.16-6.72 4.32-.456.264-1.152.768-1.56 1.128-1.488 1.344-3.336 2.496-5.088 3.144-.48.168-.816.504-.888.864-.192.768-1.176 1.248-1.704.816-.192-.168-.36-.384-.36-.504 0-.6-3.288-4.296-3.84-4.296-.12 0-.504-.48-.864-1.08-.552-.96-.72-1.08-1.488-1.08-.504 0-1.416-.168-2.064-.36-.648-.192-2.04-.36-3.072-.36-1.776 0-2.088.072-4.104 1.056-1.8.864-2.64 1.488-4.608 3.336-2.352 2.232-2.4 2.304-2.376 3.336.048 1.752.912 3.12 3.96 6.24 2.688 2.76 3.696 4.2 4.2 5.952.096.312.36.864.624 1.2.432.6 1.248 3.744 1.056 4.056-.048.072-.024.6.096 1.176.384 2.16-.432 6.408-1.584 8.088-.768 1.128-.72 1.464.168 1.92.696.36.768.36 1.224-.048.288-.24.888-1.248 1.368-2.232l.864-1.8v-4.44c0-3.696-.072-4.584-.408-5.28-.216-.456-.576-1.272-.744-1.8-1.416-3.888-1.488-4.008-4.704-7.128-2.424-2.352-3.096-3.144-3.336-3.936-.336-1.152-.36-1.704-.096-1.824.096-.048.6-.672 1.104-1.392.528-.72 1.176-1.512 1.44-1.728.48-.384 2.28-1.32 4.344-2.256 1.944-.864 5.472-.288 6.696 1.08.264.264.6.504.792.504.168 0 .312.096.312.216 0 .144.84 1.104 1.896 2.16 1.488 1.536 1.92 2.112 2.04 2.856.072.504.36 1.128.648 1.392.792.696 1.584 2.064 2.112 3.624.936 2.664 1.224 3.432 1.464 3.864.12.216.576 1.32 1.008 2.448.408 1.128.864 2.16.984 2.328.096.144.408.912.648 1.68.24.768.72 2.136 1.08 3.072.336.912.912 2.496 1.248 3.48.336.984.744 2.064.912 2.4.168.336.6 1.68.96 3 2.304 8.352 2.688 9.264 3.624 8.904.336-.12.384-.36.24-1.464-.072-.72-.288-1.728-.48-2.232-.552-1.488-1.344-4.248-1.344-4.656 0-.216-.096-.456-.216-.528-.216-.144-.648-1.464-1.248-3.816-.168-.648-.48-1.56-.744-2.04-.24-.48-.432-1.056-.432-1.296s-.216-.888-.456-1.464c-.624-1.344-1.392-3.528-1.992-5.568-.264-.912-.696-2.04-.936-2.52-.264-.456-.456-.984-.456-1.176 0-.504-1.176-3.624-1.656-4.464-.24-.384-.504-1.056-.576-1.488-.096-.432-.432-1.2-.768-1.752-.336-.528-.6-1.056-.6-1.152 0-.12.456-.528 1.032-.912.552-.384 1.128-.816 1.248-.984.144-.168.72-.504 1.32-.792.6-.264 1.68-.96 2.4-1.56.72-.576 1.536-1.128 1.8-1.224.264-.096 1.32-.768 2.376-1.512 3.12-2.232 5.208-3.624 5.4-3.624.096 0 .384-.216.624-.48s.648-.528.936-.624c.264-.096 1.104-.504 1.824-.936.72-.456 1.704-.888 2.16-.96.456-.096.96-.264 1.08-.36.576-.48 3.624-1.44 4.536-1.44.696-.024 1.248-.216 1.944-.72 1.704-1.248 4.344-2.232 5.448-2.064.384.048 1.032 0 1.464-.12 1.56-.48 2.952-.72 4.248-.792 2.352-.096 8.448-.624 11.4-.96 1.584-.192 3.312-.36 3.84-.384.528 0 1.944-.12 3.12-.264 1.2-.12 3-.312 4.032-.384 1.032-.072 1.92-.216 1.992-.336.048-.096.408-.072.792.048.432.144 1.512.168 2.928.024 1.248-.096 3.504-.12 5.016-.024 1.512.12 2.928.192 3.12.216h.912c.288 0 .768.144 1.08.336.288.192.912.408 1.368.504.456.096 1.128.312 1.464.504.336.168 1.536.336 2.64.36 2.112.048 3.216.336 5.616 1.44.792.36 1.992.768 2.64.888 1.872.384 4.056 1.2 6.648 2.472.24.12.696.216 1.032.216.36 0 .744.216.984.576.216.36.864.768 1.56.984.648.216 1.176.48 1.176.552 0 .096.6.648 1.344 1.248 3.528 2.832 4.296 3.6 4.416 4.368.072.408.264.792.432.864.264.072.288 0 .048-.432l-.288-.552.744.528c.408.288.744.744.744.96 0 .24.168.576.36.744.192.168.864 1.032 1.464 1.944 1.032 1.56 1.056 1.656.72 2.304-.6 1.176-.696 2.736-.264 4.176.888 2.856 1.368 3.744 3.048 5.592.24.264.432.552.432.648 0 .096.216.264.48.336.264.096.984.576 1.584 1.104.744.624 1.344.936 1.848.96 2.64.12 3.312.168 3.456.312.408.408 4.512-.24 5.232-.816.144-.12.888-.432 1.68-.744.792-.288 1.608-.672 1.824-.84.192-.192.648-.336 1.008-.336.336 0 .768-.168.936-.384.456-.552 1.56-1.752 3.36-3.624 1.08-1.152 1.536-1.776 1.392-1.992-.192-.288.168-1.416.504-1.68.096-.072.384-.768.648-1.56 1.08-3.168.864-8.352-.432-10.92-.912-1.8-2.64-3.528-4.656-4.656-1.368-.768-1.968-.936-4.416-1.248-1.536-.216-2.856-.48-2.88-.6-.048-.12-.432-.744-.864-1.368-.792-1.152-2.208-2.112-3.576-2.448a9.923 9.923 0 0 1-1.128-.336c-.552-.216-2.448 1.128-3.264 2.304-.384.552-1.32 1.608-2.112 2.352-1.176 1.128-1.44 1.536-1.632 2.544-.312 1.464-.336 2.808-.072 4.056.288 1.464 1.728 4.224 2.64 5.064.456.408.888 1.056.96 1.44.36 1.584.552 1.896 1.632 2.64 1.632 1.128 3.408 1.272 5.376.48 2.856-1.176 3.648-1.8 4.536-3.552 1.176-2.328 1.368-3.456.912-5.16-.192-.768-.576-2.184-.816-3.12-.264-.96-.576-1.944-.72-2.208-.504-.984.672-.912 2.88.168 1.704.816 5.136 4.32 5.616 5.688.792 2.328.912 3.408.624 5.544-.312 2.112-1.056 4.368-1.848 5.544-.24.384-.6.984-.792 1.392-.504 1.008-2.352 2.76-3.36 3.192-.456.192-1.272.648-1.848 1.032-.552.384-1.152.696-1.344.696-.216 0-.888.216-1.512.48-1.536.672-4.512 1.056-5.208.672a7.004 7.004 0 0 0-1.368-.456c-3.072-.696-3.696-1.008-4.92-2.4-.96-1.08-1.368-1.8-1.896-3.456-.36-1.128-.624-2.136-.552-2.208.312-.288.6.216.744 1.296.216 1.488 1.152 2.712 1.752 2.328.768-.48.672-1.992-.264-4.224a374.6 374.6 0 0 1-1.344-3.312c-.312-.744-1.152-2.016-1.944-2.904-.792-.888-1.416-1.68-1.416-1.776 0-.168-1.44-2.328-1.68-2.52a7.518 7.518 0 0 1-.504-.624c-.408-.624-3-2.808-3.816-3.216-.336-.168-1.176-.696-1.896-1.176l-1.272-.864 1.08-.96c1.08-.984 3.6-2.328 6.936-3.72 1.032-.432 1.992-.912 2.136-1.104.12-.168.552-.384.936-.456.384-.072.936-.408 1.272-.744.312-.312 1.104-.816 1.752-1.08a29.115 29.115 0 0 0 2.376-1.272 40.311 40.311 0 0 1 1.848-1.104c1.68-.936 3.264-1.944 3.912-2.52.408-.336.816-.6.936-.6.096 0 .576-.312 1.032-.72.432-.408.96-.72 1.152-.72a.37.37 0 0 0 .36-.36c0-.192.096-.36.216-.36.24 0 .744 2.592.744 3.864 0 2.16 1.344 5.088 2.256 4.968.672-.096.744-.816.24-2.784-.216-.888-.432-2.304-.48-3.168a21.32 21.32 0 0 0-.288-2.736c-.36-1.824-.144-2.832.744-3.288.912-.456 1.584-1.32 1.824-2.4.144-.6.168-8.568.048-10.128-.024-.096-.24-.168-.504-.168-.36 0-.48-.168-.48-.6 0-.336.216-1.032.48-1.56s.48-1.2.48-1.536c0-.336.12-.888.264-1.272.144-.36.36-1.008.456-1.392.624-2.304 1.248-4.152 1.872-5.472 1.968-4.128 3.216-6.6 3.696-7.392.528-.84.816-1.272 2.064-3.168.336-.48.72-.888.888-.888.168 0 .36-.168.432-.36.096-.192.48-.432.912-.528.576-.168.816-.408 1.08-1.152.168-.528.432-.984.552-1.032.576-.192 2.496-1.608 4.128-3.048.984-.888 2.112-1.752 2.496-1.968.408-.216 1.08-.696 1.512-1.056.432-.384.888-.696.984-.696.12 0 .744-.432 1.368-.96.648-.528 1.512-1.032 1.944-1.104.432-.072 1.152-.504 1.608-.936.912-.864 6.528-3.696 8.304-4.176a11.54 11.54 0 0 0 1.68-.624c.336-.168.72-.336.84-.336.96-.096 2.04-.384 2.76-.744.456-.24 1.32-.504 1.872-.552.576-.072 1.296-.336 1.56-.6.528-.456.84-.528 5.064-1.008 2.16-.24 2.16-.24 2.808.384.648.624.696.624 1.296.24.528-.336.816-.36 1.944-.168 1.728.336 1.848.432 1.296.984-.264.264-.48.624-.48.816 0 .168-.168.456-.36.624-.192.168-.36.48-.36.696 0 .216-.168.696-.36 1.08-.192.36-.36.792-.36.96 0 .144-.24.648-.528 1.104-.504.792-.552 1.08-.528 4.32.048 3.696.384 7.128.816 7.92.144.264.456.48.696.48.888 0 1.032-.552.96-3.888-.144-5.856.648-9.72 2.328-11.568.456-.504.816-.96.816-1.056 0-.096.36-.456.816-.816.552-.432.864-.936.984-1.56.096-.576.6-1.392 1.392-2.328.696-.792 1.464-1.728 1.728-2.04 1.392-1.728 3.336-3.6 4.248-4.032 2.976-1.44 3.744-1.752 4.416-1.896.936-.168 1.08.048 1.152 1.608.072 1.392.312 1.728 1.248 1.608l.696-.072v-1.848c0-1.008.12-1.968.264-2.088.576-.6 6.744-.36 9.24.36.456.12.552 1.248.168 1.728-.312.36-.528 1.296-1.2 5.208-.504 2.928-.624 7.752-.192 8.856.36.984 2.184 2.784 2.784 2.784.48 0 .576-.12.576-.696 0-.408-.096-.768-.216-.84-.744-.48-1.632-5.568-1.224-6.984.12-.408.384-1.92.576-3.36.24-1.944.528-3.096 1.104-4.32 1.296-2.832 1.44-3.192 1.44-3.504 0-.36 1.2-2.016 2.496-3.408.504-.552 1.2-1.392 1.56-1.848.96-1.272 1.68-1.848 4.32-3.48.432-.264 1.608-1.008 2.616-1.632 1.032-.624 2.112-1.2 2.448-1.296.336-.072.864-.336 1.2-.552 1.032-.696 2.208-1.2 2.808-1.2.336 0 .864-.216 1.2-.48.336-.264.792-.48 1.008-.48.456 0 2.112-.576 2.328-.792.096-.096.384-.168.648-.168.24 0 .72-.216 1.056-.48.336-.264.888-.48 1.248-.48.696 0 3-1.008 3.24-1.416.096-.144.384-.264.624-.264.552 0 1.92-.6 5.328-2.304 1.392-.72 2.664-1.296 2.808-1.296.144 0 1.152-.432 2.256-.936 2.328-1.104 5.16-2.184 5.76-2.184.24 0 1.104-.216 1.92-.48.816-.264 2.04-.624 2.712-.84 1.56-.432 5.04-.432 5.784.024.288.192.816.336 1.152.336.336 0 .6.096.6.24 0 .408 1.392.96 2.4.96.768 0 1.368.24 2.664 1.104 1.392.912 1.776 1.296 2.232 2.328.312.696.648 1.728.72 2.328.216 1.848 1.728 4.56 2.544 4.56.792 0 .792-.96.024-2.928-.408-1.008-.744-2.016-.744-2.232 0-.216-.288-1.2-.624-2.184-.432-1.224-.816-1.872-1.272-2.16a13.842 13.842 0 0 1-1.224-.936c-.336-.312-1.464-.984-2.52-1.536-2.208-1.152-3.24-2.136-3.24-3.096 0-.36-.12-1.032-.264-1.488-.312-1.056-.312-7.848.024-10.44.312-2.52 1.392-6.864 1.8-7.32.192-.216.624-1.128.96-2.04 1.416-3.792 2.736-5.112 4.776-4.824.6.096 1.272.072 1.536-.072.768-.408 1.656-2.64 1.8-4.56.072-.96.192-1.824.264-1.872.072-.072.6.096 1.176.384 1.776.864 5.136.576 5.712-.504.408-.744-.024-1.008-1.152-.672-1.032.312-2.664.216-4.392-.216-1.584-.432-2.16-.864-2.16-1.704 0-.384-.12-.984-.24-1.344-.408-1.056-.024-1.272 2.112-1.128 1.584.096 2.112.024 3.648-.504.984-.336 2.064-.888 2.4-1.224 1.344-1.296 3.312-.408 4.56 2.04.48.936.576 1.44.576 3.72.024 1.512-.12 3.264-.336 4.08-.408 1.776-.384 4.08.072 4.776.528.816.84 2.712 1.248 7.944.408 5.328.744 7.56 1.272 8.64.648 1.296.48 8.88-.216 9.6-.12.12-.216.504-.216.84 0 1.2-1.08 2.976-2.448 4.008-1.032.792-1.392 1.272-1.968 2.616-.768 1.848-2.832 5.616-4.344 8.016-.528.864-1.176 1.968-1.416 2.472-.216.504-.792 1.272-1.248 1.728-.456.456-.816.936-.816 1.08 0 .144-.288.768-.648 1.392a54.53 54.53 0 0 0-1.2 2.088c-.288.528-.624.936-.768.912-.48-.12-1.896 1.632-2.808 3.456-.504.984-1.176 1.968-1.464 2.16-.288.192-.648.72-.792 1.152-.144.456-.36.84-.456.888-.12.048-.552.768-.984 1.632-.432.864-1.128 1.944-1.536 2.448-.408.48-1.176 1.536-1.68 2.352-.624.96-1.296 1.68-1.992 2.064-.552.336-1.032.768-1.032.96 0 .168-.312.48-.72.696-.384.192-1.152.936-1.704 1.608-.552.696-1.296 1.416-1.656 1.584-.384.192-1.416 1.104-2.328 2.04-.888.936-1.824 1.704-2.064 1.728-.24.024-.936.6-1.536 1.296-.648.744-1.632 1.536-2.448 1.92a34.92 34.92 0 0 0-3.024 1.824c-4.944 3.36-4.728 3.264-8.28 4.416-1.128.384-2.52.816-3.12.984-.6.192-1.248.48-1.464.648-.192.168-.648.312-1.008.312-.336 0-.72.144-.816.312-.096.168-.48.432-.864.6-.36.144-.768.552-.888.864-.12.336-.432.816-.696 1.08-.24.24-.528.672-.624.936-.192.672-4.392 4.824-5.592 5.568-2.016 1.224-1.968 3.12.048 3.12.528 0 .624.12.624.672 0 .36-.144.864-.312 1.128-.192.264-.456 1.008-.624 1.68-.504 1.944-1.008 3.528-1.488 4.584-.264.552-.456 1.176-.456 1.392 0 .24-.12.648-.264.912-.144.264-.288 1.2-.336 2.088-.024 1.128-.24 1.992-.696 2.928-.336.744-.624 1.44-.624 1.56 0 .504-1.176 3.048-1.656 3.6-.264.312-.504.672-.504.816 0 .12-.192.696-.456 1.248-.648 1.512-1.032 2.64-1.104 3.24-.024.312-.192.744-.384.96-.216.24-.624.96-.96 1.584-.312.648-.912 1.56-1.32 2.04-.408.48-.792 1.104-.888 1.368-.528 1.896-1.224 3.216-2.088 4.032-.552.528-.96 1.128-.96 1.44 0 .336-.312.744-.84 1.104-.576.384-.912.864-1.08 1.488-.144.528-.408.936-.6.936-.168 0-.384.216-.48.456-.072.264-.288.528-.48.6-.192.072-.552.552-.816 1.056-.456.912-2.88 3.696-4.104 4.704a84.359 84.359 0 0 0-2.28 2.256c-.936.936-1.776 1.728-1.896 1.728-.096 0-.816.528-1.584 1.2-.768.672-1.512 1.2-1.656 1.2-.144 0-.48.312-.792.72-.288.408-.744.72-1.032.72-.336 0-.624.24-.792.6-.144.336-.432.6-.6.6-.168 0-1.056.48-1.944 1.08-.912.6-1.728 1.08-1.824 1.08-.12 0-.528.312-.936.696-.408.384-1.248.888-1.824 1.128-.576.216-1.224.648-1.44.984-.216.312-.504.552-.672.504-.168-.024-.936.36-1.704.864-.792.504-1.8.96-2.28 1.032-1.632.216-1.944.312-2.664 1.032-.408.408-.936.72-1.152.72-.24 0-.984.384-1.704.84-.696.456-1.368.84-1.512.84-.12 0-1.368.336-2.76.744-1.56.456-2.76.672-3.168.576-.36-.072-.984-.024-1.368.144a7.566 7.566 0 0 1-1.536.36c-.96.096-6.432.552-8.4.696-1.416.12-8.088-.48-9.696-.84a13.4 13.4 0 0 0-2.352-.24c-1.56 0-3.192-.744-4.68-2.112-1.272-1.176-2.184-1.584-2.856-1.272-.816.36-.72 1.224.216 2.136.432.432.912.768 1.032.768.144 0 .456.192.672.456.216.24 1.128.768 2.016 1.176 1.632.744 1.92.792 9.648 1.416 1.68.144 2.16.36 2.16 1.032 0 .528-1.176 2.64-1.464 2.64-.12 0-.888.576-1.704 1.272-.84.696-1.968 1.632-2.544 2.064-.576.456-1.296 1.2-1.584 1.68-.36.552-.888.984-1.488 1.2-.504.168-1.152.504-1.416.72-.264.24-1.824.936-3.48 1.56-2.76 1.056-3.192 1.176-5.52 1.248-1.392.048-3.072.144-3.72.216-.792.072-1.44 0-1.872-.24-.552-.288-.912-.312-1.776-.12s-1.176.192-1.488-.072c-.216-.192-1.008-.576-1.752-.888-1.872-.768-2.208-.576-3.792 2.184-1.032 1.848-2.496 3.936-3.888 5.616-.12.12-.648.912-1.176 1.728-.528.84-1.032 1.512-1.152 1.512-.12 0-.768.6-1.488 1.32-.696.72-1.464 1.32-1.68 1.32-.192 0-.648.408-.96.888-.432.672-1.176 1.2-2.88 2.112-1.296.648-2.544 1.392-2.784 1.632-.264.216-.696.408-.984.408-.648 0-2.808.576-3.936 1.056-.48.216-1.8.528-2.952.744-1.128.192-2.232.456-2.472.552-.216.12-1.32.288-2.448.384-1.56.096-2.352.048-3.408-.264-1.344-.408-1.344-.408-1.032-1.008.192-.36.72-.984 1.176-1.44.48-.456.864-.96.864-1.152 0-.192.312-.744.72-1.224.792-1.008 3.12-5.376 3.12-5.856 0-.264.96-2.736 1.896-4.872.12-.264.384-.864.6-1.344.408-.96 1.584-5.688 1.584-6.432 0-1.08-1.56-.744-1.824.408-.096.36-.336.888-.528 1.2-.192.312-.432.96-.528 1.44-.216.984-1.464 4.512-2.04 5.64-.192.384-.36.84-.36 1.008 0 .144-.12.384-.264.528-.144.144-.648 1.104-1.128 2.136-.504 1.056-1.152 2.328-1.488 2.856-.864 1.416-3.312 4.488-3.984 4.992-.312.24-.576.576-.576.744 0 .168-.384.648-.84 1.104-.456.456-.84 1.056-.84 1.344 0 .336-.624 1.128-1.728 2.208-2.448 2.376-7.392 6.288-7.92 6.288-.192 0-6.048 2.76-7.632 3.576-.912.48-7.008 2.904-8.448 3.384-.504.144-.912.384-.912.504s-.36.216-.816.216c-.84 0-1.848.264-5.52 1.488l-2.136.72h-5.904c-3.24-.024-6.6-.072-7.464-.144-1.584-.144-2.088-.168-3.288-.12-.816.048-5.496-.384-8.064-.744-1.032-.144-2.184-.456-2.592-.696-.528-.312-1.008-.408-1.776-.312-.816.072-1.176 0-1.704-.408-.36-.264-.84-.504-1.056-.504-.24 0-.552-.168-.744-.384-.408-.48-1.512-1.056-2.088-1.056-.672 0-2.856-1.128-3-1.536-.096-.216-.432-.384-.744-.384-.36 0-.72-.192-.864-.48-.144-.264-.432-.48-.672-.504-.216 0-.888-.336-1.488-.696a62.08 62.08 0 0 0-1.92-1.176c-.456-.24-1.152-.744-1.56-1.104-.384-.36-1.08-.84-1.56-1.056-.456-.216-1.296-.84-1.848-1.392-.528-.576-1.08-1.032-1.224-1.032-.384 0-.552-.744-.264-1.104.144-.192.744-.576 1.32-.864.576-.288 1.056-.6 1.056-.696 0-.096.408-.408.912-.72.48-.288 1.32-.888 1.848-1.296a13.888 13.888 0 0 1 1.968-1.296c1.368-.672 1.68-1.296 1.032-1.944-.576-.576-1.128-.504-3.36.552-1.032.48-2.112 1.272-3.24 2.376-1.272 1.272-2.04 1.8-3.144 2.232-.792.288-2.088.84-2.88 1.2-.768.36-1.8.816-2.256 1.032-.456.192-1.32.456-1.896.576-.6.096-1.248.336-1.44.504-.216.192-1.128.456-2.064.6-.912.144-2.496.384-3.48.552-.984.144-1.992.36-2.208.48-.96.504-10.056-.936-10.848-1.728-.144-.12-.48-.216-.792-.216-.312 0-.744-.096-.984-.216-.624-.312-2.064-.744-2.52-.744-.216 0-1.2-.312-2.208-.72-1.008-.384-2.184-.72-2.616-.72-.84 0-2.856-.744-3.096-1.152-.096-.12.288-.456.792-.744 1.032-.576 1.104-.744.72-1.488-.384-.672-1.536-.576-3 .24-.696.384-1.632.792-2.112.864-.48.096-2.016.768-3.456 1.488-1.416.72-3.12 1.416-3.792 1.56-.648.144-1.824.504-2.592.84-.792.312-2.448.792-3.72 1.08-1.992.408-2.784.456-5.568.312-5.352-.264-6.048-.336-7.8-.816-.912-.264-2.184-.6-2.808-.768-.624-.144-1.872-.648-2.76-1.08-.888-.456-1.752-.816-1.92-.816-.168 0-.84-.36-1.488-.792-.624-.432-1.512-.96-1.968-1.128-.456-.192-.96-.48-1.128-.648-.168-.168-.456-.312-.6-.312-.168 0-.528-.264-.816-.576-.312-.312-1.296-1.008-2.208-1.584-.936-.552-1.8-1.152-1.968-1.344-.144-.192-.408-.336-.6-.336-.168 0-.456-.192-.624-.432-.168-.216-.816-.792-1.464-1.248a42.662 42.662 0 0 1-1.656-1.272c-.264-.216-.624-.408-.768-.408-.408 0-4.224-3.792-4.224-4.2 0-.192-.096-.36-.24-.36-.12 0-.456-.432-.72-.936-.648-1.296-1.776-2.952-2.376-3.48-.288-.264-.504-.624-.504-.816 0-.192-.24-.696-.552-1.104-.312-.408-.864-1.392-1.224-2.184-.36-.792-.96-1.848-1.368-2.328-.384-.504-1.008-1.848-1.392-3-.696-2.112-1.416-3.6-2.208-4.512-.216-.264-.576-.96-.768-1.56-.192-.6-.744-1.92-1.2-2.928-.768-1.68-1.584-3-5.136-8.376-.552-.864-1.032-1.656-1.032-1.752 0-.096-.384-.672-.84-1.272-.456-.6-.84-1.248-.84-1.416 0-.168-.144-.408-.336-.504-.168-.096-.456-.456-.624-.792-.168-.336-.744-1.104-1.248-1.704-.504-.6-.912-1.224-.912-1.392 0-.168-.696-1.392-1.536-2.736-1.584-2.52-2.208-3.984-2.424-5.76a14.667 14.667 0 0 0-.408-1.896c-.24-.792-.192-1.032.408-2.208.384-.744.864-1.512 1.128-1.728.24-.24.432-.624.432-.864s.168-.768.36-1.128c.192-.384.456-1.224.6-1.848.144-.648.528-1.728.84-2.4.552-1.152 1.104-2.592 1.536-3.936.12-.336.528-1.272.96-2.088.408-.816.744-1.704.744-1.944 0-.264.144-.6.336-.744.192-.168.408-.552.48-.864.096-.336.48-1.32.888-2.208.408-.912 1.008-2.232 1.344-2.952.336-.72.72-1.536.864-1.8.768-1.44 2.256-4.176 2.568-4.752 1.248-2.304 3-4.368 5.88-6.96 1.704-1.56 3.768-3.264 4.56-3.792 1.896-1.248 5.208-2.856 5.88-2.856.288 0 .84-.336 1.248-.744.816-.816 1.776-1.272 2.28-1.08.528.216.36.6-.864 1.896-.96 1.032-3.864 5.4-3.864 5.832 0 .072-.336.792-.768 1.608-.72 1.392-.768 1.632-.768 4.008 0 2.136.096 2.688.552 3.552.408.816.648 1.032 1.056.96.432-.048.504-.216.456-.792-.36-3.864-.336-4.488.192-6.072.6-1.752 2.544-5.304 4.2-7.632 2.088-2.928 4.44-4.896 5.832-4.896.288 0 .84-.216 1.2-.456 1.104-.792 2.52-.816 5.544-.144 3.96.888 5.784 1.824 6.096 3.048.096.312.456.744.84.96.72.432.912.792 1.608 3.168.456 1.536.36 2.448-.384 4.128-.24.576-.672 1.536-.936 2.112-.528 1.224-1.392 2.304-1.824 2.304-.168 0-.36.192-.432.432-.36 1.128-2.736 2.208-4.8 2.208-1.104 0-1.248-.36-.912-2.208.312-1.632.168-2.16-.504-2.064-.696.096-1.392 1.152-1.536 2.328-.144.96-.192 1.032-.792.912-1.392-.288-1.608.96-.336 2.112l.84.792-.264 2.232c-.72 5.712-1.68 10.104-2.568 11.712-.552.984-.816 1.224-1.392 1.272-.864.096-1.008.6-.6 1.896.216.648.24 1.008.072 1.224-.504.6-3.432 5.52-3.432 5.736 0 .12-.096.216-.192.216-.12 0-.72.672-1.392 1.464a65.853 65.853 0 0 1-1.536 1.872c-.192.216-.792.936-1.32 1.584-.528.672-1.416 1.68-1.968 2.28-.576.576-1.032 1.128-1.032 1.224 0 .648-5.304 3.576-6.456 3.576-.264 0-.528.096-.6.216-.072.12-.648.288-1.248.384-1.8.264-2.88 1.872-1.752 2.592.528.336 3.648-.672 6.816-2.208 1.32-.624 2.688-1.272 3.048-1.416.36-.144.84-.576 1.08-.936.24-.36.912-1.152 1.488-1.752 1.32-1.368 4.128-4.656 5.52-6.504.576-.768 1.176-1.32 1.296-1.248.648.408-.72 5.424-2.472 9.072-1.896 3.936-7.104 10.032-9.408 11.064-1.512.648-1.68 1.008-.936 1.752 1.392 1.392 5.184-1.584 9.984-7.848 1.896-2.472 3.984-6.744 4.464-9.048.72-3.6.936-4.944 1.056-7.104.096-1.776.288-2.76.696-3.672.6-1.32.96-1.752 1.224-1.368.072.12.696.528 1.392.864.672.336 1.512.768 1.848.936.336.168 1.464.72 2.52 1.224s2.184 1.08 2.52 1.248l2.88 1.44c1.248.624 2.616 1.368 3.024 1.68.408.312.864.552 1.008.552.24 0 .576.144 2.688 1.224.6.288 1.248.624 1.44.696.192.096.84.384 1.44.648.6.288 1.464.624 1.92.792.456.168 1.44.672 2.184 1.128.744.432 1.728.96 2.16 1.176.456.216 1.2.576 1.656.84.456.24 1.08.456 1.344.456.288 0 .792.216 1.104.48.336.264 1.68 1.032 2.976 1.704 1.296.672 2.52 1.32 2.712 1.44.216.12.648.312.984.456.72.288 1.344.672 2.232 1.392.384.288.792.528.936.528.144 0 .864.36 1.608.816.744.432 2.112 1.08 3.024 1.44 2.472.936 3.6 1.584 5.016 2.832 1.584 1.416 2.4 3.024 3.312 6.672.768 3.072.84 5.232.456 11.88-.12 1.992-.168 3.912-.096 4.32.24 1.2.768 1.8 1.584 1.8h.72l-.192-1.392c-.24-1.728-.12-9.888.168-11.568.048-.192-.048-1.008-.216-1.8-.168-.792-.456-2.472-.672-3.72-.456-2.496-.816-3.432-2.28-5.736-1.704-2.664-2.376-3.408-3-3.24-.384.096-.84-.096-1.632-.696-.624-.456-1.512-.984-2.016-1.152-.504-.144-1.224-.528-1.584-.84-.384-.312-.912-.576-1.2-.576-.288 0-1.272-.432-2.16-.936-.888-.528-2.712-1.512-4.08-2.208-1.344-.672-2.712-1.44-3.048-1.656-.336-.24-1.248-.72-2.04-1.08-2.904-1.32-7.968-3.816-9.24-4.584-.72-.432-1.92-.936-2.64-1.152-.72-.216-1.8-.72-2.4-1.104-.6-.384-1.176-.72-1.32-.72-.288 0-3.36-1.56-8.64-4.416-.384-.216-.888-.384-1.104-.384-.216 0-.528-.168-.696-.36-.168-.192-.528-.36-.816-.36-.576 0-2.928-1.056-4.392-1.992-.864-.552-.936-.672-.84-1.416.048-.432.216-.912.336-1.08.696-.864 2.112-7.512 2.568-12.12.12-1.152.288-2.208.384-2.352.072-.12.72-.24 1.392-.24 1.944 0 6.336-1.872 6.384-2.736.024-.192.792-1.128 2.424-2.976.312-.36.648-.504.888-.432.984.384 3.096.408 3.912.072 1.32-.576 2.736-1.92 3.432-3.288 1.536-2.952.312-6.672-2.424-7.44-.96-.264-3.816-.072-4.032.264-.432.72-2.016-.24-2.016-1.2 0-.192-.384-.696-.888-1.128l-.864-.744.384-1.008c.96-2.352-.048-5.424-2.328-7.248-1.296-1.032-1.992-1.296-2.976-1.104-.456.096-1.176-.12-2.376-.696-2.28-1.08-3.552-1.248-4.704-.624-.48.24-1.08.696-1.32 1.008-.336.408-.72.552-1.632.6-1.392.072-1.992.36-3.36 1.632-.864.792-1.08.888-1.488.672-.672-.36-1.584-.336-2.544.072-1.08.456-1.968 2.016-2.184 3.816-.144 1.224-.096 1.512.456 2.424l.624 1.056-.84.744c-.456.384-1.296.84-1.848 1.008-.576.144-1.296.456-1.632.672-.336.24-1.2.696-1.92 1.032-.72.336-1.752 1.008-2.256 1.488-.528.48-1.032.864-1.104.864-.312 0-5.76 5.496-5.76 5.808 0 .192-.384.72-.864 1.176-.456.432-1.008 1.128-1.176 1.536-.192.384-.48.984-.672 1.32-.192.336-.528 1.032-.792 1.56-.24.528-.792 1.536-1.224 2.232-.432.696-.792 1.344-.792 1.464 0 .12-.168.336-.36.504-.192.168-.36.48-.36.696 0 .216-.312.84-.696 1.368-.384.528-.792 1.248-.864 1.608-.096.36-.264.72-.384.792-.12.072-.216.288-.216.504 0 .192-.144.696-.336 1.104-.192.432-.576 1.464-.864 2.328-.288.864-.72 1.968-.984 2.472-.24.528-.456 1.104-.456 1.32 0 .192-.144.552-.336.744-.168.216-.456.912-.6 1.584-.168.648-.552 1.68-.864 2.28-1.656 3.168-3.24 6.744-3.48 7.8-.408 1.8-.12 4.704.6 6.12.336.648.6 1.32.624 1.488 0 .168.336.792.72 1.392.384.6 1.008 1.728 1.392 2.544.384.792.888 1.608 1.128 1.8.216.168.672.768 1.008 1.296.336.528.744 1.056.912 1.152.192.096.336.312.336.456 0 .144.384.768.84 1.392.456.624.84 1.248.84 1.368 0 .144.696 1.104 1.56 2.16.84 1.08 2.112 3 2.784 4.296.696 1.32 1.536 2.76 1.896 3.216.744.96 1.128 1.656 2.112 3.84 1.536 3.456 1.944 4.272 2.184 4.44.144.072.264.312.264.504 0 .216.264.72.576 1.128.336.432.912 1.632 1.296 2.688.648 1.728 1.44 3.624 1.992 4.728.12.24.216.576.216.744 0 .168.264.576.6.888.336.312.6.696.6.84 0 .36 2.352 3.528 3.528 4.8a44.058 44.058 0 0 1 1.728 1.968c.432.576.936 1.032 1.08 1.032.144 0 .912.648 1.704 1.464 1.224 1.224 5.376 4.608 6.624 5.376 1.128.696 1.848 1.248 2.424 1.848.384.384.792.624.936.552.12-.096.744.216 1.344.696.624.48 1.272.864 1.488.864.216 0 .744.216 1.152.48.432.264 1.056.528 1.392.576.336.072.768.288.984.48.192.216.576.384.792.384.24 0 .576.168.744.336.144.192.672.48 1.152.648.48.144 1.008.36 1.152.48.6.48 3.384 1.2 4.128 1.08.432-.072 1.248.024 1.8.216.936.312 5.232.84 7.128.888.768 0 2.04-.168 5.52-.744.72-.12 1.872-.288 2.52-.384 1.032-.144 2.88-.792 4.56-1.584.624-.312 3.024-.672 3.408-.528.168.072.6-.192.96-.6.72-.768 2.64-1.704 3.144-1.536a.48.48 0 0 1 .288.408c0 .336 1.2.84 1.968.84.264 0 .912.192 1.464.456.552.24 1.488.528 2.088.624.6.096 1.344.336 1.68.504 1.104.624 11.856 3.288 13.032 3.24.216-.024.648-.024.96 0 4.536.12 8.664-.264 10.464-.96.6-.24 1.656-.528 2.304-.624.672-.096 1.32-.24 1.44-.36.144-.096.912-.48 1.728-.84l1.488-.648 1.104.528c.6.288 1.392.816 1.752 1.176.36.36 1.032.816 1.512 1.032a9.34 9.34 0 0 1 1.512 1.032c.36.336.744.6.864.6.456 0 1.44.576 1.44.84 0 .144.288.408.624.576 1.032.456 5.136 3.192 5.136 3.408 0 .312 2.184 1.368 3.504 1.68.648.144 1.344.408 1.536.576.456.36 1.56.768 2.64.984.456.072.96.24 1.08.36.144.096.672.24 1.2.312.528.072 1.392.288 1.896.48.528.168 1.344.264 1.824.216a2.994 2.994 0 0 1 1.656.264c.768.408 2.52.624 5.664.696.936.024 1.8.12 1.92.216.144.072 1.056.12 2.016.096.96-.048 2.16.024 2.64.144 1.056.288 2.712.264 3.552-.072.336-.12.744-.144.888-.024.144.12.648.168 1.104.144.456-.024 1.752-.12 2.88-.192 2.232-.12 3.6-.336 3.96-.624.144-.12.792-.24 1.44-.312.672-.072 1.536-.24 1.92-.384.408-.12 1.2-.36 1.8-.528.6-.168 1.2-.384 1.32-.48.312-.24 1.992-.672 3.6-.936.672-.096 1.68-.408 2.28-.696.6-.264 1.296-.504 1.56-.504.288 0 1.2-.384 2.04-.84.864-.456 1.752-.84 1.992-.84.216 0 .6-.096.84-.192.216-.12.888-.432 1.488-.72 3.96-1.824 4.848-2.28 6.24-3.144.864-.528 1.824-1.104 2.16-1.272.336-.168.648-.36.72-.432.072-.072.552-.456 1.08-.84 1.728-1.296 4.32-3.528 4.8-4.176 1.224-1.632 1.608-1.944 2.256-1.776.336.072.84.288 1.104.456.528.312 1.728.336 2.232 0 .168-.096.432-.072.6.048.504.384 2.496.504 2.856.144.168-.168.912-.336 1.632-.36.72-.024 1.488-.144 1.704-.24.24-.12 1.44-.312 2.712-.408 1.56-.144 2.448-.36 2.736-.624.24-.216.648-.384.912-.384s.672-.144.936-.336c.264-.192 1.056-.504 1.776-.72.72-.216 1.656-.648 2.088-.984.432-.336.912-.6 1.056-.6.144 0 .504-.24.816-.552.648-.648 2.832-2.088 3.192-2.088.264 0 1.584-1.272 3.144-3.024 1.608-1.8 1.632-1.848 2.064-2.688.216-.408.504-.768.624-.768s.36-.264.528-.576c.168-.312.744-1.2 1.248-1.968.528-.792 1.056-1.752 1.2-2.136.144-.408.552-1.2.888-1.8.72-1.272 1.512-1.512 2.544-.744.6.456 1.68.816 4.392 1.488.456.12 2.208.216 3.888.216 2.904 0 3.336-.072 6.672-1.008.456-.12 1.224-.312 1.68-.408a5.995 5.995 0 0 0 1.44-.552c.336-.216 1.056-.504 1.632-.672.552-.144 1.008-.36 1.008-.48 0-.144.144-.24.312-.24s.672-.288 1.128-.672c.456-.36 1.152-.816 1.536-1.008.384-.192.888-.648 1.08-1.008.216-.336.744-.816 1.176-1.032.456-.192.864-.576.936-.84.072-.24.36-.624.672-.816.696-.456 2.016-2.448 3.216-4.872 1.056-2.136 1.536-2.664 2.016-2.28.288.264 7.176.24 7.848-.024.384-.144 2.688-.408 4.656-.528.624-.024 1.224-.192 1.32-.336.168-.24 1.632-.648 4.704-1.272.672-.12 1.296-.336 1.416-.456.144-.12.456-.216.696-.216.696 0 4.392-1.8 5.4-2.616.48-.408 1.008-.744 1.152-.744.144 0 .528-.216.864-.456.336-.264 1.08-.672 1.656-.888.576-.216 1.392-.72 1.776-1.08.408-.384.816-.696.912-.696.24 0 3-1.896 3.192-2.184.072-.12.624-.48 1.248-.792.624-.312 1.44-.912 1.824-1.32.408-.408.84-.744.984-.744.288 0 1.056-.552 1.92-1.32.264-.264.936-.768 1.464-1.128.504-.36 1.32-1.008 1.776-1.44.456-.408 1.392-1.2 2.064-1.752 1.704-1.392 6.312-6.096 7.104-7.224.36-.504.864-1.08 1.152-1.248.408-.24 1.08-1.128 2.04-2.664.144-.216.528-.84.912-1.416.36-.576.648-1.176.648-1.344 0-.168.216-.504.48-.744.528-.48 2.88-4.272 2.88-4.632 0-.12.216-.456.48-.768s.48-.744.48-.96c0-.216.216-.6.48-.84s.48-.552.48-.696c0-.144.36-.792.816-1.416.456-.624.888-1.536.984-2.016.096-.504.36-1.176.6-1.512.24-.336.672-1.32.96-2.16.264-.864.6-1.776.696-2.04 1.056-2.472 2.208-6.096 2.424-7.56.264-1.92.648-3.48.96-4.104.12-.216.288-.816.384-1.32.096-.528.312-1.224.48-1.56.168-.36.48-1.368.672-2.28.216-.912.576-2.424.84-3.336.264-.936.504-1.992.504-2.352 0-.528.408-1.08 1.896-2.52 1.056-1.032 2.304-2.424 2.76-3.144.744-1.152 1.032-1.368 2.544-1.968.936-.384 1.824-.696 1.968-.696.144 0 .864-.264 1.608-.576.744-.312 2.16-.864 3.144-1.224s2.016-.744 2.28-.864c.936-.408 3.96-2.328 6.36-4.032.864-.6 1.728-1.224 1.944-1.344 2.208-1.416 3.576-2.352 4.176-2.856 2.136-1.8 3.504-3.048 4.752-4.344 4.56-4.752 6.72-7.104 7.488-8.28.504-.72 1.248-1.704 1.68-2.16.432-.456.84-1.008.936-1.2.072-.192.336-.648.576-.984.216-.36.72-1.152 1.128-1.8.768-1.272 3.504-5.448 4.056-6.216.192-.264.96-1.344 1.68-2.4 1.272-1.848 1.632-2.424 3.192-5.4.384-.72.864-1.584 1.08-1.92 1.584-2.592 2.976-4.824 3.456-5.52.312-.456.768-1.464 1.032-2.232.624-1.752 1.224-2.592 2.568-3.576 2.184-1.56 3.192-4.44 3.24-9.192.024-4.032-.264-8.88-.624-10.44-.168-.72-.312-1.536-.312-1.8s-.192-1.68-.408-3.12c-.216-1.464-.528-3.696-.72-4.968-.192-1.296-.528-2.688-.744-3.12-.36-.696-.36-1.104-.12-3.912.384-4.08.192-6.672-.576-8.328-.792-1.704-.768-2.184.312-3.504.504-.624 1.104-1.56 1.344-2.088.624-1.368 1.152-5.736.816-7.008-.192-.768-.168-1.152.12-1.8.192-.432.432-1.704.504-2.832.144-1.92.12-2.136-.552-3.456l-.696-1.416.456-1.584c.624-2.136.576-2.448-.384-3.96-.912-1.44-.96-1.464-2.832-1.704-1.272-.168-1.392-.24-2.088-1.272-.384-.6-.72-1.2-.72-1.368 0-.408-2.088-2.136-4.656-3.84-2.256-1.512-3.288-2.016-5.184-2.544a15.448 15.448 0 0 1-1.68-.576c-3.096-1.248-9.288-1.8-11.064-1.008-.456.192-1.128.432-1.536.528-.384.072-1.176.48-1.752.864-.552.384-1.128.696-1.248.696-.12 0-.36.168-.576.36-.216.216-1.008.432-1.896.528l-1.512.144-.864-1.2c-.528-.744-1.152-1.296-1.656-1.488a14.832 14.832 0 0 1-1.536-.672c-1.512-.768-3.144-1.68-3.72-2.04-.336-.216-1.56-.672-2.76-1.032-1.176-.36-2.256-.72-2.4-.84-.12-.096-.84-.36-1.56-.6-.72-.24-1.824-.672-2.448-.984-.648-.312-1.296-.576-1.464-.576-.192 0-.864-.288-1.512-.624-2.424-1.296-5.904-1.824-12.456-1.848-3.072-.024-4.848.072-5.424.264-.48.168-1.344.336-1.92.384-.576.024-1.368.216-1.776.432a14.38 14.38 0 0 1-1.68.672c-.528.168-1.2.48-1.488.672-.312.192-.696.288-.912.216-.192-.096-.408-.048-.48.048-.168.288-2.448 1.464-2.832 1.464-.48 0-3.624 2.976-4.872 4.608-.6.816-1.272 1.968-1.464 2.568-.456 1.416-1.368 2.28-1.992 1.944-.24-.12-1.512-.24-2.832-.24-1.392 0-2.808-.144-3.432-.336-.576-.192-2.184-.408-3.576-.48a236.455 236.455 0 0 1-4.8-.288c-2.232-.144-9.552.36-12 .864-.6.12-1.824.336-2.76.504-.912.168-2.16.528-2.76.84-.6.288-1.56.744-2.16.984-.6.24-1.416.744-1.848 1.104-.744.672-1.272.696-1.272.096 0-.552-1.968-2.688-3.096-3.336-.6-.36-1.92-.84-2.904-1.032-.984-.216-2.04-.48-2.328-.6-.624-.264-.72-.768-.216-1.2.648-.528 1.584-3.456 1.728-5.328.072-.984.24-2.376.408-3.096.192-.84.24-1.944.12-3.096-.096-.984-.168-2.784-.192-4.008 0-1.2-.096-2.28-.24-2.352-.12-.072-.24-.432-.24-.768 0-1.128-.744-4.944-1.248-6.432-.672-2.016-1.152-3.672-1.392-4.8-.384-1.848-2.76-8.568-3.792-10.656-.888-1.8-.912-1.992-.312-3.816.48-1.536.504-3.312.024-5.376-.432-1.92-.84-2.232-3-2.232-1.488 0-1.848.072-2.328.528-.768.72-1.248.696-1.752-.072-.384-.6-.384-.672.144-1.92.36-.912.744-1.44 1.224-1.68.648-.336.672-.408.528-1.488-.12-.936 0-1.512.624-3.168.408-1.128.96-2.448 1.224-2.928.24-.48.456-.984.456-1.128 0-.12.12-.528.288-.912.264-.648.528-1.512 1.632-5.472.912-3.312 1.152-4.68 1.728-9.696.216-1.92.216-2.904 0-4.152-.168-.912-.288-1.968-.288-2.376 0-1.008-.84-2.52-2.136-3.912-2.088-2.232-2.64-2.784-2.856-2.784-.12 0-.408-.216-.648-.48-.24-.264-.528-.48-.648-.48s-.456-.264-.744-.6c-.552-.624-1.944-1.464-3.768-2.28-.6-.264-1.2-.552-1.344-.648-2.088-1.416-3.12-2.04-3.768-2.328-.456-.168-1.536-.84-2.4-1.44-1.68-1.176-3.072-2.016-4.488-2.688a142.37 142.37 0 0 1-2.16-1.056c-.72-.36-1.584-.744-1.92-.84-.624-.192-4.344-1.872-5.136-2.304-1.536-.864-2.064-1.128-3.024-1.488-.6-.216-1.344-.408-1.656-.408-.312 0-.912-.216-1.32-.456-2.592-1.584-8.664-3.072-14.784-3.624-3.168-.264-4.944-.264-8.16.048zm5.76 1.632c5.232.648 6.48.792 7.656.864.72.048 1.464.24 1.704.456.264.24.864.36 1.752.36.936 0 1.776.192 2.736.624a50.29 50.29 0 0 0 3.192 1.224c.984.336 2.136.744 2.568.936.408.192.888.336 1.08.336.168 0 1.584.696 3.12 1.536 1.56.84 3.216 1.608 3.72 1.704.48.096 1.2.432 1.584.744.384.312.84.576 1.032.576.192 0 .768.216 1.296.48s1.2.48 1.536.48c.312 0 .624.144.696.336.072.168.768.696 1.536 1.128.768.432 1.512.912 1.632 1.08.144.144.768.528 1.392.84.648.312 1.464.816 1.8 1.128.336.312 1.056.792 1.584 1.056.552.24 1.632.84 2.424 1.272.792.456 1.656.936 1.944 1.056 1.128.504 3.144 1.944 3.984 2.856.504.528 1.08 1.104 1.32 1.296.528.384 1.224 1.392 1.992 2.832 1.056 2.016.744 7.824-.72 14.112-.264 1.152-.6 2.304-.72 2.568-.12.264-.336.912-.504 1.44-.672 2.16-2.16 5.976-2.472 6.288-.072.072-.144.336-.144.576 0 .216-.336 1.2-.744 2.16-.984 2.4-2.16 5.496-2.304 6.144-.12.456-.192.504-.648.264-.264-.144-.816-.528-1.176-.816-.816-.672-1.488-.744-1.824-.168-.312.552.024 1.104 1.008 1.728 1.272.768 3.72 3.192 4.224 4.104.24.456.888 1.152 1.44 1.536 1.056.72 1.944 1.896 1.944 2.592 0 .216.144.504.312.6.336.192 1.176 1.872 1.488 2.928.096.336.384.936.624 1.32.864 1.416 1.392 2.664 1.896 4.464.288.984.6 2.064.72 2.4.096.336.432 1.416.696 2.4.288.984.84 2.88 1.224 4.2 1.68 5.64 2.016 8.304 2.016 14.88-.024 3.336-.624 7.632-1.2 8.304-.192.192-.336.72-.336 1.128 0 .504-.192.888-.624 1.224-.552.432-.624.624-.528 1.56.12 1.056-.072 1.464-1.368 2.808-.192.216-.36.48-.36.6s-.336.36-.744.504c-.552.216-.72.408-.6.696.096.24-.072.552-.456.864-.336.264-.6.624-.6.792 0 .192-.36.576-.768.864-.432.288-1.032.768-1.296 1.032-.744.744-1.296 1.152-2.496 1.944-1.728 1.152-2.016 1.296-2.64 1.584-.336.12-1.152.504-1.848.84-.672.312-1.32.576-1.44.576-.528 0-2.472 1.104-2.472 1.416 0 .48-1.488 2.64-1.824 2.664-.144 0-.408-.168-.576-.36-.168-.192-.432-.36-.576-.36-.168 0-.504-.144-.744-.336-.384-.288-.408-.384-.144-.696.408-.504.24-1.608-.288-1.944-.336-.216-.504-.144-.984.456-.504.624-.72.696-2.088.744-2.904.072-3.72.312-4.752 1.344-.96.96-1.992 1.392-3.24 1.392-.384 0-1.032.216-1.44.456-.408.264-1.56.576-2.544.72-.984.144-2.88.48-4.2.744-1.32.264-3.792.696-5.52.96-1.704.264-3.72.6-4.44.744-2.52.504-5.64.912-6.888.936-.672 0-1.536.12-1.896.24-.864.336-6.12.576-11.952.528-2.616-.024-4.944.072-5.16.168-.216.12-1.032.12-1.824 0s-2.304-.336-3.36-.456c-4.224-.528-8.76-1.632-13.776-3.384-4.848-1.704-8.04-3.336-8.736-4.464a.684.684 0 0 0-.528-.312c-.672 0-1.92-.792-2.4-1.512-.264-.384-.696-.84-.936-.984-1.032-.6-2.568-2.424-3.48-4.128-2.016-3.864-2.808-7.584-2.76-13.056.048-5.568 1.272-14.712 2.208-16.488.12-.24.528-1.512.888-2.832.504-1.752.864-2.592 1.392-3.168.648-.696.696-.816.432-1.464-.336-.816-.024-2.232.744-3.528.24-.408.744-1.32 1.104-2.04.648-1.296 1.152-2.088 2.76-4.344 1.632-2.304 2.616-3.576 2.952-3.768.456-.24 3.192-3.624 3.504-4.296.336-.696.096-1.272-.552-1.272-.48 0-.888.384-3.36 3.168-.552.648-1.128 1.152-1.32 1.152-.168 0-.48-.576-.672-1.296-.552-1.872-.504-2.208.264-1.464.432.432.768.384 1.128-.192.384-.6-.552-1.728-1.416-1.728-.96 0-1.176-.744-1.128-4.32.024-3.12-.6-8.376-1.152-9.84-.36-.96-.984-5.088-1.128-7.44-.192-3.312.84-7.272 3.192-12.264.312-.672.576-1.32.576-1.464 0-.432.864-1.896 2.304-3.96.864-1.224 2.952-3.552 4.152-4.632.456-.384 1.32-1.176 1.92-1.704 1.152-1.032 3.24-2.448 5.064-3.408.6-.336 1.248-.72 1.44-.888.192-.168.6-.384.912-.456.288-.096.528-.264.528-.36 0-.096.576-.48 1.296-.84.72-.36 1.704-1.008 2.232-1.44.504-.408 1.2-.888 1.56-1.032.336-.168 1.104-.648 1.704-1.08.576-.432 1.416-1.008 1.872-1.272.432-.264 1.176-.72 1.656-1.032.456-.288 1.104-.648 1.44-.792.336-.144.84-.456 1.104-.72.6-.552 1.488-1.08 3.576-2.088 3.36-1.632 4.152-1.968 4.536-1.968.24 0 1.128-.288 2.016-.648 1.728-.672 3.816-1.056 4.968-.888.408.072 1.536.216 2.52.336zm52.464 63.024c.432 1.008.36 3.336-.072 3.336-.168 0-.744-.528-1.272-1.176-1.416-1.704-1.248-3 .432-3.024.408 0 .648.216.912.864zm-103.968.36c.408.192.816.792 1.248 1.8.336.816.768 1.56.936 1.632.36.12.96 1.368 1.2 2.424.072.384.192.936.264 1.2.144.6-1.536 2.976-2.112 3-.312 0-.432-.312-.552-1.632-.264-2.904-.768-4.68-1.44-5.28-.696-.576-1.008-.648-1.896-.288-.36.144-.624.408-.624.696 0 .504-.552 1.08-.792.816-.264-.264-.192-2.4.096-3.048.312-.696 1.512-1.32 2.904-1.56.096 0 .432.096.768.24zm-136.008 5.76c.504.984.384 3.888-.216 5.136-.576 1.2-1.032 1.44-1.944 1.104-.984-.384-1.2-1.032-1.008-3.24.192-2.016.504-2.928 1.344-3.768.432-.432.552-.456 1.008-.144.288.192.672.6.816.912zm12.648.192c.36.408.384.552.144.84-.192.24-.24.696-.12 1.32.12.768.024 1.272-.504 2.4-.36.816-.696 1.464-.768 1.464-.072 0-.456-.288-.816-.648-.552-.528-.768-.6-1.104-.384-.24.144-.384.48-.336.816.192 1.632.168 1.776-.336 1.848-.672.096-2.112-1.512-1.872-2.088.072-.216.24-.816.384-1.344.648-2.88 1.992-4.824 3.408-4.968.888-.096 1.32.072 1.92.744zm122.208.528c.096.168.192 1.44.192 2.832.048 2.04.144 2.688.48 3.216.384.576.408.744.144 1.248-.168.336-.432.6-.576.6-.576 0-1.824-1.488-2.064-2.472-.144-.552-.288-1.128-.336-1.248-.144-.432.312-3.336.624-3.912.288-.576 1.248-.72 1.536-.264zM49.056 125.76c1.104.984 2.064 3.432 2.232 5.688.096 1.272.048 1.752-.144 1.752-.168 0-.864.552-1.584 1.224-1.464 1.368-1.848 1.392-2.76.144-1.896-2.52-2.76-5.424-2.088-6.912a9.938 9.938 0 0 0 .504-1.32c.096-.336.528-.624 1.296-.888 1.536-.504 1.608-.504 2.544.312zm148.08 6.552c-.384 1.176-.816 1.488-.816.624 0-.552.432-1.464.816-1.704.408-.264.408-.096 0 1.08zm-142.704 3.072c2.04 2.28 2.112 4.776.12 4.776-.576 0-2.952 1.608-2.952 2.016 0 .384 1.008.864 1.776.864.432 0 .648-.192.816-.72l.264-.72 1.008.36c.552.192 1.296.36 1.656.36.792 0 1.08.312 1.416 1.584.144.552.6 1.416 1.008 1.92 1.032 1.296 1.416 2.28 1.416 3.696 0 .984-.12 1.344-.6 1.8-.312.336-.672.6-.792.6-.144 0-1.152-.912-2.28-2.016s-2.4-2.208-2.808-2.448c-.48-.288-1.032-.96-1.44-1.776-.792-1.536-1.464-2.232-2.688-2.76-.648-.264-.936-.552-1.032-1.032-.072-.36-.24-.984-.36-1.368-.552-1.896-.528-2.16.264-3.624 1.032-1.896 1.8-2.424 3.528-2.472.648-.024.96.168 1.68.96zm18.12-.336c.096.072.696.888 1.32 1.824 1.2 1.824 2.304 4.656 2.064 5.28-.072.24.048.48.384.648.768.408 1.2.12 1.2-.792 0-.768.072-.84.912-.984 1.56-.24 3.648-.168 4.992.24.72.192 1.296.456 1.296.576 0 .12.216.288.48.36.264.096.984.576 1.584 1.104.6.504 1.176.936 1.296.936.312 0 2.664 3.024 3.528 4.536 1.224 2.112 1.32 2.424 1.296 4.44-.048 2.664-.72 4.944-2.064 6.864-1.152 1.656-5.472 6.24-5.88 6.24-.144 0-.648.384-1.128.84-.48.456-.984.84-1.104.84-.144 0-.6.264-1.032.6-.432.336-.888.6-1.008.6s-.84.408-1.632.912c-.768.504-1.8 1.056-2.256 1.224-.456.192-1.272.48-1.8.696-1.104.408-1.536.48-3.72.648-1.44.12-1.656.072-2.808-.648-2.928-1.848-4.104-2.784-6.288-4.992-1.752-1.776-2.52-2.784-3.192-4.104-1.416-2.88-1.68-3.696-1.704-5.184 0-2.136.48-3 2.28-3.984.816-.48 2.064-.984 2.712-1.152.672-.144 1.464-.456 1.8-.648.672-.432 2.136-.768 4.104-.936.984-.072 1.584 0 2.136.288.432.216 1.344.576 2.016.768.672.192 1.824.744 2.544 1.224 1.56 1.032 2.136 1.416 2.64 1.632.192.096.6.384.912.672.648.576 1.32.312 1.44-.552.096-.648-1.392-2.184-2.784-2.88-3.624-1.848-4.104-2.016-6.504-2.424-1.488-.24-2.76-.336-3.12-.216-.336.096-1.416.408-2.352.696-2.04.624-2.544.528-2.424-.408.048-.528.168-.648.552-.576 1.128.192 2.064.072 2.52-.336.72-.648.6-1.08-.312-1.08-.432 0-1.272-.24-1.848-.552-.96-.48-1.2-.792-2.376-3.024-1.488-2.952-1.752-4.416-1.056-6.384.36-.96.648-1.32 1.56-1.896 1.008-.6 1.224-.648 1.848-.408.384.168.768.504.888.744s.696.792 1.296 1.248c1.08.816 1.416 1.536 2.376 4.896.336 1.2 1.104 2.256 1.68 2.256.24 0 .936.168 1.56.384.936.312 1.32.336 2.04.144 1.92-.6 2.304-1.608 1.536-4.08-.456-1.416-.864-1.752-1.416-1.2-.312.312-.336.576-.072 1.824.24 1.176.24 1.512 0 1.824-.696.84-2.184.264-2.88-1.152-.6-1.2-1.176-3.456-1.368-5.352-.168-1.488.12-2.04 1.224-2.304.48-.12 1.752.024 2.112.24zm-26.448 1.776c.528.36.696.672.696 1.272 0 .432.168 1.32.36 1.968.528 1.704.456 2.112-.504 3.12-.768.816-.96.912-2.088.936-1.128 0-1.272-.072-1.776-.816-.648-.936-.696-1.92-.216-3.984.264-1.104.552-1.608 1.2-2.208 1.008-.912 1.368-.96 2.328-.288zm12.072 1.824c-.144.528-.576.768-.576.336 0-.12-.072-.576-.144-1.008l-.144-.816.48.48c.36.336.48.648.384 1.008zm-7.752 6c.48.6.936 1.464.936 1.752 0 .144-.384.432-.864.624-1.296.552-3.264 2.952-3.576 4.392-.072.408-.24.792-.36.864-.096.072-.648-.384-1.176-.984l-.984-1.128v-2.088c0-2.28.072-2.4 1.392-2.4.96 0 2.64-.552 3.096-1.032.528-.528 1.104-.528 1.536 0zm2.616 4.296c1.056-.144 1.176-.096 2.232.816.6.528 1.32 1.44 1.608 2.04l.528 1.08-.744 1.32c-.408.72-.744 1.464-.744 1.632 0 .192-.216.528-.504.792-.408.36-.864.456-2.16.432-1.488 0-1.728-.072-2.4-.72-1.08-1.032-1.488-1.896-1.176-2.52.336-.576.144-1.176-.312-1.176-.192 0-.48-.336-.648-.72-.264-.624-.24-.888.12-1.704.264-.528.72-1.176 1.032-1.416.528-.432.624-.432 1.32-.096.504.288 1.056.336 1.848.24zm44.856 5.712c1.68.696 2.76 1.08 3.984 1.416.528.144 1.992.768 3.24 1.416 1.248.624 2.4 1.152 2.544 1.152.144 0 .384.264.552.576.168.312.96.96 1.728 1.464.792.504 1.656 1.248 1.968 1.656.792 1.128 3 3.744 4.104 4.848.552.528 1.632 1.8 2.4 2.808.768 1.008 1.8 2.232 2.28 2.736.48.504 1.248 1.392 1.704 1.992a34.513 34.513 0 0 0 1.44 1.704c1.752 1.944 4.8 6.864 4.8 7.776 0 .12.288.552.624.912.528.576.6.816.456 1.608-.168 1.056.168 1.92.768 1.92.456 0 1.272.672 1.272 1.032 0 .12.336.768.72 1.416.408.624.72 1.296.72 1.488 0 .168.192.576.432.888.528.72.864 1.704 1.464 4.416.696 3.096.912 11.64.336 12.624-.336.552-.36.792-.12 1.296.24.528.432.624 1.056.552 1.248-.12 1.344-.576 1.248-6.264-.144-7.728-.624-10.008-3.48-15.888-1.584-3.24-1.656-2.808.648-4.296.672-.432 1.584-.864 2.016-.936.432-.096 1.392-.528 2.136-.984.744-.456 1.848-.984 2.472-1.2.624-.192 1.584-.576 2.16-.816 2.664-1.176 5.064-2.112 6.672-2.592.72-.216 1.44-.48 1.56-.576.144-.096 1.224-.408 2.4-.72 1.2-.288 2.592-.672 3.12-.84 1.104-.36 6.672-.72 10.56-.696 4.248.024 10.824 1.464 13.08 2.856.456.288 1.392.816 2.064 1.152 1.752.888 5.304 4.512 6.192 6.312.384.768.912 1.704 1.176 2.088.24.36.624 1.2.864 1.848.24.648.576 1.392.792 1.608.192.24.576 1.032.84 1.752.456 1.248.72 2.232 1.632 6.48.456 2.088.672 2.736 1.536 4.872.192.504.192.816 0 1.176s-.192.648 0 1.056c.312.696.768.744 1.32.12.36-.408.408-.72.264-1.992-.168-1.392-1.224-5.736-2.16-8.832-.216-.72-.48-1.656-.6-2.04-.36-1.296-1.272-3.6-1.584-4.08-.192-.264-.336-.624-.336-.816 0-.192-.144-.528-.336-.72-.192-.216-.768-1.2-1.296-2.184-1.776-3.384-2.568-4.44-4.68-6.072-1.104-.864-2.472-1.824-3.024-2.088-.96-.504-1.248-1.008-.744-1.32.144-.072.24-.576.24-1.08 0-.6.264-1.368.72-2.16.408-.672.72-1.32.72-1.44 0-.144.12-.24.24-.24.144 0 .24-.144.24-.336 0-.504 2.328-2.496 3.576-3.072.6-.264 1.632-.504 2.304-.528l1.176-.024.888 2.472c.48 1.344 1.032 2.64 1.224 2.88.192.216.648.936 1.008 1.608 1.008 1.776 4.584 5.136 6.936 6.504 1.08.624 2.52 1.464 3.168 1.896 2.256 1.44 4.416 2.448 5.712 2.664 1.92.336 4.392 1.392 5.328 2.304.552.504 1.08.912 1.2.912.624.024 3.36 3.144 4.176 4.752.24.48.624 1.8.84 2.904.408 2.208.696 2.712 1.44 2.616.432-.072.528-.312.672-1.464.24-1.992.888-3.192 2.544-4.896 2.4-2.424 2.856-2.664 6.048-2.952 5.352-.504 8.448-.72 8.64-.6.096.048.816 0 1.584-.144.768-.12 2.112-.288 2.976-.336 3.696-.264 4.584-.36 9.96-1.224 2.904-.456 4.968-.768 7.2-1.032.936-.12 2.352-.432 3.192-.72.816-.288 2.328-.576 3.36-.648 1.008-.072 2.064-.216 2.328-.336.264-.096.792-.312 1.152-.456.36-.144.888-.264 1.176-.264.264 0 1.152-.216 1.968-.456 4.44-1.416 5.472-1.704 6.216-1.704 1.272 0 3.792 1.104 4.656 2.04 1.128 1.248 1.608 1.128 2.472-.6.576-1.128 2.568-3.36 3-3.36.408 0 4.896-2.376 6-3.192.576-.432 1.632-1.2 2.376-1.704 1.968-1.392 4.8-4.272 6.048-6.168 1.056-1.608 1.128-1.656 2.088-1.656 2.184 0 5.4 1.416 6.816 2.976l1.08 1.2-.84.744a43.741 43.741 0 0 1-1.968 1.56c-.624.456-1.944 1.584-2.928 2.52-1.008.912-2.04 1.776-2.328 1.872-.264.096-1.248.936-2.184 1.848-.912.912-2.256 2.208-2.928 2.856-1.176 1.128-1.272 1.32-1.272 2.304 0 1.008.096 1.2 1.68 2.832.912.936 1.68 1.8 1.68 1.896 0 .096.48.936 1.08 1.872.6.912 1.416 2.424 1.8 3.336.6 1.416.72 1.992.72 3.72 0 4.224-.936 10.992-1.728 12.288-.24.408-.432.936-.432 1.128 0 .48-1.368 3.048-1.8 3.408-.168.12-.384.552-.456.912-.096.432-1.224 1.728-3.096 3.576-3.192 3.12-4.536 4.152-5.424 4.08-.312-.024-.72.072-.912.216-.192.192-.744.216-1.584.096-1.968-.264-5.352-.096-6.696.312-.912.288-4.464.528-8.112.552-1.392 0-3.168.12-3.936.24-.792.144-3.024.264-4.992.264-1.968.024-3.624.12-3.696.216-.168.288-1.56.888-2.256.984-.672.072-.912.744-.48 1.272.408.48 1.824.456 5.88-.144 4.104-.576 4.104-.576 12.84-.816 3.888-.096 7.272-.264 7.488-.384.72-.384 4.704-.264 5.52.168.624.312 1.08.36 2.328.216.888-.12 1.968-.192 2.424-.168 1.704.048 6.912.984 7.992 1.44.384.168.888.288 1.176.288.264 0 .816.144 1.224.336.432.192 1.416.456 2.184.6.768.144 1.752.528 2.16.816.672.504 1.44.936 4.152 2.28.408.192.864.6.984.912.144.288.576.672.984.84.408.192.744.408.744.504 0 .12.12.192.288.192.36 0 2.376 2.16 3.24 3.48.336.528.816 1.248 1.08 1.608.24.36.432.744.432.864s.312.864.72 1.632c.72 1.44 1.68 4.68 1.68 5.664 0 .312.144 1.248.336 2.112.576 2.616 1.296 8.496 1.08 9.024-.096.264-.072 1.008.072 1.632.12.624.144 1.32.048 1.536-.096.216-.192 1.224-.24 2.208-.192 5.064-.336 6.72-.672 8.04-.216.768-.384 1.584-.384 1.8 0 .192-.168.672-.36 1.056-.192.36-.288.768-.216.888.048.12 0 .432-.168.72-.24.48-.384.504-2.136.36-1.824-.168-3.336.048-4.392.624-.24.12-1.104.192-1.92.168-1.176-.048-1.68.048-2.328.456-.84.504-3.288 1.176-5.16 1.416-.576.072-1.224.36-1.608.72-.528.504-.792.576-1.44.456-.792-.144-1.272.072-2.472 1.104-.264.24-1.488.912-2.736 1.512-1.248.6-2.592 1.344-3 1.632-.408.288-1.08.696-1.464.912-.744.408-1.608 1.056-2.688 2.088-.312.288-1.344.984-2.304 1.512-2.4 1.368-4.176 2.736-7.344 5.688-.6.576-1.44 1.2-1.872 1.392-.432.192-.888.576-1.056.864-.144.312-.48.768-.72 1.032s-.84.96-1.296 1.56c-.744.96-1.056 1.488-1.632 2.88-.096.192-.264.528-.384.72-.48.816-1.68 3.528-1.848 4.2-.072.384-.408 1.2-.72 1.8-1.032 2.016-1.92 4.2-2.352 5.76-.24.864-.576 1.872-.744 2.28-.384.816-.744 2.208-.96 3.528-.072.504-.24.912-.36.912-.144 0-.24.456-.24 1.008 0 1.344-.432 4.248-.696 4.872-.384.888-.792 2.64-.84 3.48-.024.456-.24 1.2-.456 1.608-.24.456-.36 1.032-.288 1.344.336 1.32-1.632 3.84-3.96 5.112-.72.384-1.752 1.152-2.28 1.704-1.08 1.128-2.208 1.944-3.888 2.784-.624.312-1.584.792-2.112 1.08a32.21 32.21 0 0 1-1.728.792c-.432.144-1.08.528-1.44.84-.384.312-.84.576-1.056.576-.216 0-.792.288-1.296.624-1.128.744-3.576 1.896-4.56 2.136-.384.072-1.392.504-2.232.912-1.608.816-1.896 1.272-1.632 2.568.168.96-.144.912-1.44-.144-.768-.648-1.368-.912-2.208-1.008-.624-.072-1.488-.312-1.92-.576-.432-.24-.984-.432-1.248-.432-.24 0-.528-.096-.6-.24-.072-.12-.768-.408-1.512-.624-1.224-.336-2.16-.696-3.456-1.32-.216-.12-.72-.144-1.104-.072-.432.096-1.008 0-1.488-.264-.408-.216-.816-.336-.888-.264-.072.048-.48-.096-.936-.36-.456-.24-1.032-.456-1.248-.456-.24 0-.552-.12-.696-.264-.144-.144-.768-.264-1.392-.264-.6.024-1.608-.072-2.232-.216-2.088-.456-3.024-.528-8.208-.552-2.832-.024-5.352-.12-5.568-.24-.216-.096-1.2-.072-2.16.072-.96.144-2.712.312-3.864.384-1.344.072-2.328.264-2.688.504-.48.312-1.536.408-5.808.48-2.88.048-6.096.192-7.152.312s-2.832.288-3.96.36c-1.128.072-2.712.336-3.552.624-1.176.384-1.872.48-3.024.36-1.656-.144-2.328.096-4.248 1.488-1.392.984-2.376 1.056-3.072.168-.288-.36-.504-.792-.504-.96 0-.168-.288-.504-.648-.744-1.08-.648-2.232-1.824-2.232-2.232 0-.216-.288-.6-.672-.888-.408-.312-.888-1.08-1.272-2.136-.864-2.28-1.8-5.304-2.016-6.456-.096-.528-.24-1.08-.336-1.2-.264-.336-.648-1.92-.984-3.84-.144-.936-.384-2.016-.504-2.424-.12-.408-.216-1.224-.216-1.824 0-.6-.168-1.512-.384-2.016-.432-1.056-.864-6.192-.936-11.736-.072-3.696.504-9.696 1.2-12.84.192-.864.576-2.688.84-4.08.288-1.392.648-2.784.816-3.12.192-.336.552-1.296.84-2.16.288-.864.744-1.944.984-2.4.24-.456.576-1.104.696-1.44.144-.336.384-.768.504-.96.144-.192.888-1.608 1.656-3.12 1.872-3.672 2.352-4.536 2.712-5.016.192-.216.576-.864.912-1.464 1.488-2.784 9.072-11.376 10.608-12.024.384-.144.672-.36.672-.48s.168-.216.36-.216c.192 0 .456-.192.576-.456.144-.24 1.512-1.056 3.072-1.8 1.56-.768 3.024-1.488 3.264-1.608 1.176-.624 1.752-.84 7.248-2.664 1.584-.528 3.336-1.152 3.912-1.416.552-.24 1.176-.456 1.368-.456.216 0 .552-.096.792-.24 1.224-.672 12.336-4.464 13.728-4.68.6-.096 1.416-.36 1.8-.576 1.128-.648 4.632-1.728 7.44-2.304 1.056-.216 2.304-.552 2.76-.744 1.128-.456 4.368-1.296 6.072-1.56.768-.12 1.632-.336 1.92-.48.288-.168 1.152-.384 1.968-.48.792-.096 2.304-.312 3.36-.456 1.056-.168 2.688-.312 3.624-.36.96-.048 2.088-.144 2.52-.264 1.344-.288 2.136-.36 4.776-.456 1.392-.048 3.096-.192 3.816-.336.696-.144 2.808-.264 4.68-.264 3.504 0 3.984-.12 3.984-1.008 0-.576-.864-1.008-2.16-1.08-3.96-.24-4.896-.216-6.768.072-1.152.192-2.376.336-2.76.312-1.056-.072-8.28.72-8.952.984-.336.12-1.896.336-3.48.48-1.848.192-3.744.528-5.28 1.008-2.88.864-4.032 1.128-5.16 1.152-.456 0-1.152.168-1.56.384a10.812 10.812 0 0 1-3.96 1.176c-.672.072-1.896.384-2.736.72-.816.336-1.632.6-1.8.6-.36 0-5.592 1.56-7.344 2.184-.648.216-1.68.552-2.28.72-.6.168-1.344.432-1.68.6-.336.168-1.512.624-2.64 1.056-1.128.432-2.136.84-2.28.936-.12.096-1.704.648-3.48 1.2-1.776.576-3.528 1.2-3.888 1.368-.336.192-.768.336-.96.336-.624 0-6.816 2.112-7.848 2.664a290.562 290.562 0 0 0-5.424 3.096c-2.208 1.272-2.52 1.32-3.096.408-.312-.48.648-1.56 2.184-2.472.648-.384 1.08-.816 1.176-1.224.168-.648.216-.624-1.752-2.136-.768-.6-.648-.84.84-1.656 1.464-.816 2.544-2.304 2.328-3.264-.096-.384-.48-.96-.888-1.296-1.008-.84-1.872-2.184-1.872-2.88 0-.312.264-.864.576-1.248.984-1.2 1.776-2.616 1.944-3.504.144-.696.024-1.104-.672-2.376-.888-1.56-1.848-4.92-1.848-6.36 0-.816.408-1.632 1.32-2.712 2.304-2.616 6.84-10.704 6.84-12.12 0-.456-1.032-1.128-1.488-.96-.192.072-.504.6-.696 1.152-.384 1.248-3.216 6.84-3.792 7.488-.216.264-.576.72-.768 1.008a84.723 84.723 0 0 1-1.824 2.328c-.84 1.008-1.512 1.896-1.512 1.968 0 .264-4.224 4.584-6.024 6.144-3.192 2.784-6.648 5.232-7.392 5.232-.168 0-.576.216-.912.48-.336.264-.792.48-.984.48-.216 0-.552.144-.744.336-.36.312-2.256.888-4.584 1.392-1.968.408-4.152.648-8.4.912-4.56.264-6.84.048-9.6-1.008-.72-.264-1.536-.504-1.8-.528-.264 0-1.8-.696-3.408-1.536-1.608-.816-3.072-1.488-3.24-1.488-.504 0-5.808-2.712-6.816-3.504-1.704-1.32-3.96-1.992-7.68-2.352-1.872-.168-3.528-.384-3.672-.48-.144-.096-.912-.264-1.728-.408-.792-.12-1.848-.48-2.328-.792-.48-.288-1.008-.6-1.176-.648-.6-.192-6.072-5.784-7.416-7.584-1.368-1.776-3.288-5.04-4.776-8.04-.36-.768-.912-1.608-1.224-1.896-.312-.312-.576-.72-.576-.912 0-.216-.312-.984-.72-1.704-.384-.72-1.152-2.232-1.704-3.36a1037.91 1037.91 0 0 0-5.136-10.32c-.576-1.128-1.584-3.24-2.28-4.68a293.391 293.391 0 0 0-2.88-6c-.912-1.848-1.776-3.792-1.944-4.32-.144-.528-.408-1.176-.576-1.44a6.332 6.332 0 0 1-.432-1.08c-.072-.336-.456-1.464-.888-2.52-.648-1.68-1.368-4.104-2.184-7.44-.432-1.728-.408-1.872.48-2.088 1.2-.336 6.48-3.096 7.704-4.056.6-.456 1.632-1.368 2.28-2.016.672-.624 1.776-1.704 2.472-2.376.696-.672 1.584-1.656 1.968-2.208.384-.528.84-1.104 1.056-1.272.888-.744 2.52-5.208 2.496-6.84-.024-1.248 1.032-1.416 3.144-.528zm290.256 2.952c.432.24.888.576 1.032.768.168.216.48.288.912.168.48-.12.816-.024 1.272.336.336.264.864.48 1.176.48.312 0 1.224.312 2.064.696.84.384 2.112.84 2.832 1.008.72.168 1.632.48 2.016.72.408.24 1.2.504 1.752.6.552.072 1.488.432 2.04.792.576.36 2.376 1.272 4.032 2.04 1.656.744 3.192 1.536 3.408 1.752.912.816 1.464 2.928 1.488 5.712.024 1.992-.048 2.616-.264 2.592-.288-.072-.408.552-.36 1.728.024.264-.072.864-.192 1.32-1.056 3.96-1.128 5.28-.216 5.76.888.504 1.296-.072 1.944-2.688 1.056-4.224 1.56-8.568 1.128-9.72-.264-.72-.096-1.416.384-1.608.624-.24 1.056.12 1.296 1.032.288 1.056.144 9.288-.168 10.104-.12.336-.312 1.512-.408 2.64-.192 2.256-.624 3.36-1.296 3.36-.624 0-1.08.648-1.56 2.208-.456 1.56-.528 1.632-1.704 1.728-.456.048-1.008.216-1.224.408-.24.216-1.008.336-1.92.36-.816 0-1.632.12-1.824.264-.408.312-2.544.84-2.808.696-.096-.072-.408.024-.648.216-.24.192-.864.36-1.368.36-.528 0-1.224.144-1.56.336-1.488.768-2.4 1.056-2.976.936-.456-.096-.72.048-1.08.48-.336.456-.696.6-1.248.6-.432-.024-1.056.192-1.464.48-.384.288-.912.528-1.152.528-.24 0-1.08.336-1.848.768-1.368.744-1.8.864-4.44 1.392-.72.168-1.656.384-2.088.504-.408.144-1.752.36-2.976.48-1.248.144-2.472.432-2.808.648-.528.336-.624.336-.864.024-.192-.288-.456-.336-.984-.168-.384.096-2.28.072-4.2-.072-1.92-.144-4.56-.288-5.88-.312l-2.4-.024.048-.744c.072-.72.024-.768-1.008-.864-1.248-.144-1.872-.768-2.592-2.592-.264-.6-.624-1.464-.816-1.968-.384-.912-.336-2.232.216-5.352.264-1.584.528-2.04 1.176-2.04.216 0 .576-.144.768-.336.408-.408 1.032-5.76.792-6.912-.096-.432-.264-1.848-.384-3.12-.24-2.376-.576-3.312-1.872-5.28-.744-1.152-.624-1.584.984-3.552.696-.864 1.56-2.064 1.92-2.712.384-.624.768-1.128.888-1.128s.36-.288.528-.648c.312-.672 1.632-1.488 2.424-1.512.24 0 1.344-.432 2.448-.96 1.128-.528 2.376-1.032 2.808-1.104.432-.096 1.008-.288 1.272-.456.264-.168.84-.384 1.272-.456.624-.144.768-.12.768.24s.048.384.432.048c1.056-.936 1.8-1.128 3.648-.888 1.08.12 1.824.12 1.92 0 .072-.144.6-.144 1.32 0 .768.144 1.368.144 1.68 0 .48-.24 1.416-.384 2.952-.456.456-.024 1.152.144 1.56.36zm42.576 9.072c1.272.456 2.496.84 2.736.84.552 0 1.608.456 2.352 1.008.312.24.816.432 1.128.432.552 0 3.024 1.344 3.168 1.728.048.096.168.192.288.192.12 0 .528.312.912.72.408.384.888.72 1.104.72.696 0 2.568 3.336 3.504 6.24.552 1.704.48 6.24-.096 7.464-.192.456-.552 1.296-.744 1.896-.624 1.776-.984 2.16-1.8 1.992-.648-.12-.72-.072-.72.48 0 .336-.12.696-.24.768-.144.096-1.248-.024-2.448-.264-2.064-.408-2.256-.408-3.312-.024-.624.216-1.368.408-1.632.408-.264 0-.6.168-.768.36-.168.216-.696.36-1.272.36-.672 0-1.152.168-1.56.528-.432.432-.864.552-1.896.576-2.04.024-2.496 1.032-1.152 2.496.96 1.056 1.8 2.448 1.8 3 0 .288.168.672.36.84 1.032.864 3.072 8.064 2.856 10.056-.192 1.728-.6 3.24-.984 3.528-.576.48-2.472-.096-3.984-1.248-.792-.576-1.536-1.056-1.656-1.056-.48 0-2.904-2.28-3.984-3.72-.576-.792-1.176-1.488-1.32-1.56-.696-.288-3.024-1.944-4.056-2.856-1.512-1.344-2.688-3.816-3.528-7.416-.384-1.512-.216-2.28.672-3.312 1.392-1.56 2.856-8.88 3.072-15.384.12-2.976.072-3.96-.288-5.448l-.432-1.824.576-.624c.912-.984 2.328-1.68 4.416-2.232 3.648-.936 5.736-.864 8.928.336zm-85.056 3c1.368 0 2.016.12 5.28.888.936.216 2.04.312 2.616.24 1.416-.192 3.048.288 3.864 1.152.888.936 1.608 2.976 1.56 4.536 0 .672.072 2.064.168 3.096.192 2.16-.072 3.576-.936 4.848-.696 1.008-1.08 2.568-1.344 5.52-.096 1.176-.264 2.424-.336 2.76-.168.6.144 3.768.456 4.704.144.432-.024.648-.912 1.248-.576.408-1.536.936-2.112 1.152-.576.24-1.464.864-1.944 1.416-.504.576-1.272 1.128-1.824 1.296-.528.192-1.2.648-1.464 1.008-.288.384-.696.696-.888.696-.216 0-.744.288-1.176.648-.432.384-1.344 1.056-2.016 1.512a24.269 24.269 0 0 0-2.28 1.8c-1.128 1.032-1.92 1.56-3.312 2.184-.504.216-.912.48-.912.6 0 .336-1.032 1.176-1.416 1.176-.216 0-.984.408-1.704.912-.72.48-1.8 1.104-2.4 1.368-.6.24-1.416.696-1.848 1.008-.408.312-.912.552-1.128.552-.432 0-2.712 1.128-2.904 1.44-.072.144-.48.24-.888.24-.456 0-1.008.264-1.56.72-.504.456-1.08.72-1.512.72-.384 0-.984.12-1.368.264-.36.144-1.92.36-3.432.48-2.328.192-2.808.168-3.024-.144-.168-.216-.336-.264-.48-.12-.384.384-3.072-.72-4.296-1.8l-1.176-1.008.888-1.824a14.513 14.513 0 0 0 1.248-3.816c.528-3.096 1.128-8.064 1.2-9.792.048-1.752-.552-4.416-1.296-5.88-.288-.504-.504-1.056-.504-1.2 0-.576-3.96-6.264-4.896-7.056-.816-.672-.48-1.392 1.176-2.472.936-.624 1.632-1.248 1.704-1.584.096-.288.6-.888 1.152-1.296.528-.432 1.968-1.608 3.144-2.592 3.264-2.736 3.96-3.24 5.544-4.032.816-.408 1.776-1.008 2.16-1.32 1.512-1.248 5.832-3.192 8.376-3.792.936-.216 4.44-.744 5.16-.768.192 0 1.776.048 3.48.144 2.376.12 3.288.096 3.84-.168.6-.264.888-.264 1.8 0 .6.192 1.704.336 2.472.336zm103.008 6.984c1.08.96 1.224 1.608.648 2.904-.576 1.296-1.128 1.8-1.584 1.416-.576-.48-1.152-4.464-.696-4.896.312-.336.792-.144 1.632.576zm.624 6.6c.528.552.576.816.576 2.856 0 1.368-.096 2.352-.264 2.52-.192.192-.672.216-1.56.072-1.176-.192-1.296-.264-1.272-.792.024-.552.744-4.272.96-4.992.144-.48.936-.336 1.56.336zm-226.92 6.408c.096.096.408.168.672.168.288 0 .816.168 1.176.36.504.264.792.288 1.248.072.696-.312 2.28-.048 2.28.408 0 .168-.504.696-1.152 1.152-.624.48-1.488 1.344-1.944 1.968-.432.624-.888 1.032-.984.912-.072-.096-.648-.96-1.248-1.872-.6-.936-1.488-2.064-1.992-2.568-.48-.48-.84-.96-.744-1.104.144-.24 2.352.168 2.688.504zm224.784.456c.216.168.432.528.48.792a.722.722 0 0 0 .552.552c.912.192 1.08.528 1.08 2.304 0 2.76-.936 5.424-1.92 5.424-.336 0-.528-.264-.744-1.008-.432-1.632-1.896-4.224-2.784-4.872-.432-.36-.792-.792-.792-.96 0-.192.576-.696 1.296-1.08.72-.408 1.44-.912 1.584-1.08.36-.432.744-.456 1.248-.072zm-5.52 3.072c.648.408 1.464 1.032 1.8 1.392.648.72 2.232 3.888 2.232 4.488 0 .576-.624.696-1.68.264l-.96-.384-1.296 1.176c-1.368 1.248-2.256 1.608-4.464 1.848l-1.32.144-1.68-1.344c-1.248-1.032-1.8-1.68-2.16-2.52a17.341 17.341 0 0 0-.888-1.776c-.24-.336-.432-.72-.432-.84 0-.336 1.032-.96 2.952-1.776 2.472-1.032 3.696-1.344 5.304-1.368 1.176-.024 1.608.096 2.592.696zm-30.528 1.416c.144.384.432.768.6.84.168.048.432.72.6 1.44.36 1.728 1.056 3.72 1.728 4.92.744 1.296 2.352 3.144 2.736 3.144.168 0 .432.216.576.48.264.504 1.896 1.44 2.472 1.44.408 0 1.272.912 1.464 1.584.192.672 3.072 3.408 4.056 3.84 2.568 1.176 2.784 1.704 1.368 3.144-.528.552-.96 1.176-.96 1.392 0 .24-.264.912-.552 1.536-.312.624-.816 1.92-1.104 2.904-.288.984-.624 2.016-.744 2.28-.936 2.232-1.296 5.136-1.296 10.68.024 3.456.12 4.776.432 5.976.216.84.336 1.608.216 1.728-.192.192-1.896-.096-3.36-.528-.72-.216-1.44-.168-2.712.264-.336.096-1.416.312-2.4.48-.984.144-2.232.48-2.76.72-1.464.648-2.52.936-2.88.816-.192-.072-.576.024-.888.24-.288.216-.768.384-1.056.384-.288 0-.792.216-1.128.48-.336.288-1.2.696-1.896.936-.696.24-1.944.792-2.736 1.2-.816.408-1.584.744-1.728.744-.624 0-1.464.6-1.608 1.128-.096.456-.264.576-.672.48-.288-.072-.84.072-1.248.336-.84.528-.72.48-2.784 1.152-.888.264-1.824.504-2.112.504-.6 0-1.368.36-2.016.912-.24.216-.624.408-.84.408-.216.024-.648.048-.936.072-.288.024-.696.216-.888.432-.216.192-.84.408-1.368.456-.552.072-1.176.264-1.392.456-.216.192-.84.456-1.392.6-1.536.408-3.528 1.392-4.152 2.064-.312.336-.792.6-1.056.6-.288.024-.936.288-1.464.6-.528.336-1.176.696-1.44.816s-.888.648-1.392 1.2c-.504.528-1.056.984-1.248.984-.192 0-.48.216-.672.48-.192.264-.816.816-1.416 1.2-.744.504-1.128.936-1.224 1.416-.072.36-.6 1.152-1.128 1.728-.552.576-1.368 1.776-1.824 2.688L364.08 270l-1.248-.624c-.696-.36-1.704-.648-2.28-.672-.624-.024-1.296-.24-1.752-.576-.528-.408-.888-.504-1.272-.384-.288.096-.72.168-.936.12-.216-.024-.744.12-1.152.336-.384.216-1.296.408-1.992.432-1.176.048-1.248 0-1.344-.552-.168-1.2-2.424-5.496-3.096-5.856-.216-.12-1.32-1.128-2.448-2.232-2.328-2.304-4.728-3.672-7.464-4.296-1.728-.384-2.616-.36-4.848.192-.696.168-1.224.192-1.368.048-.12-.12-.264-.816-.336-1.536-.048-.72-.24-1.968-.384-2.76a44.631 44.631 0 0 1-.48-2.76c-.312-2.16-.792-3.552-2.496-7.008-1.464-2.952-1.8-3.456-3.504-5.16-1.056-1.032-1.92-1.968-1.92-2.088 0-.12.336-1.032.72-2.04 1.2-3.048 2.472-8.304 2.592-10.656l.072-2.112 1.248-.6a25.257 25.257 0 0 0 1.848-.936c.336-.192 1.848-.912 3.36-1.608 2.808-1.272 3.696-1.8 7.08-4.2 1.056-.744 2.256-1.488 2.64-1.656.408-.168 1.2-.72 1.8-1.248 3.48-3.072 4.104-3.552 4.728-3.744.288-.096 1.104-.768 1.8-1.512.768-.792 1.776-1.56 2.52-1.896.696-.312 1.68-.84 2.208-1.152.504-.336 1.296-.624 1.728-.672.72-.072.816-.144.768-.744-.072-.96.456-.816 1.488.432 1.272 1.584 2.16 1.872 6.36 2.184 7.752.552 12.72.192 18.36-1.344 1.056-.288 2.52-.672 3.24-.84 1.56-.408 3.024-.888 5.64-1.848 1.056-.384 2.184-.768 2.52-.84a3.955 3.955 0 0 0 1.08-.456c.264-.192.648-.336.864-.336.216 0 .72-.168 1.128-.36.408-.216 1.848-.552 3.192-.744 1.368-.216 2.784-.528 3.144-.72.672-.336 3.36-.96 4.416-1.032.36-.024.6.192.816.672zm-101.28 25.368c.6.408 1.992 1.032 3.12 1.416 1.704.576 2.424.696 4.44.696 2.544 0 5.664-.504 6.168-1.008.864-.864 1.752.12 1.512 1.704-.36 2.328-2.04 7.584-2.904 9.12-.696 1.272-1.152 1.392-2.184.576-.36-.312-1.032-.696-1.44-.864-.432-.192-.792-.408-.792-.504 0-.144-.864-.552-3.264-1.56-.432-.192-1.176-.408-1.68-.504-.528-.072-1.104-.288-1.296-.456-.768-.672-6.912-1.68-9.648-1.584-.96.024-1.392-.048-1.392-.264 0-.144 1.104-1.368 2.448-2.688 2.928-2.904 3.792-3.84 4.512-4.92.552-.792.576-.792.936-.36.216.264.864.792 1.464 1.2zm28.32 37.776c.6.12 1.584.288 2.184.36 1.464.192 4.032 1.848 6.24 4.056.384.384.696.768.696.888 0 .096.504.744 1.104 1.464.624.696 1.32 1.704 1.56 2.232.504 1.104.6 2.592.168 2.928-.168.144-1.128.456-2.112.72-1.2.312-2.376.864-3.48 1.608-2.904 1.92-3.696 2.616-5.016 4.392-.72.936-1.536 1.968-1.824 2.28a18.97 18.97 0 0 0-1.152 1.368c-.624.792-.648.792-2.064.648-2.04-.216-3.024-.576-3.024-1.08 0-.216.336-1.752.744-3.384.816-3.264.936-4.944 1.056-12.72.048-2.712.096-4.992.096-5.064.024-.192 1.128-.624 1.824-.744a7.919 7.919 0 0 1 3 .048zM71.376 301.272c.576.888.672 2.016.384 3.84-.384 2.256-.72 2.664-2.16 2.448-1.272-.192-1.56-.384-2.088-1.488-.384-.84-.456-1.44-.36-3.6.048-1.416.384-1.728 2.088-1.992 1.104-.168 1.656.024 2.136.792zm4.704 1.248c.816.408 1.488 1.32 2.064 2.736.384 1.008.384 1.032-.216 2.304l-.648 1.272-1.008-.216c-2.544-.552-2.904-.96-2.904-3.36 0-2.184.384-3.096 1.32-3.096.384 0 1.008.168 1.392.36zm-10.752 2.064c.072.888.264 1.848.432 2.136.168.288.192.6.072.696-.408.336-2.928 1.032-3.288.912-.552-.216-.72-1.728-.36-3.24.408-1.728.936-2.256 2.088-2.16l.888.072.168 1.584zm-5.184.504c.096.144.192 1.128.216 2.16.048 1.848.048 1.872-.576 2.04-.336.072-.744.24-.888.36-.312.24-1.392-.12-1.92-.624-.528-.552-.408-2.016.264-3.192.576-.96.696-1.032 1.68-1.032.576 0 1.128.12 1.224.288zm26.52 9.792c1.536.792 1.944 1.368 1.776 2.616-.096.888-.456 1.56-1.488 2.832-.84 1.056-1.872 1.512-3.336 1.512-1.152 0-1.368-.432-1.056-2.16.144-.792.24-2.184.216-3.048-.048-1.392 0-1.632.48-2.04.792-.624 1.752-.528 3.408.288zm189.312 21.312c-.432 2.592-.936 2.232-.936-.648 0-1.848.144-2.136.768-1.512.408.408.432.576.168 2.16zm-7.272 18.24c.72.384 2.016 1.92 2.016 2.376 0 .192.36.792.816 1.296.456.504.96 1.344 1.08 1.872.144.552.384 1.44.528 1.992.36 1.344.552 4.32.36 5.112-.192.768-2.712 3.216-3.312 3.24-.216 0-.552.216-.72.456-.312.432-1.368.624-2.952.528-.432-.048-.408-.096.168-.528.528-.384.624-.576.432-.936-.12-.24-.552-.504-.96-.6a1.513 1.513 0 0 1-1.08-.864c-.216-.384-.456-.696-.576-.696-.456 0-2.064-1.872-2.592-3.048-.936-2.016-.672-5.136.576-6.576.168-.192.312-.504.312-.672 0-.168.432-.792.96-1.392.528-.6.96-1.176.96-1.272 0-.096.336-.336.72-.528.792-.384 2.352-.264 3.264.24zm-31.68-294.768c-.48.456-.48 1.512-.048 2.544.192.432.576 1.296.84 1.92.288.624.504 1.224.504 1.344 0 .384 1.344 1.464 2.328 1.848 1.2.48 2.304.312 2.184-.312-.048-.216-.6-.672-1.224-1.008-1.08-.576-1.464-.984-2.112-2.4-.744-1.632-.936-2.232-.936-2.88 0-.648-.528-1.44-.96-1.44-.12 0-.384.168-.576.384zm-3.288 2.52c-.456.456-.504.696-.36 1.848.096.72.336 1.584.576 1.944.24.336.552.912.696 1.272.24.528 1.2 1.296 3.408 2.712.216.144.696.456 1.056.696.696.456 1.104.504 4.728.36 1.968-.072 2.88.24 2.88.96 0 .24.168.768.36 1.128.192.384.36.888.36 1.128 0 .264.168.816.384 1.248.288.648.312.984.12 1.728-.408 1.488-.336 1.992.288 1.968.72 0 1.632-1.224 1.776-2.376.192-1.344-.36-4.512-.96-5.568-.504-.912-1.392-1.44-3.48-2.112-.84-.264-1.248-.264-2.112-.048-.576.168-1.392.288-1.824.288-.888 0-2.88-.936-4.056-1.896-1.056-.888-2.472-3.648-2.28-4.464a.942.942 0 0 0-.24-.936c-.48-.504-.72-.48-1.32.12zm14.904 3.936c-.456.552-.024 1.176.912 1.272 1.272.12 1.824.984 2.448 3.648.72 3.216.624 5.64-.312 7.224-.792 1.32-.792 1.44-.144 1.872.456.264.6.24 1.2-.192.528-.384.696-.432.696-.192 0 .192-.168.48-.384.648-.816.696.12 2.352 1.032 1.776.888-.552 2.496-5.616 2.472-7.776-.024-1.44-.648-3.912-1.104-4.248-.216-.168-.648-.24-.936-.168-.456.12-.624-.096-1.272-1.584-.624-1.392-.888-1.752-1.584-2.04-1.44-.6-2.64-.696-3.024-.24zm45.528 7.728c-.384.36-.096 1.008.744 1.68.984.792 2.208 3 2.208 3.984 0 .336.168 1.344.384 2.256.384 1.656.36 2.64-.12 5.184-.192.984-.192 1.512-.024 1.848.312.6 1.392.648 1.584.048.096-.216.36-.84.6-1.368.528-1.128.6-.624.192 1.368-.528 2.472-1.536 5.112-2.304 6-.48.552-.024 1.392.768 1.392.768 0 1.392-.864 2.304-3.192.816-2.064 1.104-3.336 1.344-5.88l.12-1.536-1.056-.984c-1.056-.984-1.08-1.056-1.224-2.808-.264-3.288-1.944-6.744-3.744-7.68-1.008-.504-1.512-.6-1.776-.312zm-75.504.696c-.624.792-.648 1.92-.048 3.816.744 2.4.984 2.784 1.68 2.712.72-.072.96-.888.528-1.728-.48-.96-.696-2.496-.48-3.648.336-1.776-.672-2.448-1.68-1.152zm39.288.984c0 .24-.024.6 0 .792.096 1.08-1.296 6.048-1.968 7.056-.504.792-.6 1.776-.192 1.944 1.032.384 1.872-.648 2.856-3.6 1.464-4.344 1.536-5.136.504-6.12-.648-.6-1.128-.624-1.2-.072zm9.984 2.112c-.096.24-.048.768.096 1.2.792 2.16 1.248 4.464 1.248 6.432 0 1.92-.072 2.232-.768 3.576-.432.816-1.08 1.776-1.44 2.136-1.056 1.032-.816 1.896.528 1.896.552 0 2.064-1.68 2.568-2.832.192-.48.528-1.2.72-1.56.576-1.128.672-4.008.192-6.12-.984-4.368-1.128-4.68-2.328-4.968-.504-.12-.696-.072-.816.24zm-52.344 1.368c-.144.168-.312.48-.408.672-.096.192-.312.624-.504.96-.456.768-.456 2.856 0 3.456.192.264.36.648.36.864 0 .192.264.768.6 1.272.504.744.768.888 1.44.888.432 0 .864-.096.936-.216.072-.12-.192-.816-.576-1.536-.888-1.68-1.128-3.528-.648-4.872.24-.648.288-1.104.12-1.368-.264-.48-.984-.528-1.32-.12zm45.336 2.28c-.12.24-.288.864-.36 1.416-.264 1.656-.936 3.504-1.8 4.848-.984 1.584-.936 2.064.24 2.16.816.072.912 0 1.728-1.344.48-.792.864-1.584.864-1.752 0-.192.144-.768.336-1.296.528-1.56.744-3.984.36-4.224-.528-.336-1.152-.24-1.368.192zM237.36 85.68c-1.08 1.08-1.584 3.72-.72 3.72.264 0 .36-.312.36-1.296 0-.936.096-1.344.36-1.416.696-.24 1.296-1.488.72-1.488-.12 0-.456.216-.72.48zm52.44 6.72c-.192.6.024.96.6.96.48 0 .768-.528.576-1.08-.216-.528-1.008-.432-1.176.12zm-8.952 5.328a18.6 18.6 0 0 1-1.344 1.368 60.377 60.377 0 0 0-2.328 2.112c-1.32 1.2-2.496 2.016-3.912 2.688-1.104.552-2.16.984-2.352.984-.168 0-1.44.384-2.832.864-1.392.456-3 .96-3.6 1.08-.6.12-1.512.384-2.04.552-.528.192-2.088.48-3.48.624-1.368.144-2.712.384-2.952.504-.24.144-1.392.288-2.544.312-1.176.048-2.232.144-2.352.216-.144.096-.6.048-1.056-.072-.456-.12-2.424-.312-4.416-.456-3.816-.24-5.712-.72-7.176-1.8-.408-.312-1.344-.744-2.064-.984-2.424-.816-6.456-2.736-7.44-3.576-1.536-1.32-3.384-1.704-3.552-.768-.12.552 2.208 2.808 3.36 3.264.432.192 1.704.84 2.832 1.464 1.128.6 2.376 1.2 2.76 1.272.408.096 1.536.6 2.544 1.104 4.152 2.136 6.744 2.664 12.528 2.64 3.864-.048 4.752-.024 4.992.144.216.12 3.864-.72 5.88-1.368.792-.264 2.52-.648 3.816-.84 1.296-.192 2.856-.576 3.456-.84.6-.264 1.8-.744 2.664-1.08.864-.336 1.728-.696 1.92-.792.192-.12.96-.384 1.704-.576.744-.216 1.488-.576 1.656-.792.192-.192.648-.528 1.056-.744 1.896-.984 6.624-5.544 6.624-6.408 0-1.44-1.128-1.488-2.352-.096zm-6.408 27.312c-1.368.144-4.2 1.272-4.2 1.68 0 .096-.768.696-1.68 1.32-.936.624-2.016 1.512-2.424 1.968-.96 1.128-1.776 2.808-1.56 3.312.216.624 1.584.288 2.184-.504.768-1.032 3.888-3.984 4.992-4.704 1.608-1.08 3.312-1.464 5.664-1.32 2.4.144 3.216-.072 3.096-.84-.048-.36-.312-.576-.792-.696-1.176-.264-3.72-.384-5.28-.216zm-41.112 1.008c-.672.672-.288 1.08 1.944 2.112 1.2.576 2.616 1.224 3.12 1.416.576.24 1.176.768 1.584 1.344.696 1.032 1.272 1.296 1.848.816.936-.768-.456-3.024-2.256-3.696-1.776-.672-3.24-1.368-3.864-1.848-.648-.504-1.944-.576-2.376-.144zm57.864.744c-1.056.888-3.336 1.872-4.944 2.112-.816.12-1.824.384-2.256.576-.408.192-.984.36-1.296.36-.696 0-2.88.384-5.4.96-2.304.504-4.176 1.704-4.896 3.144a23.798 23.798 0 0 1-1.08 1.8c-.48.72-.6 1.176-.6 2.424 0 1.2.072 1.56.408 1.68.216.096.456.024.504-.12.144-.456.816-.336 1.44.24.504.48.792.552 2.568.504 1.224-.024 2.688-.24 3.816-.576 1.92-.552 1.968-.576 4.512-3.456.696-.792 2.352-2.472 3.672-3.72a199.94 199.94 0 0 0 2.52-2.424c.072-.096.672-.432 1.32-.768 1.2-.6 2.52-1.656 2.52-2.016 0-.408-.384-.768-1.032-1.008-.912-.36-.984-.336-1.776.288zm-5.256 4.776c-1.296 1.488-2.736 2.904-2.832 2.808-.048-.048-.144-.696-.192-1.416l-.072-1.32 1.44-.264c2.136-.408 2.184-.408 1.656.192zm-5.328.84c.672.6.6 3.144-.096 4.032-.792 1.032-3.648 2.04-4.752 1.68-.24-.072-.768-.72-1.176-1.44-.912-1.632-.768-2.088 1.08-3.36 1.872-1.296 4.08-1.704 4.944-.912zm-7.368 5.52c.12.456.048.552-.336.552-.648 0-.816-.36-.504-.984.312-.552.576-.408.84.432zm2.712-4.2c-1.2.432-.6 2.352.72 2.352 1.32 0 2.64-2.088 1.584-2.496-.528-.216-1.536-.144-2.304.144zm-47.712-3.432c-.192.12-1.176.336-2.16.504-1.008.168-2.256.552-2.832.888-.576.336-1.392.624-1.8.672-.432.048-1.2.216-1.728.336-.528.144-1.296.264-1.728.264-.576 0-1.032.264-1.872 1.056-.6.576-1.08 1.2-1.08 1.392 0 .888 1.416 1.224 2.304.552.576-.432 1.32-.456 2.304-.024.432.192 1.248.528 1.8.744.552.24 1.32.744 1.68 1.128.384.384 1.272 1.008 1.992 1.416.72.384 1.584.864 1.92 1.056 1.992 1.08 3.024 1.32 5.808 1.44 2.736.096 2.808.072 2.88-.432.048-.36.384-.624 1.056-.888.528-.192 1.56-.768 2.304-1.248.744-.504 1.896-1.032 2.568-1.176 1.488-.312 1.992-.96 1.32-1.68-.216-.24-.72-.456-1.08-.456-.528 0-.696-.144-.816-.696-.336-1.608-3.84-4.224-5.904-4.44-.576-.048-1.8-.168-2.736-.264-.912-.072-2.16-.192-2.76-.24-.6-.048-1.248-.024-1.44.096zm7.92 2.688c.72.336 1.656.912 2.064 1.248l.744.624-.312 1.248c-.432 1.632-1.2 2.208-4.008 3.096-1.536.48-4.824.672-5.064.264-.072-.096-.816-.528-1.632-.936-1.968-.96-5.568-3.48-5.664-3.936-.096-.456.96-.864 2.76-1.08l1.272-.144v.984c0 .552.168 1.344.384 1.776.432.936 2.568 2.592 3.336 2.592.864 0 2.328-.72 2.448-1.2.072-.24.432-.576.84-.744 1.008-.408 1.392-.864 1.392-1.68 0-.936-1.704-2.232-2.64-2.016-1.32.312-1.728 1.728-.816 2.784.6.672.384.936-.696.936-1.296 0-2.064-.72-2.256-2.088-.096-.696 0-1.056.384-1.56.624-.792.984-.864 3.864-.816 1.872.048 2.52.168 3.6.648zm52.944 4.08c-2.352.336-4.512 1.056-6.36 2.112-.96.528-1.824.984-1.944.984-.168 0-2.4 1.92-5.112 4.368-.504.456-2.112 1.44-3.6 2.184-2.616 1.344-3.384 1.968-4.584 3.816-.576.864-.984.84-1.344-.048-.168-.408-.816-1.152-1.464-1.68-1.104-.936-1.2-.984-2.76-.936-1.464.048-1.68 0-2.136-.552-.744-.864-2.904-1.224-4.44-.768-1.272.384-1.512.528-1.872 1.176-.24.408-.264.312-.168-.6.072-.6.288-2.064.504-3.288l.408-2.208-.552-.816c-.312-.456-1.08-1.104-1.704-1.464-.96-.528-1.248-.6-1.656-.384-.816.432-.504 1.224.696 1.896l1.056.576-.144 1.824c-.072 1.008-.36 2.496-.648 3.312-.456 1.344-.48 1.536-.168 2.16.288.528.312.96.144 1.872-.12.672-.264 1.824-.336 2.568-.12 1.56-.36 2.16-1.128 2.688-.744.528-1.464.48-1.992-.096-.552-.624-.792-3.072-.384-4.032.312-.744 1.584-1.488 2.568-1.488.696 0 1.008-.576.576-1.08-.432-.504-1.752-.456-3 .144-1.344.648-2.088.48-2.76-.6-.432-.72-1.008-1.296-2.592-2.592-1.344-1.056-4.104-2.04-4.944-1.728-.936.36-.144 1.536 1.296 1.896.864.216 3.408 2.136 3.768 2.88.192.336.432.6.528.6.384 0 1.32 1.752 1.704 3.144.36 1.344.384 3.072.12 6.912-.096 1.512-.072 2.064.168 2.232.912.576 1.536-.288 1.968-2.736.216-1.296.384-1.728.648-1.68 1.8.456 3.168.048 4.512-1.296l.552-.576.672.48c1.464 1.056 5.448.24 7.08-1.44.864-.888.936-1.08 1.032-2.568.12-1.848.336-2.232 1.224-2.232.768.024 2.184 1.248 2.184 1.92 0 .648-1.032 1.608-1.92 1.8-.384.072-.816.288-.936.456-.624.744.504 1.512 1.776 1.2.504-.12.6-.072.6.36 0 .264-.216.96-.48 1.512a15.495 15.495 0 0 0-.72 1.992c-.408 1.632-.504 1.68-1.824 1.056-1.704-.792-2.592-.72-4.296.336-.792.48-1.608.888-1.824.888-.216 0-.984-.216-1.728-.456-1.176-.408-1.464-.432-2.496-.168-1.656.432-2.112.744-2.736 1.752-.312.504-.696 1.056-.864 1.224-.168.168-.312.408-.312.504 0 .096-.216.432-.48.744s-.48.672-.48.84c0 .336-1.416 3.048-1.68 3.24-.096.072-.24.336-.336.624-.096.288-.528.864-1.008 1.272-.936.864-1.008 1.56-.216 2.088 1.104.72 2.76-1.128 4.752-5.256 1.416-3 1.968-3.384 2.952-2.184.576.72.744 1.416.36 1.632-.12.072-.504.72-.84 1.464-.672 1.344-.864 1.464-2.424 1.608-.648.072-.72.144-.648.768.072.456-.096.864-.504 1.32-1.176 1.248-.984 2.064.648 2.592.408.12.744.336.792.48.096.264-1.584 1.176-2.568 1.392-1.08.216-2.352 1.68-2.88 3.264-.552 1.584-.48 2.568.192 3.168.288.24.576.288.936.144.456-.168.528-.36.504-1.272-.048-.696.072-1.224.336-1.512.192-.24.456-.672.528-.936.192-.6 2.16-1.896 3.432-2.232.864-.24 1.872-.144 2.352.216.72.576 2.928.96 4.536.816 1.416-.144 2.088-.36 3.984-1.368l2.28-1.176 1.896.144c1.632.144 2.04.264 2.832.888.504.408.912.888.912 1.08 0 .456 1.056 1.104 1.512.912.96-.36.672-1.488-.768-3.048-.912-1.008-1.728-1.344-3.648-1.584-.936-.12-1.824-.336-1.944-.456-.144-.144-.072-.672.216-1.464.36-1.056.504-1.224.912-1.08 1.44.456 1.92.384 2.352-.36.24-.408.528-.744.624-.744.12 0 .264-.216.336-.504.168-.6-.576-1.416-1.248-1.416-.264 0-.552-.12-.648-.288-.456-.744 0-7.8.624-9.552.744-2.088 1.608-3.792 2.328-4.632.432-.48.792-1.008.792-1.128 0-.528 1.92-2.304 3.84-3.552a55.027 55.027 0 0 0 2.64-1.752c.336-.24.936-.624 1.32-.84.408-.216 1.632-1.272 2.76-2.376 2.736-2.64 6.024-4.752 7.92-5.04.456-.072 1.248-.24 1.728-.384.48-.12 1.872-.288 3.096-.336 2.328-.12 2.712-.264 2.568-.984-.144-.768-2.304-.984-5.328-.552zm-31.152 12.456c.552.528 1.152.96 1.344.96.672 0 .576 1.848-.168 2.976-.504.768-1.968 1.416-3.48 1.536-1.152.096-1.344.048-1.968-.552-1.632-1.56-1.056-3.72 1.44-5.472.936-.648 1.704-.504 2.832.552zm1.728 12.696c0 .792.336 1.152 1.2 1.272.576.072.6.12.624 2.112.024 1.128.12 2.424.216 2.928.144.72.096.912-.312 1.128-.864.456-1.488.312-1.776-.408-.384-.936-.312-2.304.192-3.792.456-1.344.384-1.608-.528-1.872-.408-.12-.768.096-1.656 1.032-.768.792-1.44 1.248-2.16 1.464-1.2.336-1.824.192-3.096-.744-.528-.384-1.104-.696-1.272-.696-.432 0-.384-.744.072-1.416.36-.504.504-.552 1.632-.384 2.376.36 3.384.24 4.632-.504 1.992-1.2 2.232-1.224 2.232-.12zm-1.968 6.696c-.072.744-.168.84-1.512 1.296-.792.264-1.464.576-1.512.696-.144.384-1.272.24-1.992-.288-.888-.624-.912-1.464-.072-2.304.528-.528.768-.6 1.608-.48.552.072 1.44-.024 1.968-.192.816-.24 1.008-.24 1.272.096.168.216.288.744.24 1.176zm2.112 3.072c.456.192.816.432.816.552 0 .384-1.8 2.52-2.664 3.168-1.92 1.44-4.848 1.536-6.96.216-1.536-.936-2.856-2.208-2.856-2.712 0-.456.792-1.032 1.752-1.272.792-.192 2.544.432 3.168 1.104.672.744 1.44.6 2.496-.456 1.272-1.272 2.28-1.416 4.248-.6zm-112.776 36.024c-.36.336-.144 1.248.576 2.304.96 1.464 2.136 1.824 2.136.648 0-.816-1.176-2.808-1.728-2.976-.696-.168-.792-.168-.984.024zm152.52 4.656c-.312.12-.816.144-1.104.072-.432-.096-.6-.024-.696.36-.24.984 1.608 1.368 2.496.48.792-.792.36-1.344-.696-.912zm-4.056.384c-.192.072-.312.504-.312 1.056 0 .792.096.96.6 1.08.84.216 1.32-.048 1.32-.696 0-.912-.864-1.704-1.608-1.44zm-104.832 1.656c-.216.216-.336.552-.264.72.072.192.192.888.288 1.584.12 1.128.888 3.36 1.896 5.592.168.384.456 1.248.624 1.92.168.648.552 1.536.864 1.944.288.408.552.84.552.96 0 .744 3.576 3.576 5.16 4.08.648.216 1.296.48 1.44.6.12.12.48.216.792.216.312 0 .768.12 1.032.264 1.104.576 3.36.84 9.576 1.08 3.912.144 4.296.12 5.616-.36.792-.264 1.968-.576 2.616-.648 1.656-.216 3.84-1.152 4.176-1.8.816-1.56-1.2-1.776-4.152-.432-.528.264-1.2.456-1.512.456-.288 0-.864.192-1.296.408-1.416.744-11.256.432-13.896-.432-.768-.24-1.56-.456-1.752-.456-.96 0-3.696-1.368-4.992-2.472-1.272-1.104-2.568-3.024-2.568-3.84 0-.168-.216-.72-.48-1.248s-.48-1.056-.48-1.176c0-.264-.864-2.616-1.224-3.312-.12-.216-.264-.864-.336-1.44-.264-1.8-.36-2.088-.816-2.352-.36-.168-.576-.144-.864.144zm14.592 1.104c-.552.72-.552 1.176.048 1.776 1.296 1.296 2.544-.168 1.296-1.488-.6-.648-1.008-.72-1.344-.288zm71.016 4.224c-.768.12-1.104.864-.624 1.344.192.216.504.384.648.384 1.224.048 6.192.48 6.84.624.744.144.768.144.768-.672 0-.552-.192-1.008-.552-1.368-.528-.48-.768-.504-3.552-.456-1.632.024-3.216.096-3.528.144zm-21.048 2.928c-.528.12-1.464.216-2.088.216-.672.024-1.488.216-2.016.528-.6.312-.936.408-1.056.24-.096-.168-.36-.024-.744.36-.504.552-.696.6-1.68.48-.96-.12-1.152-.072-1.608.456-.288.336-.744.6-1.032.6-.264 0-1.32.288-2.328.624a41.93 41.93 0 0 1-3.408.96c-.864.216-1.92.576-2.352.84-.432.24-1.08.456-1.392.456-.672 0-3.912 1.032-4.944 1.584-.336.192-.768.336-.96.336-.192 0-.84.312-1.464.72-.624.384-1.296.72-1.464.72-.168 0-1.44.36-2.856.816-1.392.456-3 .888-3.576.984-.576.096-1.992.408-3.192.72-3.264.816-9.24 1.56-12.768 1.56-.816 0-2.04.12-2.76.264-.696.144-1.512.312-1.8.36-.672.12-.744 1.056-.12 1.608.336.288.624.336 1.344.168.504-.096 2.232-.264 3.84-.36a69.257 69.257 0 0 0 5.616-.624c1.512-.24 3.12-.456 3.576-.456.84 0 6.48-1.272 9.672-2.208 2.856-.816 6.768-2.088 7.056-2.304.312-.216 2.328-.888 5.904-1.968a79.63 79.63 0 0 0 3-.936c1.08-.432 2.232-.744 2.712-.744.288 0 .72-.096.96-.216.456-.264 3.192-1.056 4.944-1.464.648-.144 1.464-.456 1.8-.696.648-.432 3.12-1.08 5.664-1.488 2.304-.36 2.808-.624 2.712-1.512-.072-.696-.12-.744-1.152-.792-.6 0-1.512.072-2.04.168zm3.6 11.808c-2.64.12-5.016.312-5.28.432-.264.12-1.296.336-2.28.48-.984.144-2.544.384-3.48.504-.912.144-2.424.408-3.336.6-.912.192-2.448.336-3.432.336s-1.968.096-2.208.216c-.216.12-1.032.288-1.776.36-.744.048-1.44.168-1.56.216-.096.072-.84.216-1.608.288-.792.096-2.232.384-3.216.624-.984.264-2.016.456-2.28.456-.264 0-2.328.48-4.584 1.056-4.728 1.224-6.552 1.584-8.112 1.584-.672 0-1.512.192-2.088.504-.576.312-1.728.6-2.712.696-.96.096-2.064.336-2.496.552-.408.216-1.44.504-2.28.624-1.512.216-3.912.96-5.952 1.872-.6.264-1.704.72-2.472 1.032-.744.288-1.44.624-1.488.72-.072.12-1.056.672-2.184 1.248-2.232 1.104-2.568 1.488-2.448 2.664.096 1.032.72 1.104 1.728.216.768-.672 1.32-.96 5.184-2.736 3.288-1.512 5.856-2.496 7.104-2.736.504-.096 1.368-.36 1.896-.6.528-.24 1.368-.456 1.848-.456s.96-.12 1.032-.24c.072-.144.408-.24.72-.24s1.8-.312 3.312-.696c2.616-.696 7.632-1.752 9.648-2.064.528-.072 1.608-.336 2.4-.576 1.416-.432 4.272-.96 7.872-1.44 1.008-.144 2.688-.384 3.72-.528 1.008-.12 2.4-.36 3.048-.48.672-.144 2.448-.384 3.96-.576 1.512-.192 3.672-.456 4.8-.6 1.128-.12 2.472-.36 3-.48.528-.144 1.824-.312 2.88-.36 1.056-.072 2.904-.216 4.104-.312 1.224-.096 2.616-.096 3.12 0 1.464.264 3.168 0 3.48-.576.216-.384.144-.552-.408-1.032-.552-.48-1.776-.912-2.232-.792-.072 0-2.304.12-4.944.24zm2.52 53.592c-.336.192-.984.336-1.464.36-.48 0-1.488.264-2.232.6-.744.336-1.608.6-1.944.6-.312 0-.72.144-.888.312-.168.192-.696.408-1.152.48-.456.096-1.8.648-3 1.224-1.176.576-2.808 1.224-3.6 1.464-2.208.648-3.216 1.104-4.296 1.968-.528.432-1.2.792-1.488.792-.288 0-.912.288-1.416.624-.504.336-1.344.792-1.896.984-.528.216-1.056.48-1.128.6-.072.12-.576.432-1.128.744-1.2.648-3.576 2.232-4.296 2.88-.672.6-.696 1.272-.072 1.608.552.288 1.512-.096 2.256-.936.264-.288.6-.504.792-.504.168 0 .504-.192.744-.432.24-.216 1.248-.816 2.232-1.32.96-.48 2.376-1.272 3.096-1.728.72-.456 1.704-.936 2.16-1.104.456-.144 1.008-.408 1.2-.576.192-.144.912-.48 1.56-.72a20.57 20.57 0 0 0 2.184-.96c.528-.312 1.416-.624 1.968-.72.552-.096 1.248-.36 1.536-.6.312-.24 1.104-.6 1.776-.792.648-.192 1.728-.576 2.4-.816 1.632-.672 2.808-1.032 3.312-1.032.216 0 .672-.192 1.008-.408.336-.216 1.224-.48 1.944-.576 1.536-.216 2.28-.768 2.184-1.632-.072-.528-.216-.624-.912-.672-.456-.048-1.104.096-1.44.288zm1.632 42.624c-.648.36-.6 2.064.048 2.256.528.168 1.08-.168 1.464-.888.192-.336.144-.624-.144-1.056-.408-.624-.72-.696-1.368-.312zM467.136 94.176c-.192.528.072.792.432.432.216-.216.216-.36 0-.576-.216-.216-.312-.168-.432.144zM64.488 129.864c-.36.216-.432.432-.288 1.152.216 1.128.504 1.464 1.32 1.464.816 0 .936-.288.744-1.68-.12-.936-.216-1.08-.744-1.128-.336-.048-.792.048-1.032.192zm19.368.816c-.264.648.12 1.56.648 1.56.6 0 .84-.6.504-1.344-.312-.648-.96-.768-1.152-.216zm340.8 108.72c-.384.6-.384.624.552 1.752.768.888 1.368 1.296 2.856 1.896 3.696 1.488 7.416 1.656 12.456.576 1.248-.288 2.832-1.368 2.952-2.04.192-.984-1.248-1.464-2.256-.768-1.032.744-3.288 1.104-5.952.984-1.512-.072-2.76-.024-3.024.12-.312.168-.504.168-.6 0-.072-.12-.504-.24-.96-.24-.456 0-.888-.12-.96-.24-.072-.144-.432-.24-.768-.24-.816 0-1.776-.624-2.352-1.512-.624-1.008-1.392-1.104-1.944-.288zm-133.92 139.896c-.192 1.08.048 2.04.528 2.232.576.216.84-.384.768-1.728-.072-1.032-.144-1.2-.6-1.272-.432-.072-.552.072-.696.768z"/>
</svg>
