<?xml version="1.0" encoding="utf-8"?>
<svg xmlns="http://www.w3.org/2000/svg" version="1.0" viewBox="0 0 410.88 369.12">
	<title>Line drawing of a newly born male baby facing left, being held around the chest by two hands with only the forearms showing. Part of the baby's umbilical cord is still attached.</title>
	<path d="M94.56 1.464a22.019 22.019 0 0 0-3.792 1.32c-.696.312-1.584.576-1.992.576-.408 0-1.344.288-2.088.624-2.544 1.152-2.808 1.272-4.296 1.776-.816.288-1.632.672-1.776.864-.144.192-.36.336-.456.336-.12 0-1.224.48-2.472 1.08-1.272.6-2.448 1.08-2.64 1.08-.192 0-.816.36-1.392.792-.576.456-1.368 1.008-1.776 1.224-.384.216-1.416.936-2.28 1.584-.864.672-1.968 1.392-2.448 1.608-.504.216-.912.48-.912.576 0 .12-.696.672-1.56 1.2-.864.552-1.56 1.104-1.56 1.2 0 .12-.36.408-.816.624-.84.456-3.432 2.64-4.32 3.672-.264.336-.936.984-1.44 1.44-1.8 1.608-2.472 2.328-5.424 5.76a117.591 117.591 0 0 1-5.16 5.616c-1.752 1.776-1.992 2.112-4.536 5.904-1.104 1.656-2.184 3.144-2.4 3.336-.216.168-.384.432-.384.576 0 .12-.72 1.488-1.608 3.024-.864 1.536-1.92 3.384-2.304 4.104-.384.72-.792 1.416-.888 1.56-.072.12-.288.696-.48 1.272-.168.552-.456 1.128-.624 1.272-.168.144-.504.816-.72 1.488-.216.696-.528 1.464-.696 1.728-.168.264-.648 1.392-1.08 2.52a137.992 137.992 0 0 1-1.224 3.072c-.24.552-.456 1.248-.456 1.512s-.12.72-.288 1.008c-.336.624-.576 1.728-1.008 4.656-.192 1.2-.456 2.4-.6 2.664-.144.288-.264.912-.264 1.416 0 .504-.168 1.776-.36 2.832-.408 2.304-.456 4.752-.096 6.288 1.104 4.752 1.92 6.336 4.848 9.36 1.872 1.92 2.496 2.4 4.584 3.456 2.808 1.416 5.784 3.528 6.936 4.896.432.528.936 1.488 1.128 2.16.552 2.112 3 5.952 4.368 6.912.312.216 1.416 1.2 2.448 2.184 1.056 1.008 2.04 1.824 2.184 1.824.144 0 .528.264.84.624.912.96 3.528 2.208 5.88 2.856 1.2.312 2.472.696 2.856.816 1.056.408 3.48.288 5.064-.24.792-.264 2.184-.576 3.12-.72.912-.12 2.064-.36 2.544-.504.792-.216 1.008-.168 2.112.432 1.008.576 1.296.888 1.728 1.944.576 1.392.504 1.896-.312 2.208-.312.12-1.272.792-2.16 1.488-.888.72-2.544 1.992-3.696 2.856-1.128.864-2.472 1.944-2.952 2.4-.48.456-1.776 1.68-2.856 2.688-1.104 1.056-2.232 1.92-2.616 1.992-2.352.504-3.792.912-4.2 1.176-2.904 2.04-15.12 14.208-18.144 18.072-1.056 1.344-2.448 3.576-2.448 3.912 0 .144-.336.6-.744 1.032-.408.408-.96 1.176-1.2 1.656s-.552.96-.696 1.032c-.144.072-.456.552-.72 1.032-.288.48-.816 1.368-1.2 1.968-.384.6-.816 1.344-.96 1.656-.144.312-.576 1.056-.96 1.632-.384.576-.792 1.344-.864 1.704-.096.36-.288.816-.456 1.008-.168.192-.528 1.008-.816 1.8-.312.792-.744 1.752-.96 2.16-.24.384-.504 1.104-.6 1.56-.192.984-1.224 3.672-1.824 4.68-.24.408-.432 1.224-.432 1.872 0 .624-.12 1.272-.24 1.44-.144.168-.384.84-.552 1.488-.168.672-.456 1.344-.624 1.512-.168.168-.264.552-.168.864.072.288 0 1.008-.144 1.584-.144.6-.36 1.992-.48 3.12a47.651 47.651 0 0 1-.576 4.08l-.384 2.04-1.656 1.56c-1.896 1.8-3.672 4.44-4.368 6.408-.24.744-.552 1.464-.672 1.608-.192.264-.648 2.376-.96 4.464l-.144 1.08-2.4.024c-4.872.048-6.696 1.056-8.664 4.728-.672 1.296-.888 1.992-.984 3.36-.168 2.16.312 3.528 1.2 3.528.816 0 1.248-.432 2.04-1.92.864-1.656 2.52-2.88 3.912-2.88 1.152 0 1.296.24.696 1.272-.264.456-.648 1.584-.84 2.52-.384 1.824-.216 3.528.48 4.92.192.408.36.888.36 1.104.024.48.72 1.344 1.248 1.536.24.072.72.048 1.104-.096.936-.336 1.344-1.56 1.056-3.288-.384-2.304.384-4.392 2.256-6.096 1.32-1.2 1.632-1.08 1.68.648.048 1.872.504 4.056 1.104 5.256.264.504 1.008 1.464 1.632 2.088.96.96 1.32 1.176 2.04 1.176 1.104 0 1.584-.816 1.08-1.872-.168-.36-.456-1.488-.648-2.544-.528-3.096.264-8.784 1.128-7.92.12.12.288 1.08.384 2.136.168 2.184.528 2.928 1.44 3.048.624.072.624.096.672 2.232.024 1.656.12 2.352.456 2.832.504.768 1.464 1.2 2.112 1.008 1.464-.48 3.336-3.48 3.336-5.352 0-.912.024-.96.96-1.08 1.08-.144 2.304-.912 2.52-1.632.168-.48-.552-2.112-1.272-2.952-.336-.336-.624-.408-1.416-.288-.576.072-1.032.072-1.032.024 0-.072.528-1.224 1.2-2.592 1.176-2.448 1.512-3.696 1.92-7.368.216-1.968.072-4.992-.288-5.424-.216-.312-.024-1.056.312-1.056s6.288-6.024 7.464-7.56c2.088-2.736 4.128-6.48 4.608-8.4.096-.384.288-.84.408-.984.12-.144.864-1.56 1.632-3.12 1.968-3.96 4.344-7.08 6.84-8.928 1.008-.744 2.64-2.136 3.864-3.288.552-.528 1.704-1.608 2.544-2.424.84-.792 2.088-2.088 2.76-2.88 2.88-3.336 3.936-4.656 3.936-4.92 0-.144.576-1.488 1.296-2.952.72-1.464 1.44-3.168 1.608-3.816.336-1.344.576-1.56 1.176-1.008.624.552 1.32.312.96-.336-.192-.408-.144-.504.552-.72.408-.12 1.632-.312 2.688-.384 2.04-.168 2.088-.168 5.76-1.296 1.32-.408 2.952-.888 3.6-1.08 1.08-.312 3.072-1.032 4.32-1.56.264-.12 1.032-.408 1.68-.624 1.104-.384 1.944-.816 5.64-2.832.72-.408 1.656-.984 2.064-1.272.384-.312 1.224-.792 1.848-1.056.624-.288 1.272-.72 1.416-.96.168-.24.84-.84 1.488-1.296 3.816-2.712 5.016-3.144 8.28-2.952 3.024.144 4.824-.168 6.744-1.176.84-.456 1.608-.816 1.704-.816.096 0-.312.936-.888 2.088-.576 1.176-1.056 2.28-1.056 2.472 0 .216-.096.48-.216.6-.192.24-1.776 5.088-2.976 9.24-.336 1.128-.672 2.568-.768 3.24-.072.648-.288 1.68-.48 2.28-.288.96-.408 1.896-.72 5.4a57.524 57.524 0 0 1-.312 2.448c-.144.816-.192 1.704-.12 1.992.072.288 0 .48-.168.48-.264 0-2.328 1.896-4.272 3.912-.48.528-1.056 1.272-1.272 1.68-.24.432-.696 1.296-1.032 1.944-.336.648-.624 1.32-.624 1.464 0 .168-.168.432-.36.6-.432.36-1.08 1.632-1.08 2.136-.024.216-.24.984-.504 1.704-.72 1.992-1.608 5.352-2.136 8.04-.456 2.472-1.032 6.96-1.008 8.04.048 3.576 0 5.136-.168 6.36-.12.792-.144 1.536-.072 1.656.072.12.168 3.264.192 6.96.048 3.72.192 9.312.36 12.456.144 3.144.216 6 .144 6.36-.072.36-.72 1.896-1.44 3.408s-1.512 3.36-1.776 4.08c-.552 1.536-1.416 5.112-1.632 6.816-.264 2.016-.648 8.064-.696 10.584l-.024 2.4-1.704.288c-3.672.6-4.824 1.248-6.672 3.672-1.392 1.824-1.752 2.52-2.448 4.872-1.08 3.576-1.008 6.888.144 6.888.552 0 .792-.672.696-2.112-.048-.624.048-1.512.192-1.968.144-.456.504-1.656.792-2.64.6-1.968 1.368-3.24 2.808-4.608 2.4-2.304 5.544-2.808 6.768-1.104.168.264.6.576.96.72.336.144.504.288.336.36-.144.048-.576.672-.912 1.344-.36.696-.696 1.296-.744 1.344-.024.048-.312-.192-.624-.528-.672-.744-.864-.792-2.712-.576-.984.12-1.776.408-2.496.888-.984.672-1.392 1.152-2.496 2.976-.264.408-.624.864-.84 1.008-.624.456-.552 3.384.072 3.84.576.432.648.36 1.464-1.944.36-1.056.912-2.136 1.224-2.4 1.392-1.248 2.232-1.824 2.928-1.944.408-.096.816-.264.888-.384.096-.12.24-.12.408.024.168.12.552.264.888.312.504.048.6.192.528.792-.048.384-.072 1.992-.072 3.528 0 2.688.024 2.856.744 4.104.864 1.536 1.152 1.824 1.944 1.896.576.072.576.024.72-2.256.144-2.04.312-2.688 1.2-4.8 1.512-3.6 2.328-4.752 3.312-4.752.24 0 1.224 1.8 1.224 2.256 0 .408 1.512 2.64 2.28 3.384.984.96 2.688 2.28 2.904 2.28.096 0 .408.216.672.456 1.32 1.248 2.616.672 2.904-1.248.24-1.512.024-1.968-1.2-2.472-1.248-.552-2.928-2.472-3.144-3.648-.096-.432-.096-2.04-.048-3.552.12-3.12.432-3.864 1.032-2.352 1.104 2.856 2.688 4.92 4.368 5.76 3.288 1.584 7.368.048 6-2.28-.552-.912-.528-1.104.192-1.416.456-.216.6-.456.6-1.08 0-1.368-1.08-1.824-2.112-.888-.672.624-1.32.6-2.544-.12-1.392-.816-1.944-1.464-2.544-2.976-.552-1.44-.384-1.968.432-1.224.264.264.576.48.672.48.096 0 .36.168.6.384.552.48 3.072.72 3.768.36.624-.336.696-1.2.192-2.136-.624-1.176-.864-3.264-.816-6.768.12-7.248 0-9.984-.528-11.52-.264-.768-.48-1.68-.48-1.968-.024-.312-.336-.984-.72-1.512-1.632-2.208-1.992-2.784-1.824-2.928.072-.096.288-.024.432.12.504.504 1.368.336 1.68-.288.36-.816.096-1.344-.672-1.344-.504 0-.6-.072-.432-.432.192-.384.216-1.416.072-3.168-.12-1.344.288-5.544.648-6.72.192-.6.336-1.344.336-1.68 0-.336.216-1.2.48-1.92s.456-1.656.48-2.064c0-.408.216-1.272.456-1.92.264-.648.768-2.16 1.128-3.336.36-1.2.744-2.256.864-2.376.096-.144.192-.432.192-.648 0-.24.432-1.344.96-2.472s.96-2.136.96-2.256c0-.12.216-.504.48-.84.264-.336.552-.96.624-1.416.096-.432.696-1.872 1.344-3.192 1.296-2.592 1.872-3.84 2.448-5.16a16.07 16.07 0 0 1 .72-1.44c.552-.96 1.848-5.04 2.784-8.88.096-.456.36-1.44.552-2.16.216-.72.456-1.728.552-2.232.216-1.224.48-1.32 1.368-.456 1.08 1.056 2.304 1.488 4.152 1.488 2.04 0 2.856-.408 4.56-2.232 1.344-1.464 2.088-2.76 2.376-4.08.072-.36.24-.648.36-.648s.72.6 1.32 1.344c.6.744 1.392 1.584 1.752 1.848.36.288 1.152.96 1.752 1.512.6.552 1.44 1.176 1.848 1.392.984.504.96.792 0 1.056-1.128.288-1.224 1.248-.216 1.968.624.432.744.672.744 1.536 0 1.776-1.8 3.96-4.152 5.088-.768.36-.96.384-1.512.096-1.704-.936-2.568-2.544-2.592-4.944 0-1.632 1.104-3.432 2.52-4.056 2.136-.96 1.68-2.856-.576-2.4-1.584.336-2.472 1.176-3.528 3.36-.552 1.176-1.08 1.992-1.224 1.92-.312-.192-.936.312-.936.744 0 .408.888.456 1.008.048.24-.672.624.144.72 1.536.192 2.4.648 3.504 1.992 4.944.936 1.008 1.416 1.344 2.16 1.464 2.136.36 4.128-.576 6.336-3.024.96-1.056 1.056-1.104 1.248-.672.096.264.48 1.224.84 2.16.984 2.568 1.248 2.976 2.448 3.744 1.872 1.176 4.584.936 6.24-.6l.576-.504.504.672c.648.864 1.848 2.088 2.472 2.568.264.192.984.744 1.632 1.2a76.928 76.928 0 0 1 1.944 1.488c.432.384.864.672.96.672.096 0 .696.384 1.32.84.624.456 1.248.84 1.344.84.12 0 .48.288.792.6.648.696.888.768 3.696.96l2.136.168-.144.624c-.096.36-.216 1.944-.288 3.552-.144 2.928.072 4.56 1.008 7.512.504 1.56.456 1.824-.192 1.368-.552-.408-1.8-.504-2.256-.192-.504.336-.84 1.248-.768 2.208.024.528 0 1.008-.072 1.056-.048.072-.912.648-1.896 1.32-.984.672-2.064 1.416-2.4 1.656-.336.24-1.632 1.128-2.88 1.968-1.248.816-2.544 1.752-2.88 2.064a13.29 13.29 0 0 1-1.56 1.104c-2.28 1.296-5.544 4.032-7.32 6.072-.216.264-1.704 1.944-3.312 3.72-2.592 2.904-4.848 5.904-4.848 6.456 0 .336-1.056.936-3 1.704-1.008.408-2.424 1.104-3.144 1.56-.72.456-1.392.84-1.512.84-.12 0-.576.288-.984.624-.408.36-1.152.864-1.68 1.152-2.448 1.32-2.904 1.632-3.912 2.688-.576.6-1.2 1.224-1.368 1.392-1.176 1.128-1.728 1.776-1.848 2.304-.072.336-.384 1.056-.696 1.608-.312.552-.696 1.728-.84 2.64a362.2 362.2 0 0 0-.48 3.072c-.12.792-.288 1.608-.36 1.8-.096.192-.192 2.184-.24 4.392-.072 3.456-.024 4.296.384 5.832.264.96.48 1.992.48 2.256 0 .6.84 2.424 1.728 3.744.36.552.864 1.584 1.128 2.28.792 2.256 1.944 6.72 2.136 8.256.048.528.192 1.08.312 1.224.144.168.312.864.384 1.56.072.72.408 1.704.72 2.184.288.504.552 1.032.552 1.2 0 .144.36.984.816 1.848.432.864.888 1.848.984 2.184.096.336.528 1.128.984 1.8.432.648.888 1.464 1.032 1.8.12.336.72 1.344 1.296 2.28.6.912 1.488 2.352 1.992 3.192.528.84 1.296 2.04 1.728 2.64.408.624.912 1.392 1.056 1.728.168.336.672 1.056 1.152 1.584.456.552 1.488 1.944 2.28 3.072.768 1.128 1.824 2.472 2.328 2.952.504.48.912.984.912 1.104 0 .096.528.72 1.176 1.344.648.648 1.344 1.536 1.536 1.992.192.456.624 1.104.936 1.416 1.056 1.056 3.072 3.528 3.072 3.768 0 .144.312.48.72.768.816.576.912.984.336 1.464-.216.192-.672.768-1.008 1.296-.696 1.128-1.176 1.512-2.736 2.184-.648.264-1.512.816-1.944 1.2-.408.408-1.248 1.032-1.8 1.392-1.536.96-2.424 1.824-3.072 2.928-.312.552-.792 1.176-1.056 1.416s-.48.552-.48.72c0 .984-1.68 3.312-2.88 3.984-.48.288-1.032.72-1.224.984-.192.24-.888 1.2-1.584 2.112-1.368 1.848-1.728 3-1.92 6.12-.12 1.8-.072 2.088.864 4.512.528 1.416 1.176 2.88 1.44 3.264.648.912.864 1.872.504 2.304-.48.576.096 2.232.864 2.52 1.848.72 3.888.072 5.904-1.872 1.032-.96 1.416-.912 1.992.288.24.48.72.984 1.104 1.152.384.168.768.504.84.72.192.648 1.512 1.632 2.136 1.632.336 0 .96.336 1.392.72.456.408 1.008.72 1.224.72.24 0 .624.12.888.264.864.456 3.576-.552 4.632-1.704.864-.96.984-1.272 1.176-3.048.12-1.08-.312-2.016-1.464-3.264-.624-.672-.624-.696-.216-1.392.216-.408.408-.84.408-.984 0-.504 1.8-2.52 5.88-6.552 2.28-2.256 4.368-4.416 4.656-4.8.672-.888 2.616-3.12 4.32-4.968.72-.768 1.44-1.608 1.608-1.824.168-.24.768-.744 1.344-1.104 1.296-.84 3.432-3.288 4.416-5.064.6-1.08.816-1.848 1.056-3.864.168-1.392.216-3.024.12-3.648-.216-1.56-.984-4.392-1.248-4.584-.288-.216-1.416-1.992-1.608-2.544-.072-.264-.624-1.032-1.224-1.68-.6-.672-1.176-1.32-1.296-1.464-.144-.168-.336-.336-.456-.36-.336-.144-2.208-3.384-2.208-3.84 0-.216-.36-.696-.768-1.056-.984-.816-3.312-3.696-3.312-4.08 0-.168-.408-.768-.888-1.344-.864-1.008-1.512-1.968-1.512-2.256 0-.264.672-.096.96.264.192.192.984.696 1.776 1.08 1.872.936 2.376 1.416 2.736 2.664.168.576.792 1.56 1.392 2.232 1.32 1.464 2.76 3.576 3.192 4.632.192.432.552.888.792 1.032.264.144.624.648.84 1.104.192.48.696 1.2 1.104 1.632a16.815 16.815 0 0 1 1.296 1.488c1.296 1.608 2.712 3.192 3.624 4.032.552.48 1.056 1.08 1.128 1.32.072.24.576.72 1.104 1.056.528.36 1.728 1.464 2.664 2.448 1.464 1.512 3.744 3.312 5.496 4.32.264.144.72.504 1.032.792.288.264.624.504.72.504.096 0 .672.432 1.272.96s1.224.96 1.368.96c.144 0 .816.36 1.488.792.648.432 1.68.984 2.28 1.224 3.624 1.464 6.216 2.616 6.216 2.808 0 .096-.504.36-1.128.552a46.37 46.37 0 0 0-1.872.6c-.384.12-1.32.36-2.064.528-1.152.24-1.416.216-1.944-.12-.408-.264-.84-.36-1.224-.24-.936.216-3.024-.552-3.336-1.248-.216-.48-.192-.672.24-1.128.84-.888.672-1.488-.72-2.592-1.2-.936-1.344-.984-2.424-.84-1.848.216-3.432 1.368-4.152 3-.336.744-.72 1.848-.84 2.472-.264 1.2-.48 1.44-1.296 1.536-2.064.264-3.744.576-4.128.768-.672.384-1.608 3.6-1.464 5.088.192 1.896 1.464 2.808 2.424 1.728.504-.552.504-.984.024-1.512-.528-.576-.288-1.872.504-2.808.792-.96 2.856-1.392 4.008-.864 1.368.624 1.464.696 2.688 2.088l1.176 1.368-.72.912c-.408.504-.96.912-1.296.936-2.616.288-4.92.768-6.888 1.44-1.776.624-2.016 1.848-.816 3.912.264.456.624 1.272.768 1.8.36 1.2.648 1.608 1.512 1.992.744.312 2.064.384 2.472.096.816-.552 1.056-2.112.432-3.048-.504-.768-.984-.768-1.344 0-.528 1.176-1.464.408-1.752-1.44l-.168-.96 1.176-.408a22.564 22.564 0 0 1 2.52-.672c1.32-.264 1.44-.24 2.592.384 1.728.936 1.8 1.08 1.296 2.4-.312.792-.744 1.344-1.512 1.92-.6.432-1.464 1.368-1.896 2.064-.648 1.08-.768 1.536-.768 2.736 0 1.248.12 1.608.72 2.448.6.84.864 1.008 1.56 1.008.456 0 1.224-.192 1.704-.408.84-.408.864-.408 1.224.048.192.264.408.792.48 1.152.144.648 2.088 2.568 2.616 2.568.384 0 2.496-2.376 2.496-2.808 0-.552 1.68-3.168 2.136-3.288A46.54 46.54 0 0 1 213 361.8c.528-.096 1.128-.288 1.32-.48.36-.288 1.056-.48 2.52-.72 1.032-.144 3.816-.816 5.616-1.344.84-.264 1.752-.456 1.992-.456.456 0 3.528-.672 6.312-1.368.792-.192 2.256-.552 3.24-.792.984-.24 2.28-.576 2.88-.792.6-.192 1.464-.432 1.92-.528 1.128-.24 3.576-1.272 4.008-1.704.192-.192.48-.336.648-.336.168 0 .504-.216.744-.48.504-.552 2.904-2.232 3.528-2.472.384-.12 1.632-1.872 1.632-2.232 0-.096.6-1.056 1.344-2.16 1.152-1.704 1.368-2.184 1.464-3.384.12-1.368.072-1.44-1.272-3.552-1.176-1.872-2.736-5.088-2.736-5.664 0-.36-1.536-2.496-2.04-2.832-.264-.192-.912-.816-1.44-1.392-.552-.576-1.104-1.032-1.248-1.032-.768 0-2.568-1.104-3.528-2.184-.864-.96-1.344-1.296-2.328-1.536-.696-.192-1.368-.456-1.488-.576-.144-.144-.456-.264-.696-.264-1.152 0-5.64-3.024-7.992-5.4a38.01 38.01 0 0 0-1.848-1.632c-.6-.504-1.272-1.272-1.488-1.704-.216-.456-.552-.888-.744-.96-.216-.072-.648-.72-.936-1.416-.312-.696-.744-1.416-.984-1.608-.216-.192-.72-.96-1.104-1.704-.384-.768-.888-1.584-1.128-1.824-.264-.24-.528-.792-.6-1.224-.216-1.08-1.896-4.464-2.928-5.856-.48-.648-.864-1.488-.912-2.016-.096-.672-.384-1.176-1.224-1.992-.6-.6-1.608-1.8-2.232-2.64-.624-.84-1.344-1.776-1.632-2.064a73.906 73.906 0 0 1-1.44-1.656c-.528-.6-1.056-1.104-1.176-1.104-.12 0-1.008-.816-1.992-1.8-.96-.984-1.896-1.8-2.112-1.8-.192 0-.36-.072-.36-.192 0-.096-.6-.528-1.32-.96-.912-.552-1.32-.96-1.32-1.272 0-.264-.12-.696-.264-.96-.288-.552.096-2.904.624-3.72.312-.48 1.152-.768 3.864-1.272 1.128-.192 3.816-1.728 5.496-3.096 3.336-2.736 4.56-3.792 4.656-4.008.048-.12.672-.84 1.344-1.56 2.136-2.256 4.512-5.16 5.88-7.2.72-1.056 1.44-2.064 1.56-2.232.144-.168.888-1.344 1.68-2.64.792-1.32 1.728-2.736 2.112-3.168.36-.432.648-.84.648-.936 0-.168 1.704-2.856 1.92-3.024.096-.072 1.536-2.184 3.216-4.68 3.504-5.208 3.504-5.208 3.96-4.944.24.168.144.624-.576 2.328a71.909 71.909 0 0 0-.936 2.4c-.024.168-.168.432-.312.6-.144.192-.48 1.008-.768 1.848-.288.816-.6 1.68-.72 1.92-.648 1.296-1.224 2.664-1.224 2.952 0 .288-1.8 4.008-2.808 5.856-.144.264-.816 1.608-1.512 3-1.68 3.408-2.712 5.136-5.616 9.528-.912 1.344-1.776 2.592-1.968 2.736-.192.144-.336.432-.336.6 0 .168-.384.672-.888 1.104-.48.432-.984.936-1.128 1.104-.144.192-.624.696-1.032 1.152-.432.456-.792.936-.792 1.056 0 .384-2.952 2.448-4.032 2.808a5.114 5.114 0 0 1-2.28.24c-1.272-.168-5.136.192-6.696.576-.744.192-.912.336-.912.816 0 .312.12.648.264.744.504.288 5.856.384 7.656.096 3.528-.528 4.848-.984 6.312-2.112.744-.6 1.368-1.176 1.368-1.272 0-.12.432-.672.984-1.224.528-.576 1.224-1.416 1.536-1.872.312-.456.984-1.32 1.536-1.92.552-.576.984-1.152.984-1.248 0-.096.312-.528.672-.96.36-.432 1.128-1.56 1.704-2.472a80.194 80.194 0 0 1 1.968-3.12c.504-.792 1.008-1.608 1.104-1.8.072-.192.336-.624.552-.96.216-.336.6-1.08.84-1.68.24-.6.648-1.344.864-1.68.216-.336.552-1.2.768-1.92 1.104-4.08 1.752-6.048 2.448-7.56.432-.936.864-1.944.96-2.28.096-.336.744-1.464 1.44-2.52s1.656-2.664 2.136-3.6c1.2-2.28 1.464-2.52 2.664-2.52.696 0 1.2-.168 1.584-.504.312-.288 1.128-.888 1.776-1.32 1.512-1.008 4.56-3.936 5.64-5.448.456-.648 1.584-2.064 2.472-3.192.888-1.128 1.944-2.64 2.352-3.408.408-.744.96-1.752 1.2-2.208.528-.96 1.752-4.272 2.304-6.24.888-3.264 1.368-9.408.912-12.288-.192-1.32-.768-4.176-1.248-6.264-.216-.888-.312-1.704-.216-1.8.096-.072.96.648 1.896 1.632 2.712 2.808 4.44 4.32 5.4 4.776 1.512.696 2.664 1.488 2.808 1.896.072.216.744 1.056 1.464 1.848.744.792 1.536 1.872 1.776 2.4.24.528.672 1.224.96 1.56.288.336 1.032 1.32 1.632 2.232 2.016 2.904 2.568 3.624 3.864 4.968.696.72 1.416 1.584 1.584 1.92.168.336 1.632 1.848 3.216 3.408 1.608 1.536 2.904 2.904 2.904 3.024 0 .336 1.872 1.824 2.928 2.304.48.24 1.104.768 1.344 1.2.264.432 1.488 1.512 2.76 2.376 1.272.888 2.376 1.728 2.448 1.848.096.144.72.528 1.392.864.696.336 1.584.936 1.968 1.32.408.384 1.608 1.128 2.64 1.656 1.056.528 2.256 1.176 2.64 1.44.408.264.888.528 1.08.624.384.144 1.848.864 2.856 1.392.336.192 1.752.912 3.144 1.584 1.392.696 2.688 1.392 2.904 1.584.192.192.528.336.696.336.288 0 2.784.96 6.24 2.376.6.264 1.776.648 2.64.888.864.24 1.68.48 1.8.576.312.216 2.232.768 5.88 1.68 1.656.408 3.552.912 4.2 1.08 2.664.72 9.216 1.296 12.84 1.152a84.562 84.562 0 0 1 3.696-.096c.624.024 1.296-.072 1.44-.192.168-.144 1.368-.36 2.688-.504 1.296-.144 3.072-.384 3.936-.504.864-.12 2.376-.312 3.36-.408 1.752-.192 3.912-1.032 4.752-1.872.168-.192.528-.336.768-.336.576 0 2.184.816 3.6 1.824 1.44 1.008 3.648 2.016 4.488 2.016.36 0 1.488.216 2.472.456 1.728.432 3.624.48 5.04.096.336-.072 1.632-.168 2.88-.216 2.472-.048 3.984-.288 5.88-.96 1.416-.48 4.872-1.944 5.4-2.28.192-.12.744-.408 1.2-.6 1.368-.624 4.632-3.816 5.184-5.064.168-.408.456-.84.6-.936.672-.408 3.84-5.712 4.2-7.008.84-3.24-.576-4.368-1.704-1.368-.456 1.176-1.392 2.88-2.376 4.32-.264.384-.888 1.344-1.416 2.112-.504.744-1.512 1.968-2.256 2.712-1.608 1.56-4.968 3.864-5.904 4.032a5.136 5.136 0 0 0-1.464.576c-.408.24-1.248.528-1.872.6-.6.096-1.536.36-2.04.624-.672.36-1.608.528-3.432.648-1.392.072-2.784.216-3.12.312-.576.192-5.472-.048-6.744-.312-.336-.072-1.248-.48-2.04-.912a373.095 373.095 0 0 0-2.592-1.368c-.648-.336-1.224-.744-1.272-.912-.072-.144.336-.528.864-.84.552-.312 1.056-.744 1.128-.984.072-.24.6-.648 1.176-.888 1.488-.648 2.04-1.896 1.176-2.736-.624-.648-1.464-.432-2.904.696-.768.6-1.92 1.464-2.592 1.92-.648.48-1.728 1.224-2.376 1.68-.96.696-1.368.84-2.4.84-1.008.024-1.368.144-2.064.72-.6.528-1.08.72-1.728.72-.504 0-1.344.168-1.872.384s-1.248.336-1.584.264c-.336-.048-1.008-.024-1.488.096-3.816.912-14.256 1.512-16.008.912-1.056-.36-2.976-.744-4.08-.792a11.507 11.507 0 0 1-1.56-.192 49.641 49.641 0 0 0-2.16-.528c-.864-.216-2.16-.6-2.88-.888a42.964 42.964 0 0 0-2.04-.696c-1.92-.528-2.664-.792-2.88-.96-.12-.12-1.104-.408-2.16-.672-1.056-.264-2.832-.816-3.96-1.224-1.848-.696-2.688-1.056-4.56-2.064-.336-.168-1.032-.504-1.56-.768a18.206 18.206 0 0 1-1.8-.96c-.456-.288-1.32-.648-1.92-.792-1.056-.288-3.96-1.776-4.2-2.16-.072-.12-.48-.288-.912-.36-.408-.096-1.152-.456-1.608-.816a29.06 29.06 0 0 0-1.92-1.344 25.38 25.38 0 0 1-2.184-1.608c-.624-.504-1.488-1.08-1.944-1.272-.456-.168-.96-.504-1.152-.696-.168-.216-.408-.384-.528-.384-.36 0-1.536-.936-3.6-2.88-3.384-3.192-5.448-5.28-5.592-5.712-.072-.216-.552-.696-1.08-1.056-.504-.36-1.128-.96-1.368-1.32-.24-.36-1.32-1.584-2.4-2.688-1.08-1.104-2.28-2.472-2.64-3a17.996 17.996 0 0 0-1.224-1.632c-.6-.648-.72-.816-1.656-2.496-.288-.528-1.008-1.584-1.608-2.376-1.008-1.344-1.056-1.464-.744-1.968.192-.288.36-.744.36-1.008 0-.576-1.752-1.8-3.168-2.208-.576-.168-1.512-.648-2.112-1.032-.6-.408-1.272-.864-1.488-.984-1.2-.696-3.552-2.4-3.552-2.544 0-.12-.48-.696-1.08-1.344-.6-.624-1.08-1.272-1.08-1.44 0-.192-.192-.408-.408-.48-.48-.192-1.296-.84-2.496-2.016-.84-.84-.888-.936-1.08-3.12-.096-1.248-.168-2.808-.12-3.504.024-.696-.072-1.488-.24-1.776-.144-.288-.312-1.08-.36-1.752-.096-1.584-.936-6.024-1.32-6.96-.168-.408-.456-.84-.624-.936-.672-.408-.24-.84 1.8-1.824 4.104-1.968 4.68-2.352 8.928-5.952 1.968-1.68 2.976-2.76 4.104-4.368.816-1.2 1.632-2.208 1.848-2.304.24-.096.696.24 1.344.96.552.624 1.752 1.632 2.664 2.28 2.112 1.488 7.104 4.008 8.52 4.296 2.136.456 3.744.936 4.44 1.296.768.408 4.512 1.584 7.08 2.208.864.216 2.328.6 3.288.864.936.24 1.92.456 2.16.456.24.024.864.192 1.392.384 1.632.648 3.984 1.032 6.168 1.056 1.152 0 2.376.12 2.712.288.336.144.936.768 1.32 1.392 1.368 2.136 9.216 9.264 12.72 11.568 1.416.912 4.272 2.544 5.328 3 .336.144 1.44.816 2.424 1.488s2.592 1.56 3.552 1.944c.984.408 2.112.936 2.52 1.176.408.24 1.32.624 2.04.864s1.512.576 1.776.744c.264.144 1.512.696 2.76 1.176 1.248.48 2.592 1.056 2.976 1.248.384.216.936.408 1.2.456.288.024 1.104.288 1.824.576 1.728.696 5.376 1.656 7.68 2.04.888.144 1.848.456 2.352.792.288.192.744.288 1.008.216.288-.072 1.128.072 1.872.312 1.872.6 4.584 1.2 5.376 1.2.36 0 1.08.144 1.56.336.504.192 2.16.48 3.672.624 1.512.144 3.192.312 3.72.384 3.984.528 16.248.6 20.52.144a74.8 74.8 0 0 1 4.32-.384c1.944-.096 4.08-.456 5.04-.816.768-.288 1.056-.648 1.416-1.704.504-1.512-.552-1.896-3.168-1.128-.696.192-2.328.408-3.648.48-1.32.072-3.312.24-4.44.408-1.128.144-2.472.264-3 .264s-1.08.096-1.224.216c-.144.12-.576.096-1.032-.048-.432-.144-1.152-.216-1.632-.144-.48.096-1.992.048-3.408-.072-1.392-.12-4.128-.264-6.072-.336-1.968-.072-3.672-.192-3.792-.264-.144-.096-1.632-.312-3.312-.504-5.4-.624-6.384-.744-7.488-1.032-5.88-1.488-10.44-2.568-12-2.808-.456-.072-1.224-.336-1.704-.6-.504-.24-1.056-.384-1.272-.312-.384.144-2.688-.744-4.944-1.944-.6-.312-1.704-.72-2.472-.912-.792-.216-1.584-.528-1.8-.72-.24-.192-1.224-.6-2.208-.912-.984-.312-2.4-.96-3.12-1.464-.72-.504-1.464-.912-1.656-.912-.192 0-.528-.144-.72-.336-.216-.192-1.488-.912-2.856-1.632-1.344-.696-3.072-1.632-3.84-2.04-.744-.432-1.752-.96-2.208-1.2-.456-.24-1.488-.912-2.28-1.536-.792-.6-1.56-1.152-1.728-1.2-.144-.048-1.224-.96-2.4-2.016-1.968-1.776-2.496-2.304-4.776-4.728-.456-.48-.96-.912-1.104-.96-.456-.168.048-.672.624-.672.936 0 1.656-.744 1.464-1.488-.288-1.128-.624-1.296-4.512-2.136-1.656-.36-2.64-.12-2.76.696-.096.6-.696.672-2.448.264-.6-.144-1.68-.36-2.4-.456-2.856-.456-4.8-.888-5.328-1.248-.312-.192-1.152-.432-1.872-.504-1.44-.144-5.64-1.368-6.912-2.016a5.38 5.38 0 0 0-1.728-.432c-.528 0-1.008-.096-1.104-.192-.096-.096-.384-.168-.624-.168s-.624-.096-.864-.216c-.984-.528-3.168-1.464-3.456-1.464-.648-.024-6.576-3.336-8.136-4.56-1.68-1.32-1.992-1.8-1.224-2.016 1.68-.456 2.016-.432 3 .264 1.152.792 2.712 1.416 4.128 1.632 2.64.408 8.16-1.92 10.824-4.56 2.328-2.328 4.032-4.632 4.968-6.84.408-.936 1.368-4.248 1.368-4.728 0-.552-.936-1.272-1.632-1.272-1.008 0-1.56.792-2.4 3.432-.504 1.536-1.152 2.952-1.896 4.08-1.584 2.376-5.232 5.928-6.12 5.928a.874.874 0 0 0-.552.216c-.144.12-1.152.456-2.256.744-2.784.696-4.104.48-5.664-.96-.384-.36-1.008-.72-1.368-.816-.84-.192-1.392-.768-1.248-1.296.576-1.8 1.152-2.784 1.776-3.072 1.92-.888 2.352-1.056 3.096-1.104.552-.048.96-.288 1.296-.72l.48-.624-.528-.864-.552-.864.552-.864c.648-1.056.936-2.304 1.08-4.656.12-2.112-.36-3.432-1.32-3.552-.936-.144-1.104.288-1.128 3.024-.024 2.04-.144 2.808-.552 3.72-.264.648-.504 1.368-.504 1.608 0 .504-.864 1.2-1.488 1.2-.384 0-.408-.312-.408-3.072.024-4.968-1.464-12-2.736-13.008-1.128-.888-2.04-.192-1.392 1.056.912 1.8 1.248 3.336 1.464 6.384.264 3.84.168 6.336-.264 7.32-.168.384-.312 1.2-.336 1.8-.024.816-.288 1.488-1.056 2.736-.624 1.008-1.2 2.352-1.464 3.36-.648 2.592-1.584 4.92-2.4 5.928-.384.504-.72 1.008-.72 1.128 0 .312-5.04 5.256-5.88 5.784-.384.24-.864.6-1.056.816-.168.216-.888.72-1.56 1.128-.696.384-1.464.936-1.704 1.2-.24.264-.528.48-.648.48s-1.32.432-2.664.96c-2.904 1.104-5.328 1.848-7.128 2.136-.72.12-1.632.336-1.992.48-.792.312-2.232.312-2.928.024-.432-.168-.456-.192-.048-.36.24-.096.408-.432.408-.864 0-.6.264-.864 1.824-1.944 1.032-.696 2.4-1.728 3.048-2.304.672-.552 1.32-1.008 1.464-1.008.12 0 .576-.36.984-.768a38.819 38.819 0 0 1 1.944-1.872c1.272-1.152 4.536-4.824 5.664-6.36a34.966 34.966 0 0 1 1.752-2.16c3.528-3.984 3.864-4.584 3.096-5.424-.84-.912-1.608-.6-3.12 1.272-.768.96-1.608 2.136-1.872 2.616-.288.48-.744 1.176-1.056 1.56l-1.44 1.92c-1.92 2.664-2.352 3.192-2.976 3.552-.336.216-.864.768-1.152 1.224-.288.456-.624.84-.744.84s-.6.36-1.032.768c-.432.432-1.56 1.392-2.52 2.112-.96.72-2.064 1.584-2.448 1.872-.384.312-.696.456-.696.288 0-.48 1.152-2.832 1.896-3.84.816-1.128.744-1.68-.192-1.68-.696 0-2.376 1.488-2.976 2.64-.576 1.104-1.656 3-1.848 3.24-.096.12-.264.6-.36 1.056-.096.432-.36 1.152-.6 1.56-.24.408-.624 1.44-.864 2.304-.24.864-.744 2.208-1.128 3-.408.792-.96 2.088-1.248 2.88-.408 1.2-.672 1.536-1.44 1.968-1.248.696-1.512.696-2.808-.168-1.128-.744-1.344-.792-6.024-.744-1.608 0-2.88.6-3 1.392-.096.672 1.176 1.224 1.944.84.744-.384 1.896-.456 2.016-.144.12.36-.792.984-3.288 2.256a107.434 107.434 0 0 0-2.448 1.224c-.24.12-.696.216-1.008.216-.336 0-.648.096-.72.216-.312.504-1.68.504-2.688.024l-1.032-.504-1.128.528c-1.032.456-1.272.48-2.376.24-.672-.144-1.608-.576-2.04-.96-.696-.576-.84-.864-.96-1.968-.096-1.008-.24-1.344-.648-1.56l-.552-.264.6-.264c.336-.168.72-.288.84-.288s1.128-.432 2.256-.96 2.616-1.176 3.312-1.488c.696-.288 1.56-.744 1.92-1.008.48-.336 1.008-.456 1.92-.432 1.512.024 2.4-.456 2.808-1.488.168-.456.888-1.2 1.896-1.944.936-.72 1.704-1.488 1.848-1.896.192-.6.144-.744-.432-1.248a2.342 2.342 0 0 0-1.584-.576c-1.032 0-1.464.336-1.464 1.2 0 .456-.312.864-1.248 1.584-1.512 1.176-2.328 1.632-2.544 1.416-.072-.072-.264-.48-.408-.912-.264-.792-1.2-1.32-1.896-1.056-.48.192-.504 1.392-.024 2.304.312.624.312.72-.072 1.056-.456.384-2.712 1.608-2.976 1.608-.096 0-.912.36-1.824.792-1.824.912-7.848 2.904-8.16 2.712-.096-.048-.816.12-1.584.36-2.016.696-7.248.672-9 0-1.056-.432-1.368-.456-3.456-.216-1.752.216-2.736.216-4.176-.024a56.4 56.4 0 0 0-3.36-.432c-1.56-.12-1.944-.48-.984-.912.288-.144.744-.552 1.008-.912.432-.576.456-.696.144-.912-.816-.504-1.536-.528-2.496-.024-1.392.72-3.912.888-5.184.384-.816-.336-1.08-.336-1.536-.096-.576.288-1.584.144-1.584-.264 0-.12-.12-.216-.24-.216-.432 0-2.64-2.472-3.144-3.528-.288-.576-.504-1.536-.528-2.16L165 171.96l2.4.096c1.968.048 2.712-.024 4.128-.456.96-.288 2.016-.744 2.352-1.008.408-.312 1.536-.648 3.072-.936 7.032-1.296 9.432-2.088 11.544-3.912 1.344-1.128 2.16-1.632 2.616-1.56.144.024 1.008.024 1.896 0 1.488-.024 1.656-.096 2.496-.864 1.32-1.272 3.84-1.92 4.752-1.248.696.504.408 1.248-.504 1.248-.936.024-1.08.168-1.08.984 0 .624.6 1.344 1.32 1.608.192.072 0 .624-.6 1.776-1.008 1.872-1.08 2.496-.552 4.56.408 1.56 1.32 2.544 2.76 2.952 1.08.312 2.544.312 3.096 0 .24-.12 1.2-.384 2.16-.576 2.784-.576 5.784-2.496 8.4-5.352 2.544-2.784 3.624-5.4 2.88-6.864-.36-.672-.672-.888-1.32-.888-.84 0-1.128.552-.816 1.632.24.936.024 2.088-.432 2.448-.096.072-.744.816-1.416 1.68-1.632 2.064-3 3.36-4.68 4.416-1.416.888-2.064 1.056-2.52.6-.216-.216-.552-.144-1.32.24-2.544 1.224-4.344.192-4.32-2.472.024-.696 1.056-2.952 2.328-4.968.336-.504.528-1.08.456-1.272-.072-.192.024-.72.24-1.152.216-.432.432-1.368.504-2.04.168-1.656-.192-2.232-1.344-2.232-.984 0-1.344.456-.936 1.2.144.24.24.552.24.696 0 .384-1.224.312-1.92-.096-.864-.504-1.704-.432-4.896.36-1.584.408-3.096.72-3.384.72-.288 0-1.224.216-2.112.504-1.2.384-1.944.816-3.072 1.824-1.512 1.344-4.464 2.952-5.376 2.952-.264 0-.744-.288-1.08-.624-.48-.528-.744-.6-1.464-.504-1.032.144-1.848-.288-3.192-1.608-1.032-1.032-1.536-2.16-1.848-4.056-.192-1.104-.168-1.464.144-1.944.576-.888.24-1.392-.912-1.296-.552.048-1.032.216-1.128.432a56.66 56.66 0 0 0-.48 1.008c-.168.336-.6.96-.984 1.392-.84.912-.864 1.44-.144 2.28.6.72 1.248.624 1.464-.192l.144-.528.48.6c.264.336.48.72.48.888 0 .528 2.184 3.144 2.928 3.528.432.216 1.104.624 1.464.936l.672.576-1.272.264c-2.184.48-5.4.792-6.432.624l-1.008-.168.744-.312c.816-.336 1.176-1.224.768-1.968-.312-.6-1.176-.912-1.536-.552-.144.144-.456.264-.672.264-.528 0-1.752-1.512-2.28-2.856-.384-.984-.384-1.056.12-2.064.624-1.272 1.776-2.28 2.544-2.28.864 0 1.056-.912.336-1.464-.312-.24-.816-.504-1.128-.576-1.104-.288-3.48 1.536-3.888 3-.576 2.064-.168 4.056 1.248 6.048.24.336.216.576-.12 1.296-.24.48-.36.936-.288 1.008.048.072.48-.072.936-.312.696-.384.912-.408 1.56-.12.912.36.936.624.144.816-.768.192-.792.984-.072 1.752.48.528.48.552.048.552-.864-.024-2.616-.504-3.816-1.056-1.608-.744-5.712-2.064-7.08-2.28l-1.08-.144.072-.96.072-.96-1.32-.432c-.744-.216-2.04-.744-2.928-1.176-1.272-.624-1.728-1.008-2.424-2.064-.984-1.464-1.416-3.264-1.032-4.152.288-.648.84-1.608 1.008-1.776.048-.072 1.08.216 2.256.6 1.56.528 3 .792 5.304 1.008 4.032.36 6.408.048 8.544-1.152.768-.456 1.464-.816 1.536-.816.072 0 .576-.36 1.128-.816.552-.432 2.064-1.368 3.384-2.04 3.696-1.968 4.896-2.808 8.088-5.664.888-.84 2.064-2.952 2.256-4.128.144-.912.072-1.08-.6-1.776-.936-.912-1.344-.696-1.536.864-.096.6-.336 1.44-.552 1.872-.432.816-3.744 4.248-4.104 4.248-.144 0-.432.216-.696.504-.456.504-3.456 2.136-3.936 2.136-.12 0-.912.456-1.752 1.032-3.936 2.76-6.96 3.888-10.128 3.84-2.688-.024-6.792-.84-7.68-1.536-.144-.096-.816-.264-1.512-.36-1.56-.192-1.92.072-2.736 2.136-1.032 2.544-1.128 3.24-.6 4.728.816 2.256 2.616 4.488 4.056 5.064.72.264 1.08.6 1.248 1.08.672 1.824 2.112 2.784 4.152 2.784 1.416 0 3.768.552 5.4 1.224.912.384.888.336 1.392 3.288.168.912.6 2.16 1.104 3.048 1.368 2.472 4.512 4.872 6.36 4.872.384 0 1.224.216 1.848.48 1.248.528 5.28 1.464 7.92 1.848 1.056.144 1.128.216 1.704 1.872.096.264.48 1.08.816 1.8.792 1.608.792 1.608.096 2.64-.312.456-.696 1.344-.888 1.992-.168.624-.384 1.2-.48 1.248-.096.072-.648-.048-1.224-.264-.576-.216-1.272-.384-1.512-.384-.816.048-4.392-2.184-5.544-3.432-.12-.144-.816-.696-1.512-1.2-.696-.528-1.56-1.368-1.92-1.896-.816-1.176-1.896-2.256-4.104-4.056-1.392-1.128-1.872-1.728-2.448-2.952-.432-.912-1.056-1.8-1.536-2.16-.456-.336-.888-.864-.984-1.128-.072-.288-.408-.864-.72-1.296-.36-.456-.576-1.08-.576-1.584 0-.888-.288-1.128-1.344-1.128-.864 0-3.36-1.2-5.4-2.592-1.848-1.296-5.496-5.256-5.496-5.976 0-.24-.264-.672-.576-1.008-.312-.36-.744-1.272-.984-2.064-.216-.792-.528-1.656-.696-1.92-.744-1.128-1.584-4.08-1.728-5.952-.144-1.944-.144-2.016.72-3.648 1.296-2.472 2.808-5.016 3.12-5.232.144-.096 1.56-.12 3.144-.024s5.376.168 8.4.192l5.52.024 2.352-1.128c1.272-.624 2.76-1.488 3.312-1.92 1.128-.912 4.08-2.76 6.072-3.816 1.104-.576 1.584-.696 2.208-.576 1.224.216 1.56.672 1.368 1.92-.12.984-.096 1.08.504 1.344.552.264.696.216 1.224-.264 1.272-1.2.48-3.12-1.848-4.488l-1.344-.792-1.824.6c-2.352.768-4.152 1.776-6.312 3.528-3.168 2.544-8.232 4.464-8.232 3.096 0-.72-.264-1.224-.624-1.224-.192 0-.888-.504-1.536-1.104-.888-.816-1.224-1.344-1.416-2.208-.36-1.44-.432-3.096-.168-3.936.168-.576.096-.696-.432-.936-.336-.168-.624-.384-.624-.504 0-.456 6.792-6.768 7.848-7.32.336-.168.912-.576 1.32-.912.384-.336.816-.6.912-.6.12 0 .456-.264.768-.6.576-.6 3.192-2.28 3.6-2.28.12 0 .984-.528 1.944-1.152.96-.648 2.592-1.728 3.648-2.424 2.088-1.392 3.216-2.328 6.864-5.784 2.52-2.376 4.656-5.184 5.664-7.44.336-.72.696-1.536.84-1.776.312-.6.264-3.648-.072-4.272-.576-1.056-3.168-3.024-4.056-3.072-.504 0-2.712-1.056-3.144-1.488-.192-.216-.912-.672-1.56-1.008-2.88-1.56-5.304-3.288-6.504-4.704-.864-1.008-.96-1.56-.432-2.256.24-.312.36-1.056.36-2.208 0-1.488-.072-1.8-.504-2.088-.984-.696-2.136-.024-2.136 1.272 0 1.368-.432 2.328-1.104 2.496-.624.168-.744.624-.312 1.32.456.696.12 1.464-1.944 4.512-2.568 3.816-3.552 5.016-4.68 5.76-.528.336-1.368.984-1.848 1.416-1.368 1.224-2.592 1.728-5.016 2.136-2.184.336-2.28.336-3.912-.192-1.152-.36-1.752-.696-2.016-1.128a17.053 17.053 0 0 0-1.032-1.368c-1.248-1.464-1.632-3.552-1.08-6.072.552-2.544.6-2.616 2.328-3.48 1.968-1.008 3.36-2.376 7.536-7.44 1.512-1.824 1.992-2.664 4.152-7.344.72-1.56 1.2-2.256 1.896-2.76.504-.36 1.032-.792 1.152-.936.6-.648 1.8-1.296 3.072-1.68.768-.216 1.68-.552 2.04-.744 1.896-.984 5.448.432 6.552 2.64.768 1.536 1.392 2.04 3.048 2.424 1.272.312 2.616.864 7.128 3 .912.432 1.632.696 4.68 1.584.72.24 1.752.6 2.28.84.528.24 1.608.6 2.4.84 1.536.432 2.88 1.056 4.08 1.872 1.032.696 4.2 3.792 4.2 4.104 0 .144.312.624.696 1.08.36.456 1.032 1.848 1.44 3.048.648 1.896.744 2.52.72 4.248-.072 2.256.288 3.024 1.368 3.024 1.68 0 2.112-4.152.744-7.152-.408-.864.072-1.128 1.056-.552 1.272.72 4.248 1.656 5.976 1.824.864.096 4.056.192 7.08.216 4.248.048 5.904.168 7.2.48 2.544.624 5.472 1.584 5.88 1.944.192.168.624.384.96.48 1.296.384 2.16 1.104 2.16 1.8 0 .72.6 1.128 1.08.72.312-.264 1.56.528 1.56 1.008 0 .144.432.672.96 1.176.528.528.96 1.104.96 1.32 0 .216.216.696.504 1.08.408.576.456.888.312 2.088-.168 1.512.168 3.624.816 5.064.6 1.296 2.088 3.24 2.784 3.6.888.48 2.112.096 2.4-.744.216-.6.096-.792-1.032-1.992-.984-1.032-1.248-1.464-1.176-1.968.072-.6.216-.696 1.248-.864.672-.096 1.704-.552 2.4-.984.672-.456 1.488-.888 1.824-.984.336-.096.816-.384 1.08-.624.84-.744 4.992-3.336 5.376-3.336.216-.024.816-.192 1.344-.384 1.824-.672 4.68-.816 8.112-.408 5.352.624 6.024.624 13.272-.192 6.744-.744 6.984-.744 8.496-.36.864.216 2.136.48 2.832.624 1.152.216 1.944.528 5.208 2.04.672.312 2.136 1.008 3.288 1.536 1.152.552 2.352.984 2.688.984.336 0 .648.096.72.216.072.12.504.288.96.36a7.966 7.966 0 0 1 1.608.552c.768.384 10.224 2.064 10.56 1.872.096-.072.744 0 1.44.144 1.44.264 1.368.264 6.216.792 1.92.216 3.912.48 4.44.6.528.12 2.04.288 3.36.384 2.016.12 9.312.72 11.76.96 3.168.336 6.864.84 7.56 1.032.456.144 2.616.432 4.8.624 2.184.192 4.296.48 4.68.648.408.168 1.32.36 2.04.456 1.848.216 7.032 1.536 8.52 2.16.912.384 2.112.72 2.544.72.24 0 1.08.312 1.872.696.768.36 1.728.744 2.088.84.36.096.936.384 1.272.6.96.672 4.104 1.776 5.184 1.8.816.024.984-.072 1.176-.6.168-.528.12-.768-.312-1.32-.576-.72-4.608-2.976-5.328-2.976-.24 0-.504-.12-.576-.24-.072-.144-.36-.24-.624-.24s-1.032-.312-1.728-.696c-.672-.384-1.632-.768-2.088-.864a7.456 7.456 0 0 1-1.2-.36c-.192-.096-1.176-.408-2.16-.696-.984-.312-2.304-.696-2.904-.888-.624-.192-1.392-.336-1.704-.336-.336 0-.912-.096-1.296-.216-3.648-1.104-8.832-1.776-21.216-2.76-2.856-.216-6.792-.696-8.568-1.008-1.08-.168-2.472-.336-3.12-.336-.624 0-1.8-.12-2.592-.24-1.56-.288-2.592-.36-6.816-.6-1.512-.096-2.976-.24-3.264-.36-.288-.096-2.184-.336-4.224-.48-2.04-.168-3.888-.408-4.152-.528-.24-.144-1.176-.264-2.064-.312-.984-.048-1.992-.264-2.544-.552-.528-.24-1.68-.696-2.616-1.008-2.4-.768-4.992-1.848-6.24-2.592-.384-.24-1.104-.576-1.56-.768a6.568 6.568 0 0 1-1.416-.768c-.312-.24-.912-.432-1.32-.432-.744 0-1.608-.192-3.864-.84-1.8-.528-3.912-.504-8.28.096-4.248.576-9.264.744-12.96.432-1.248-.096-3.024-.264-3.96-.336-3.048-.264-5.448-.048-8.64.768-1.08.288-5.808 3.192-7.2 4.44-.528.48-2.856 1.68-3.24 1.68-.12 0-.24-.264-.24-.6 0-.792-1.032-3.48-1.968-5.136-.96-1.704-4.8-5.448-5.952-5.808a16.897 16.897 0 0 1-2.04-.84c-3.312-1.56-9.288-2.76-13.824-2.76-1.56 0-3.192.072-3.624.144-.432.072-1.968.048-3.432-.072-2.424-.216-2.832-.312-5.04-1.368-1.32-.648-2.808-1.512-3.312-1.968-.6-.528-1.128-.792-1.608-.792-.48 0-.792-.144-.888-.432-.072-.216-.48-.744-.888-1.152a109.72 109.72 0 0 1-1.584-1.632c-.456-.48-.912-.864-1.032-.864-.144 0-.696-.384-1.272-.84-1.44-1.176-3.744-2.352-5.856-3a55.87 55.87 0 0 1-3-.984c-.672-.24-1.44-.456-1.752-.456-.288 0-1.224-.384-2.112-.84-.864-.456-1.728-.84-1.944-.84-.192 0-.648-.144-.984-.312-3.312-1.68-5.28-2.568-5.616-2.568-.24 0-.768-.384-1.2-.864-.432-.48-1.44-1.344-2.232-1.92-.816-.552-1.656-1.248-1.896-1.512-.528-.6-3.36-1.104-4.944-.888-1.632.216-6.264 2.088-7.488 3.024-1.896 1.464-3.312 2.976-3.576 3.84-.144.456-.696 1.752-1.224 2.88s-1.128 2.424-1.344 2.88c-.216.456-.768 1.272-1.272 1.8-.48.528-1.32 1.608-1.848 2.424-1.488 2.184-4.536 5.136-5.304 5.136-.96 0-1.704.624-1.704 1.416 0 .384-.144.744-.336.816-.168.072-.72.864-1.224 1.776-.84 1.536-.888 1.728-.768 3.192.336 3.816 2.184 6.384 5.688 7.944 1.368.624 4.176.936 6.072.696 1.752-.216 4.224-1.176 5.232-2.016.408-.36.816-.624.912-.624.096 0 .384-.192.648-.432A66.28 66.28 0 0 1 166.416 96c1.584-1.272 1.848-1.584 3.36-3.864.384-.576 1.104-1.68 1.608-2.448.528-.768.936-1.56.936-1.752 0-.552.888-.384 1.728.36.432.36 1.848 1.392 3.144 2.28 1.296.888 2.496 1.704 2.64 1.848.432.336 3.96 2.52 5.304 3.216 2.04 1.104 2.304 1.512 2.304 3.552 0 1.512-.096 1.968-.744 3.192-.432.768-.96 1.632-1.2 1.896s-.72.936-1.104 1.488c-1.104 1.632-5.328 5.808-7.272 7.176-1.008.696-2.016 1.488-2.28 1.776-.24.264-.888.696-1.416.96-.552.264-1.464.84-2.064 1.296-.6.456-1.176.84-1.272.84-.12.024-.504.24-.888.504-.36.264-1.536.816-2.592 1.224-1.08.408-2.208.936-2.52 1.176-.312.24-1.176.72-1.944 1.056-1.128.504-1.344.696-1.248 1.056.12.336-.48 1.08-2.52 3.072-1.464 1.44-3.024 3-3.48 3.48a606.82 606.82 0 0 0-3.576 3.672c-1.512 1.56-2.76 2.904-2.76 3.024 0 .096-.48.792-1.08 1.512-.6.744-1.08 1.416-1.08 1.488 0 .096-.72 1.2-1.608 2.448-1.944 2.76-2.688 3.888-2.88 4.464-.072.24-.432.504-.816.576-.984.192-1.296.696-1.32 2.184l-.024 1.344-1.08.024c-1.176.024-1.872.408-1.872 1.056 0 .216-.48 1.344-1.056 2.544-2.856 5.808-4.296 9.672-4.512 12-.072.648-.288 1.584-.504 2.04-.192.456-.456 1.104-.528 1.44-.096.336-.312.768-.504.96-.744.864-1.128 2.28-1.08 4.08.048 2.16-.336 4.536-.96 5.952-.24.552-.456 1.128-.456 1.272 0 .24-.792 2.016-2.16 4.896-.384.792-.768 1.752-.864 2.16-.096.384-.528 1.44-.96 2.304-.456.864-.816 1.656-.816 1.752 0 .096-.144.528-.336.936-.168.432-.624 1.464-.984 2.328-.36.864-.792 1.728-.96 1.92-.144.192-.408.816-.552 1.344-.168.552-.456 1.128-.648 1.296-.192.168-.36.528-.36.792 0 .288-.432 1.92-.984 3.648-1.632 5.208-1.896 6.216-1.896 6.936 0 .384-.096 1.032-.216 1.44-.144.408-.36 1.272-.504 1.944-.144.648-.36 1.632-.504 2.16-.12.528-.408 2.088-.6 3.48-.336 2.448-.72 4.08-.96 4.08-.072 0-.336-.12-.624-.264-.672-.36-1.632-.072-1.632.48 0 .24.408.72.936 1.056 1.584 1.056 3.192 2.976 3.936 4.68 1.296 3.048 1.416 4.08 1.488 12.168.048 4.08.144 7.632.24 7.848.144.36.048.432-.528.432-.912 0-1.68-.72-1.968-1.872-.384-1.392-.528-5.928-.24-6.696.384-1.008.072-2.208-.648-2.472-.36-.144-.72-.6-.96-1.2-.264-.672-.528-.96-.864-.96-.408 0-.456.12-.336.888.36 2.064.528 5.256.336 5.64-.144.312-.384.384-.912.264-.936-.168-.936.216-.024.576.696.24.72.288.84 2.376.048 1.176.12 2.448.12 2.832.024 1.008.936 3.936 1.632 5.112.624 1.08 2.088 2.376 3.432 3.072 2.136 1.08 2.016 1.8-.288 1.8-1.8 0-2.592-.408-3.744-1.992-1.056-1.464-1.584-2.664-1.968-4.488-.648-3.072-1.224-4.032-2.04-3.36-.288.24-.36.552-.24 1.2.12.72.048 1.008-.456 1.608-.456.552-.624 1.008-.624 1.8 0 .576-.096 1.368-.216 1.776-.12.408-.12 1.776.024 3.24.288 3.264.984 4.704 2.904 6.168.744.576 1.368 1.152 1.368 1.272 0 .456-.6.192-1.704-.816a310.058 310.058 0 0 0-2.424-2.112c-.912-.792-1.392-1.44-1.704-2.28-.48-1.368-.504-2.136-.144-4.896.24-1.752.384-2.16 1.008-2.832l.744-.768-.528-1.104c-.456-.936-.624-1.08-1.2-1.008-.528.048-.672.216-.792.912a65.854 65.854 0 0 1-.552 2.352c-.24.816-.408 1.752-.384 2.04.024.288.048.984.024 1.56l-.024 1.008-.912-.144c-.744-.12-.984-.048-1.488.456-1.704 1.68-2.64 3.432-3.816 7.056-.744 2.28-.792 2.256-1.104-.336-.144-1.32.48-3.84 1.176-4.608a2.87 2.87 0 0 0 .456-.984c.096-.36.624-.936 1.248-1.392.6-.408 1.2-1.056 1.344-1.416.144-.384.552-1.008.912-1.392 1.416-1.512 4.608-8.544 5.16-11.4.744-3.768 1.104-5.928 1.248-7.608.12-1.584.096-1.728-.36-1.992-.288-.144-.744-.192-.984-.12-.384.12-.48.36-.48 1.32 0 .648-.12 1.464-.24 1.824-.144.36-.36 1.8-.504 3.192-.312 3.456-1.128 6.024-3.024 9.504-1.224 2.304-3.12 4.44-3.912 4.44-.84 0-1.032-1.008-.768-3.96.12-1.464.216-2.976.216-3.36.024-1.776.6-7.632.816-8.232.144-.36.456-1.632.696-2.808.456-2.256 1.752-5.208 2.616-5.976.288-.264.504-.6.504-.768 0-.168.264-.624.6-1.008.336-.408.6-.888.6-1.08 0-.96 3.408-1.44 5.568-.792.96.312 1.152.312 1.392.024.792-.936-.576-2.04-3.12-2.52-1.416-.264-1.872-.264-2.496-.024-1.464.6-1.44.6-1.632-2.136-.096-1.392-.216-6.408-.312-11.136-.072-4.728-.192-8.688-.24-8.784-.192-.288.312-10.08.72-14.28.528-5.4 1.416-9.048 3.24-13.2.24-.528.504-1.224.6-1.56.096-.336.36-.864.6-1.2.216-.336.6-1.008.84-1.512.552-1.176 3.936-4.728 4.512-4.728.648 0 1.848-.696 1.848-1.08 0-.408.36-.648 1.176-.744 6.048-.744 7.056-.672 9.216.672 1.2.768 1.848.744 1.848-.024 0-1.08-1.752-2.064-4.44-2.496-1.944-.312-2.424-.312-4.752.072-1.416.216-2.616.336-2.664.264-.168-.288.36-5.712.72-7.344.408-1.824 1.512-7.992 1.536-8.448 0-.168.264-.576.6-.936.48-.504.528-.72.336-1.104-.192-.336-.12-.84.24-1.944.264-.816.504-1.752.576-2.088.048-.336.216-.912.36-1.272.168-.384.288-.768.288-.864 0-.12.264-.672.576-1.248.336-.576.936-1.92 1.344-2.952.408-1.056.96-2.16 1.224-2.496.24-.336.456-.72.456-.864 0-.144.216-.528.48-.864.408-.528.456-.552.6-.168.192.456.72.552.96.144.096-.144-.024-.408-.264-.576-.264-.192-.336-.36-.216-.36.312 0 1.968-2.208 2.28-3.024.144-.336.552-.744.96-.888.432-.168.792-.528.936-.96.144-.36.456-.96.72-1.32.72-1.008 4.32-2.688 8.064-3.768 2.616-.72 3.192-1.272 2.16-1.944-.6-.384-1.2-.336-3.12.264-4.536 1.44-5.856 1.92-6.672 2.448-.504.312-.984.552-1.032.48-.048-.048.264-.792.696-1.632.432-.84 1.008-2.136 1.248-2.856.264-.72.528-1.44.624-1.56.24-.336 1.248-3.048 1.296-3.48.024-.192.168-1.92.336-3.84s.384-4.08.504-4.8c.408-2.52.432-9.48.024-10.56-.12-.336-.288-1.152-.36-1.848l-.144-1.224 2.232-2.496c3.792-4.176 4.008-4.368 4.32-4.056.144.144.6.264 1.008.264.48 0 .96.216 1.296.576.936 1.008 2.904 1.296 3.432.528.336-.48.192-.792-.792-1.752l-.96-.984.264-1.392c.168-.792.336-1.704.408-2.04.12-.6-.408-1.416-.912-1.416-.12 0-.6.384-1.08.84-.936.936-1.656 1.08-1.896.36-.216-.672.432-1.728 1.728-2.808 2.16-1.8 3.504-2.184 4.392-1.224.912.984.312 4.464-1.008 5.88-.624.672-.432 1.152.528 1.368 2.76.528 3.792-.984 3.48-5.064-.312-4.08-.48-4.272-3.672-4.536-1.728-.144-1.968-.096-3.168.504-.72.36-1.704.984-2.184 1.344-.48.384-1.008.696-1.152.696-.432 0-.744-1.104-.744-2.544 0-.816-.144-1.536-.408-1.92-.312-.48-.336-.72-.144-1.032.408-.672.672-3.144.312-3.144-.192 0-.216-.24-.12-.768.096-.432.168-1.248.168-1.824-.024-.576.072-1.224.168-1.44.336-.624.912-6.336.96-9.456.048-1.56.144-3.648.24-4.68.264-2.688-.12-10.2-.552-11.064-.192-.36-.408-1.464-.504-2.448-.168-1.992-.528-3.36-.84-3.36-.312 0-1.176-2.04-1.128-2.64.048-.768-2.736-6-3.72-6.984-.504-.48-.912-.984-.912-1.08 0-.12-.336-.552-.744-.936-.408-.408-1.08-1.08-1.488-1.536-1.368-1.464-6.144-4.44-8.712-5.424-1.296-.504-2.592-1.056-2.856-1.248-.264-.168-.6-.312-.768-.312-.36 0-3.192-1.872-3.192-2.112 0-.096-.36-.384-.816-.624-.456-.24-1.248-.84-1.776-1.32-2.232-2.064-4.512-3.648-5.928-4.104a10.083 10.083 0 0 1-1.44-.6c-.264-.168-.96-.384-1.56-.456-1.968-.264-8.736-.36-9.6-.12zm9.768 2.4c.504.24 1.032.456 1.2.456.384 0 3.624 2.376 5.112 3.744.6.528 1.584 1.272 2.208 1.632.6.36 1.248.816 1.44 1.032.168.216.744.576 1.272.84.528.24 1.44.72 2.04 1.032.6.312 1.632.792 2.28 1.032 2.304.912 4.56 2.064 5.544 2.856.552.432 1.08.792 1.176.792.12 0 .72.504 1.344 1.128.624.648 1.32 1.32 1.584 1.536.24.216.816.96 1.272 1.656a56.31 56.31 0 0 0 1.752 2.424c.504.672 1.128 1.776 1.368 2.448.24.696.768 2.016 1.152 2.976.408.96.96 2.904 1.224 4.32.504 2.832.816 4.272 1.464 7.032.408 1.752.432 2.976.192 11.16-.024 1.2-.624 6.744-.912 8.592-.528 3.552-.144 13.08.624 15.504.312.96.312 1.128-.144 2.04-.264.552-.48 1.176-.48 1.392 0 .864 1.464 1.488 2.64 1.128.792-.216.288.864-1.032 2.28-.768.792-2.088 2.208-2.952 3.144l-1.536 1.68-.576-.672c-.336-.432-.648-1.296-.84-2.4-.576-3.096-.576-4.176-.072-6.36.264-1.152.552-2.736.624-3.528.072-.792.24-2.304.36-3.36.24-2.088-.024-6.528-.504-8.16-.168-.528-.528-1.296-.84-1.704-.312-.408-.552-.888-.552-1.08 0-.192-.192-.672-.432-1.056-.24-.408-.696-1.392-.984-2.232-.312-.84-.696-1.488-.888-1.488-.192 0-.336.168-.336.36 0 .528-.384.432-1.536-.336-1.728-1.2-4.32-1.776-8.064-1.8-3.216-.024-3.24-.024-3.96.624-.384.36-1.2 1.08-1.824 1.608-.6.528-1.224 1.272-1.416 1.632-.192.36-.696 1.224-1.128 1.92-.984 1.56-1.416 2.88-1.632 4.92-.144 1.464-.096 1.728.576 3.144.888 1.872 1.392 2.328 2.496 2.376.648.024 1.008-.12 1.368-.528.264-.312.48-.672.48-.792 0-.144.36.144.816.648.768.816.912.888 1.992.816 1.416-.096 1.704-.72.672-1.536-.432-.336-.672-.816-.768-1.464-.12-.888-.072-.984.6-1.248 1.032-.432 2.352-.12 2.928.696 1.104 1.56 1.776 5.232 1.128 6.12-.312.408-.432.432-.96.144-.48-.264-.96-.264-2.352-.072-1.8.264-2.208.504-2.496 1.416-.12.408.024.72.6 1.272.96.936 1.92.984 1.92.096 0-.336.096-.552.24-.456.144.072.24.744.24 1.464 0 1.08.144 1.512.72 2.4.984 1.416 1.632 1.704 3.528 1.584 1.008-.072 2.112-3.144 1.464-4.032-.288-.408-.264-1.92.024-3.696.192-1.008.192-1.728.048-2.04-.12-.264-.288-1.08-.336-1.848-.12-1.152-.6-2.352-1.128-2.832-.072-.072-.36-.456-.648-.84-.624-.888-2.496-1.416-4.272-1.152l-1.152.144.144-.768c.264-1.32 1.464-2.592 2.592-2.784 1.824-.312 4.416.888 5.256 2.4.504.912 1.008 3.408.936 4.752-.072 1.344.12 1.608 1.104 1.608 1.176 0 1.56-.672 1.56-2.712 0-1.392-.12-1.92-.84-3.36-.816-1.728-2.208-3.48-3.144-3.96-.72-.384-4.536-.84-5.784-.696-1.104.12-1.224.192-2.832 1.776-1.248 1.2-1.92 3.168-1.848 5.4.024.912-.024 1.632-.12 1.632-.12 0-.504-.408-.912-.912-.648-.792-.72-1.056-.672-2.424.048-2.4.696-3.768 3.048-6.576.744-.888 1.2-1.2 2.28-1.512 1.896-.552 4.32-.384 5.304.36.48.36.96.504 1.272.408.432-.096.888.24 2.304 1.68 2.88 2.976 4.152 6.36 4.104 10.776-.024.912-.096 1.752-.168 1.872-.048.096-.144.528-.192.96a579.64 579.64 0 0 0-.672 6.648c-.192 2.304-1.488 6.12-2.496 7.344-.504.624-1.44 1.128-1.728.96-.12-.072-.264-.456-.336-.864-.144-.672-.216-.72-1.224-.72-.864 0-1.152.12-1.56.648-1.176 1.464-.816 2.448 1.056 2.928 1.752.432 2.76.312 4.08-.456 1.728-1.008 1.92-1.224 2.256-2.184.144-.48.48-1.056.744-1.296.432-.384.456-.336.384 2.688-.048 3.336.072 2.928-2.208 7.344-.312.648-.696 1.656-.84 2.28a16.766 16.766 0 0 1-.6 1.92c-.192.432-.336 1.056-.336 1.368 0 .312-.096.816-.24 1.128-.12.312-.408 1.632-.6 2.952-.216 1.32-.48 3-.6 3.72a39.024 39.024 0 0 0-.552 7.368c.048 2.04.168 2.808.792 4.536l.72 2.064-.864 1.944c-.48 1.056-1.2 2.424-1.56 3.024-.384.6-.696 1.224-.696 1.392 0 .6-1.512 1.992-2.832 2.616-.744.336-1.68.936-2.088 1.32-.624.576-2.688 1.32-2.952 1.056-.048-.048.096-.36.312-.696.336-.504.36-.696.12-.984-.6-.72-1.752-.408-5.52 1.44-.336.168-1.296.384-2.16.456-.864.096-1.752.36-1.968.552-.72.648-4.44.24-6.288-.672-.816-.408-1.632-.864-1.824-1.032-.192-.168-.816-.528-1.344-.768-.696-.312-1.176-.792-1.608-1.56-.36-.6-.936-1.296-1.296-1.56-.36-.24-.984-.816-1.392-1.248-1.152-1.176-3.192-2.64-4.344-3.072-1.104-.432-2.28-.336-3.048.24-.576.432-.264 1.104.504 1.104.84 0 2.4.792 3.576 1.8.552.456 1.104.84 1.224.84.12 0 .672.6 1.248 1.296.552.72 1.44 1.728 1.992 2.232.552.528 1.176 1.2 1.392 1.536.432.648 2.856 1.92 4.536 2.376.6.168 1.776.36 2.64.456 1.944.192 2.04.576.336 1.584-.696.384-2.304 1.44-3.6 2.304-1.32.888-2.976 1.896-3.696 2.256-.72.36-1.584.84-1.92 1.08-.528.36-2.664 1.128-4.2 1.512-.264.072-1.224.408-2.16.744-3.216 1.176-10.176 2.76-12.528 2.832l-1.872.072.072-.792c.096-1.248-.288-1.728-1.392-1.728-.528 0-.96-.096-.96-.24 0-.936-.816-4.752-1.08-5.016-.432-.456-1.296-.12-1.464.624-.096.336-.024 1.32.12 2.184.912 5.16.96 5.832.624 6.864-.312.864-.288 1.056.024 1.536.24.36.312.816.216 1.248-.168.792-1.824 4.032-2.76 5.4-.36.528-.888 1.44-1.176 2.016-.312.576-.864 1.344-1.248 1.728-.384.36-.696.768-.696.912 0 .12-.936 1.056-2.088 2.064a634.23 634.23 0 0 0-3.768 3.336c-2.256 1.992-7.104 6.84-7.104 7.104 0 .096-.432.648-.936 1.176-.528.552-1.032 1.224-1.128 1.536-.072.288-.312.696-.48.912-.504.576-1.512 2.568-2.04 4.032-.24.72-.648 1.512-.864 1.752-.216.24-.48.96-.576 1.632-.312 2.016-4.08 7.68-7.056 10.608-1.152 1.128-3.024 2.592-3.36 2.592-.072 0-.696-.528-1.368-1.2-1.416-1.392-1.776-1.488-5.544-1.536l-2.688-.024-.072-.624c-.096-.816.624-3.648.984-3.864.192-.12.264-.768.216-1.872-.024-.936.096-2.376.288-3.192.48-1.992.816-3.816 1.008-5.568.096-.792.408-1.92.696-2.52.312-.6.72-1.632.912-2.28a19.64 19.64 0 0 1 .864-2.352c.288-.648.504-1.392.504-1.656s.384-1.032.84-1.728c.456-.696.84-1.416.84-1.584 0-.288 1.44-3.024 2.064-3.96.192-.264.336-.648.336-.864 0-.816 3.336-6.096 4.944-7.824.336-.36.792-.984.984-1.368.384-.744 6.192-7.272 7.488-8.424a20.196 20.196 0 0 0 1.44-1.392c1.872-2.04 5.448-5.496 6.888-6.648 3.168-2.544 4.272-3.192 5.808-3.312 1.368-.12 1.704-.288 4.08-2.112.36-.264 1.128-.936 1.728-1.512.6-.552 1.896-1.656 2.88-2.424s2.064-1.68 2.4-2.04c.336-.36 1.32-1.128 2.232-1.728.888-.6 1.608-1.176 1.608-1.272 0-.096.264-.288.6-.432.552-.24.6-.216.6.264 0 .816-.624 2.4-1.464 3.768-.648 1.08-.744 1.392-.624 2.472.096 1.056.24 1.344.96 1.968 1.272 1.104 3.288 2.04 5.016 2.328 1.296.24 1.728.216 2.952-.168 1.584-.48 3-1.392 3-1.92 0-.192-.192-.432-.408-.576-.336-.192-.384-.336-.168-.672.408-.648.936-.648 1.296.024.384.744.984 1.008 1.248.528.168-.288.288-.264.744.168.312.288.768.648 1.032.792.384.24.456.504.408 1.92-.024.912-.072 2.088-.12 2.616-.072.912-.048.96.888 1.272 1.416.48 4.608.24 5.928-.432 1.152-.576 1.632-1.08 1.632-1.704 0-.768-.864-.768-2.232.024-.72.384-1.632.72-2.088.72-.744 0-.768-.024-.624-.744.072-.432 0-.984-.192-1.368a8.32 8.32 0 0 1-.504-1.488c-.168-.816-.36-1.104-1.968-3.144-.432-.552-.792-1.176-.792-1.392 0-.528-2.064-1.104-3.168-.864-1.512.336-3.48 1.944-4.656 3.768-.312.504-.768.912-1.008.888-.216 0-1.152-.408-2.088-.888-2.112-1.104-2.448-1.704-2.04-3.48.168-.696.384-1.368.504-1.488.384-.528.936-2.496 1.2-4.392.24-1.584.216-2.184-.024-3-.504-1.632-1.368-2.952-2.28-3.504-.456-.264-.84-.576-.84-.696 0-.288 1.104-.504 3.36-.696 2.16-.168 2.808.096 4.896 1.824 1.752 1.488 5.184 2.904 7.032 2.904 1.56 0 2.376-.576 2.136-1.536-.192-.816-.888-1.08-2.472-.936-1.344.144-2.256-.12-4.56-1.32-1.608-.816-1.68-1.392-.24-1.608.552-.072 1.872-.408 2.928-.72a88.752 88.752 0 0 1 3.24-.96c.72-.192 1.632-.624 1.992-.96.672-.6 2.088-3.552 2.088-4.368 0-.504-.816-1.92-1.536-2.616-1.848-1.824-3.048-1.416-1.8.6.408.696.48 1.056.336 2.16-.192 1.608-.696 2.76-1.392 3.216-.288.192-1.224.504-2.088.72-.864.216-2.616.648-3.912.984-2.016.528-2.52.6-3.336.384-.696-.192-1.152-.192-1.704 0-.432.168-1.512.384-2.448.504-2.976.36-7.728 1.44-8.64 1.944-.816.456-4.752 1.44-5.76 1.464-1.152 0-5.136-.672-6.336-1.056-.936-.312-3.12-1.584-3.504-2.04-.12-.144-.84-.672-1.56-1.176-.72-.48-1.968-1.536-2.736-2.304-1.68-1.68-4.464-5.832-4.464-6.672 0-.312-.384-1.248-.84-2.064-1.176-2.112-4.536-4.8-7.92-6.36-.792-.36-1.608-.84-1.776-1.056-.192-.216-.696-.552-1.128-.768-.432-.216-1.44-1.176-2.28-2.16-.816-.984-1.584-1.776-1.68-1.776-.216 0-1.152-1.944-1.704-3.6-.216-.6-.576-1.68-.816-2.4-.384-1.104-.456-1.992-.432-5.448.024-2.832.168-4.656.408-5.76.216-.912.576-2.496.792-3.552.864-3.984 3.168-10.008 4.608-12.072.264-.36.6-1.08.792-1.608.168-.528.6-1.392.912-1.92.312-.528 1.056-1.944 1.632-3.12 2.256-4.728 4.752-8.832 6.888-11.4 1.392-1.656 3.024-3.888 3.024-4.128 0-.072.24-.24.552-.312.744-.24 2.04-1.512 2.592-2.568.24-.48.768-1.368 1.176-1.944 1.032-1.536 9.12-9.336 11.4-10.992a107.13 107.13 0 0 0 2.736-2.064c.456-.384 1.104-.84 1.44-1.056.336-.216 1.008-.72 1.464-1.128.768-.672 7.08-4.608 7.392-4.608.072 0 .576-.192 1.104-.456 1.2-.528 6.936-3.072 7.944-3.504 1.2-.504 4.032-1.488 5.04-1.752a44.25 44.25 0 0 0 2.28-.624c.72-.192 2.4-.504 3.72-.648 1.32-.144 2.664-.36 3-.48.984-.336 4.68.024 5.688.528zm27.864 96.12c.048 3.48-.048 5.76-.288 7.416-.192 1.32-.408 2.952-.504 3.648-.216 2.016-1.2 4.896-2.568 7.608-1.272 2.52-1.488 2.4-1.848-.96-.36-3.36.072-7.344 1.68-15.144.696-3.432 2.544-7.896 3.168-7.68.216.072.312 1.488.36 5.112zm23.04 34.464c-.048 1.584.048 1.896.744 3.144.456.768 1.44 1.944 2.208 2.616.768.672 1.344 1.32 1.272 1.44-.192.288-8.28.024-9.096-.288a3.816 3.816 0 0 0-1.224-.24c-.312 0-.576-.072-.576-.192 0-.264.84-1.512 1.536-2.304.336-.384.624-.792.624-.888 0-.096.408-.6.912-1.128.48-.528 1.464-1.608 2.16-2.424.696-.816 1.32-1.464 1.392-1.464.048 0 .072.792.048 1.728zm-13.872 22.32c.288.96.768 2.352 1.08 3.072.696 1.632.96 4.224.576 5.544-.168.528-.768 1.464-1.32 2.088-.576.624-1.056 1.2-1.056 1.296-.024.624-3.6 1.224-3.96.672-.072-.144-.36-.24-.6-.24-.6 0-1.68-1.344-1.68-2.112 0-.36.216-1.032.456-1.488.264-.456.648-1.224.864-1.68 1.8-3.888 4.584-8.88 4.944-8.88.096 0 .384.792.696 1.728zm14.496 16.44c.312.24.84.912 1.176 1.512.552.96 2.328 3.552 3.384 4.92.216.264.6.768.888 1.152.624.84.768 2.424.24 2.904-.96.816-2.496.624-3.672-.504-.504-.48-.672-.864-.672-1.56 0-.672-.168-1.104-.576-1.512-.312-.312-.648-.912-.744-1.296-.096-.48-.312-.744-.648-.792-.432-.072-.48-.264-.528-1.872-.048-1.128-.216-2.088-.456-2.568-.216-.432-.408-.84-.408-.936 0-.264 1.44.12 2.016.552zm94.488 3.072c.72 1.224 1.32 1.128 1.176-.216-.072-.744.456-.192.72.768.312 1.128.312 2.208 0 2.208-.12 0-.24-.12-.24-.24 0-.696-1.128-1.416-2.472-1.56l-1.416-.192.096.696c.072.648.168.696 1.272.816 1.536.144 2.688.984 2.976 2.136.336 1.248.576 3.288.624 5.064.096 2.472.336 4.368.6 4.704.192.216.168.552-.12 1.2-.432 1.008-.312 1.56.528 2.688.792 1.032 1.44 3.672 1.752 7.08.144 1.464.36 3.336.48 4.128.288 1.68.384 5.592.144 5.808-.072.072-.144.672-.144 1.296s-.144 1.296-.288 1.464c-.168.168-.36.912-.384 1.632-.048.72-.336 1.848-.648 2.52-1.56 3.432-1.8 3.984-1.8 4.272 0 .432-1.872 4.032-2.4 4.608-.24.264-.504.72-.576.984-.096.288-.36.696-.624.936-.264.24-.48.552-.48.696 0 .264-2.592 2.76-4.92 4.776-2.088 1.8-4.344 2.568-7.44 2.568-1.32.024-2.304.12-2.52.312-.744.6-3.576 4.776-4.656 6.864-.24.48-.576.936-.744 1.056-.192.096-.6.744-.912 1.464-.336.696-.96 1.704-1.416 2.208-.984 1.152-3.312 4.536-3.312 4.848 0 .12-.144.36-.336.504-.192.168-.648.888-1.008 1.632-.48.936-.888 1.416-1.368 1.584-.48.168-.648.36-.576.648.072.24-.12.816-.408 1.272-.984 1.632-2.352 3.528-2.544 3.528-.12 0-.648.576-1.2 1.248-.552.696-1.488 1.584-2.064 1.944-.576.384-1.104.936-1.2 1.2-.264.864-3.672 4.008-4.32 4.008-.168 0-.336.072-.384.168-.192.432-2.808 2.184-3.672 2.472-.528.168-1.176.384-1.44.504-1.368.528-1.944.456-2.88-.408-.504-.456-1.128-.816-1.368-.816-.576 0-1.392.84-1.392 1.44 0 .48-.096.48-1.728.336-1.512-.12-1.824-.096-2.328.312-.48.384-.528.552-.288.96.288.576 1.992 1.032 3.744 1.032 1.44 0 1.656.456 1.08 2.16-.264.72-.456 1.512-.48 1.728 0 .216-.384.696-.84 1.056-.888.672-1.056 1.296-.504 1.752.408.336.24 1.104-.384 1.92-.24.312-.432.744-.432.96 0 .24-.312.648-.72.936-.384.312-.936.96-1.2 1.488-.264.504-.696.984-.96 1.08-.24.072-1.056.72-1.8 1.416-1.704 1.632-1.728 2.424-.144 2.904.504.144.864-.096 2.832-2.16 2.04-2.16 2.832-3.288 4.392-6.312.6-1.176 1.08-1.464 1.656-1.056.216.168.768.456 1.224.648.456.216 1.056.576 1.32.816s.696.504.96.6c.264.072.672.456.888.864.216.384.576.72.768.72.216 0 .648.408.96.888.336.504 1.296 1.656 2.16 2.544.864.912 1.584 1.8 1.584 1.968 0 .192.336.552.72.84.408.288.72.696.72.936 0 .24.216.72.48 1.056.264.336.48.696.48.792 0 .096.216.408.456.672.24.288 1.008 1.584 1.68 2.88.696 1.296 1.464 2.688 1.728 3.072.288.384.84 1.368 1.248 2.184.408.816.984 1.872 1.296 2.328.312.456.552.984.552 1.176 0 .384 2.544 4.44 3.696 5.88 1.368 1.704 2.856 3.264 3.12 3.264.144 0 .456.336.672.72.216.408.696.84 1.032.96.336.12.672.408.744.6.096.216.504.552.912.768.408.192 1.008.624 1.344.912.336.312 1.104.816 1.728 1.128 1.632.792 4.272 2.352 5.112 2.976.408.288 1.32.816 2.04 1.176 3.12 1.56 6.312 4.08 6.72 5.28.144.432.528 1.032.864 1.344.72.672 2.568 4.416 2.928 5.904.168.792.168 1.08-.096 1.296-.504.432-1.776 2.808-1.776 3.36 0 .936-4.632 4.992-6.504 5.712-.456.168-1.296.552-1.896.816-1.704.768-2.64 1.032-6.12 1.608-.528.072-1.296.312-1.68.528-.744.408-3.096 1.152-3.576 1.152-.168 0-1.32.336-2.568.744s-3.36.936-4.728 1.176c-1.344.264-2.688.6-2.976.744-.672.36-5.88.312-7.44-.072-.984-.24-1.248-.216-2.4.288-.696.288-1.752.96-2.328 1.464-.576.528-1.152.936-1.248.936-.12 0-.216.144-.216.312 0 .336-1.2 1.608-1.512 1.608-.096 0-.168-.144-.168-.336 0-.192-.312-.456-.72-.6-.624-.192-.72-.36-.72-1.104 0-.672.216-1.08.984-1.92 1.056-1.152 2.208-1.608 5.808-2.376.912-.192 1.776-.456 1.92-.6.432-.432-.192-.816-1.248-.792-.624.024-.984-.072-1.08-.312-.072-.192-.408-.36-.72-.36-.552 0-.624-.12-.768-1.488-.12-1.08-.312-1.632-.744-2.04-.288-.312-.552-.648-.552-.744.024-.48 6.072-6.288 6.552-6.288.168 0 1.224-.384 2.328-.864 3.12-1.32 7.296-2.448 8.064-2.16.192.072.336.312.336.552 0 .72 1.392 2.184 2.52 2.688.576.24 2.04.576 3.288.696 1.224.144 2.832.432 3.552.672.72.216 1.92.456 2.64.504 1.104.096 1.416.024 1.776-.384.624-.696.36-1.632-.504-1.8-.384-.072-1.92-.24-3.432-.384-3.288-.312-6.24-.936-6.24-1.344 0-.144-.24-.456-.528-.648-.528-.36-.504-.384.768-.384 1.8 0 3.912-.264 4.248-.552.168-.144.432-.12.744.072.504.312.624.288 2.208-.624.336-.192 1.392-.576 2.328-.864 1.968-.576 2.352-.912 2.136-1.776-.192-.792-.96-.792-3.288.024-1.536.528-2.184.624-4.896.648-1.704 0-3.816-.072-4.68-.168-2.016-.24-5.472-1.32-5.832-1.824-.168-.24-.6-.408-1.032-.408-1.2 0-4.872-1.536-5.976-2.472-.264-.24-1.032-.696-1.728-1.056-.696-.336-1.344-.768-1.44-.96-.096-.168-.552-.504-1.008-.744-.456-.216-.936-.504-1.08-.624-.144-.12-.888-.696-1.632-1.296-.768-.6-1.512-1.08-1.656-1.08-.168 0-1.128-.84-2.184-1.848-1.032-1.032-2.064-1.968-2.304-2.088-.504-.288-4.608-4.512-4.608-4.776 0-.096-.648-.864-1.416-1.68-1.392-1.44-2.664-3.12-2.664-3.504 0-.096-.312-.408-.72-.696-.384-.288-.936-1.032-1.2-1.632-.288-.6-.888-1.584-1.344-2.16-.432-.6-.816-1.2-.816-1.32 0-.144-.264-.528-.6-.888-.336-.36-.6-.744-.6-.864s-.264-.576-.6-1.008c-.336-.432-.6-.864-.6-.96 0-.096-.264-.528-.6-.96-.336-.432-.6-.936-.6-1.152 0-.528-.96-1.104-1.824-1.104-.576 0-1.224-.408-3.024-1.992-1.272-1.08-2.352-2.184-2.448-2.472-.072-.264-.36-.744-.624-1.056-.264-.312-.48-.72-.48-.936 0-.216-.144-.624-.336-.888-.888-1.272-1.608-2.88-1.464-3.384.096-.384 0-.552-.336-.672-.936-.288-1.992-5.28-1.224-5.76.144-.072.24-.384.24-.672 0-.552.624-2.52.936-2.928.096-.12.312-1.008.48-1.92.168-.936.456-2.16.624-2.76.168-.6.384-1.608.48-2.256.096-.648.384-1.464.648-1.824.264-.384.576-1.176.696-1.776.12-.624.48-1.488.84-1.968.36-.456.744-1.32.84-1.944.12-.624.408-1.56.648-2.088.24-.552.624-1.416.864-1.92.24-.528.792-1.512 1.248-2.208.456-.672.816-1.392.816-1.584 0-.216.168-.528.384-.696.216-.192.6-.768.816-1.296.384-.888 1.416-2.544 2.808-4.536.288-.408.528-.864.528-.984.024-.144.288-.528.624-.888s.6-.72.6-.816c0-.096.408-.72.912-1.392a35.276 35.276 0 0 0 1.344-1.92c.24-.36 1.2-1.464 2.136-2.424.96-.96 2.472-2.688 3.384-3.816.936-1.128 2.376-2.616 3.24-3.312.888-.672 1.968-1.68 2.424-2.208.456-.552 1.44-1.608 2.208-2.376.768-.768 1.392-1.488 1.392-1.608 0-.096.336-.312.72-.48.408-.168.72-.36.72-.456 0-.072.36-.48.792-.912.408-.408 1.536-1.512 2.472-2.448.96-.936 1.848-1.704 2.016-1.704.144 0 .624-.264 1.032-.576.432-.312 1.824-1.128 3.12-1.824 6.936-3.696 16.872-3.936 20.472-.504.408.384 1.224.84 1.8 1.008 1.248.36 1.656.624 1.656 1.104 0 .192.216.672.504 1.08.672.912 1.728.888 1.848-.072.144-1.152-2.448-4.296-3.528-4.296-.24 0-.624-.216-.864-.48-.408-.456-.672-.552-3-1.2-.6-.168-1.728-.552-2.544-.864-1.248-.456-1.944-.552-4.68-.576-3.264 0-5.52.336-8.112 1.296-.576.216-1.248.384-1.488.384-.432 0-2.016.792-3.816 1.896-.456.264-1.056.504-1.344.504-.48 0-.504-.072-.264-1.224.168-.912.168-1.56-.048-2.4-.168-.648-.24-1.512-.144-1.92.216-.96 1.824-2.472 3.168-3 .552-.216 1.176-.648 1.368-.936.192-.288.6-.6.912-.672.312-.072 1.68-.624 3.072-1.248 1.416-.624 3.048-1.152 3.72-1.224.672-.072 1.68-.336 2.256-.6.576-.24 1.416-.456 1.848-.456.432 0 1.416-.192 2.184-.408.768-.216 1.944-.408 2.592-.432.672-.024 1.464-.192 1.8-.36 1.152-.624 4.608-.984 9.288-.96 3.864 0 4.656-.048 4.968-.384.576-.576.456-1.2-.312-1.752-.648-.456-1.08-.504-4.392-.552-2.016 0-4.272.096-4.992.24-6.816 1.392-7.224 1.464-9.312 1.608-1.056.072-2.136.336-2.712.6-.504.264-1.392.48-1.992.48-.696 0-1.488.216-2.208.6-.624.336-1.296.6-1.512.6-.552 0-4.872 1.656-5.304 2.04-.192.168-.792.528-1.344.792a15.28 15.28 0 0 0-2.136 1.392l-1.176.888-.504-.648c-.936-1.176-1.752-.648-2.256 1.512-.312 1.2-.288 1.32.096 1.608.384.288.408.48.192 1.56-.168.816-.168 1.536-.024 2.088.432 1.56-.144 3.912-1.272 5.208-.216.264-.648.936-.936 1.512-.6 1.152-5.304 6.048-5.808 6.048-.168 0-1.344-1.056-2.616-2.352-3.216-3.288-4.728-5.136-6.288-7.608-.144-.264-.72-.936-1.272-1.488-.912-.96-.984-1.152-1.248-3.168-.288-2.088-1.056-4.344-1.488-4.344-.336 0-1.944-3.528-2.28-5.04a95.889 95.889 0 0 0-.72-2.76c-.624-2.16-.576-6.384.12-8.88.528-1.872 1.752-4.2 2.232-4.2.144 0 .576.264.984.576.864.648 2.52 1.344 4.656 1.968 1.632.456 3.672.504 12.288.312 4.512-.096 5.688-.264 8.16-1.104a80.23 80.23 0 0 1 3.6-1.032c4.464-1.152 5.112-1.392 5.328-1.776.12-.216.456-.384.744-.384.576 0 3.384-1.368 4.584-2.232 1.632-1.176 2.472-1.392 5.16-1.32 2.352.048 2.64 0 3.984-.624 2.64-1.248 4.056-3.12 3.936-5.16-.072-1.176.336-2.712.84-3.12.24-.192.744-.168 1.872.144 1.344.336 1.752.36 2.856.12 5.352-1.224 5.616-1.224 6.24-.168zm-44.328 7.248c-.384.888-.384 2.4 0 3.144.432.84 2.832 2.112 4.512 2.4.552.096 1.032.288 1.08.432.072.24-.984.432-5.28.984-.768.096-1.032.024-1.608-.528-.552-.528-.792-.6-1.512-.48-.936.192-1.656-.12-3.144-1.296-1.704-1.368-2.352-3.024-1.272-3.24 3.216-.696 4.32-.96 5.448-1.344 1.752-.576 2.016-.576 1.776-.072zm-16.296.912c1.392.312 3.504.552 5.088.576.696.024.84.168 1.536 1.488.552 1.032 1.2 1.776 2.184 2.544.792.6 1.368 1.2 1.32 1.344-.048.168-.888.408-1.872.576-2.16.336-5.184.024-6.528-.648-.504-.264-1.08-.48-1.296-.48-.624 0-4.104-1.968-4.848-2.736-.84-.912-1.152-2.424-.552-2.76.576-.336 3.312-.264 4.968.096zM28.152 199.32c.984.144 1.224.264 1.56.888.24.408.696 1.08 1.056 1.512.984 1.152 1.176 1.896 1.32 4.92.168 3.816-.336 6.816-1.656 9.624-.528 1.176-1.128 2.136-1.296 2.136-.336 0-.528-.84-.624-2.64-.072-.984-.144-1.08-.72-1.152-1.032-.12-1.488.816-1.272 2.544.168 1.344 1.104 3.6 1.632 3.936.456.288 2.088.216 3-.096.72-.264.84-.264 1.152.168.192.24.336.552.336.648 0 .312-.888.6-2.784.912-2.232.384-3.432.144-3.936-.84-.384-.792-.456-2.928-.144-4.824.168-1.032.144-1.248-.216-1.368-.504-.216-1.704.408-2.04 1.032-.144.264-.576.648-.96.84-1.728.888-2.448 3.072-2.424 7.272.024 3.288-.24 3.72-.984 1.584-.336-.96-.408-1.752-.336-4.224.096-2.64.192-3.24.72-4.392.408-.888.792-1.392 1.2-1.56.48-.168.624-.408.624-.96 0-.672-.072-.72-.84-.72-1.32 0-2.136 1.176-3.144 4.536-.048.168-.264.24-.456.168-.552-.192-1.488.504-3.264 2.376-1.608 1.728-2.472 3.312-2.76 5.136-.096.576-.264.96-.432.912-.432-.144-.72-3.264-.384-4.368.384-1.32 1.344-2.52 2.016-2.52.648 0 1.104-.432 1.104-1.008 0-.624 1.392-1.392 2.52-1.392 1.152 0 1.68-.288 1.488-.816-.408-1.032-3.024-.816-4.512.36-.552.432-1.176.696-1.656.696-1.92 0-5.256 1.248-6.36 2.376-.768.792-1.44.96-1.632.408-.408-1.056 2.904-5.4 4.488-5.88.408-.12 1.488-.288 2.4-.36 1.44-.12 1.8-.048 2.976.504 1.464.696 2.064.576 2.112-.456.024-.312.192-.84.408-1.176.264-.384.432-1.32.504-2.616.096-1.608.288-2.496.96-4.2 1.512-3.792 4.176-7.08 5.736-7.08.288 0 .792-.168 1.08-.384.768-.528 1.728-.792 2.568-.696.408.048 1.248.168 1.872.24zm154.344 11.016c.792.576 1.656 1.248 1.872 1.512.936 1.032 1.848 8.88 1.152 9.912-.216.312-.336.24-.816-.336a7.484 7.484 0 0 1-.888-1.32c-.192-.336-.552-1.008-.816-1.464a10.788 10.788 0 0 1-.816-1.68c-.192-.456-.648-1.584-1.056-2.496-.72-1.584-.72-1.656-.336-2.328.408-.744.336-1.296-.216-1.512-.48-.192-.432-1.344.048-1.344.216 0 1.056.48 1.872 1.056zm-3.624 3.744c.288 0 .624.432 1.032 1.368.336.768.696 1.584.84 1.8.384.744.264.888-1.44 1.752-.912.456-1.752.936-1.824 1.08-.096.144-.624.6-1.152.984-1.464 1.056-3.96 3.36-6.72 6.216a494.288 494.288 0 0 1-5.016 5.088c-1.44 1.416-2.592 2.712-2.592 2.904 0 .192-.552.864-1.224 1.512-.648.648-1.656 1.8-2.208 2.592-.552.768-1.728 2.256-2.616 3.312-.912 1.032-1.752 2.136-1.896 2.424-.168.288-.672.984-1.152 1.536-2.352 2.736-2.832 3.336-4.272 5.16-.84 1.104-1.8 2.4-2.136 2.88-.312.504-.744.912-.912.912-.192 0-.696-.6-1.104-1.32-.408-.72-.84-1.368-.984-1.44-.12-.096-.216-.312-.216-.528 0-.576 2.496-5.496 3.792-7.44 2.064-3.144 3.96-5.928 4.704-6.912.408-.528.96-1.344 1.2-1.8.264-.456 1.008-1.512 1.68-2.304.672-.816 1.872-2.328 2.64-3.36 1.752-2.304 6.816-7.344 8.712-8.664.768-.528 2.976-2.088 4.92-3.456 5.52-3.912 6.504-4.512 7.032-4.416.264.072.672.12.912.12zm3.936 7.248a14.022 14.022 0 0 0 1.464 1.8c.432.432.744.888.672 1.008-.192.288-4.152 1.944-4.68 1.944-.216 0-.624.168-.888.36-.24.192-.648.36-.888.36-.552 0-2.736.912-6.048 2.52-2.712 1.296-3.72 1.656-3.72 1.32 0-.24 3.888-4.032 5.688-5.544 2.808-2.376 3.288-2.76 4.056-3.168a16.35 16.35 0 0 0 1.68-1.008c1.296-.888 1.896-.792 2.664.408zm5.736.792c.336.6.6 1.128.552 1.152-1.224.84-2.232.528-2.016-.624.408-1.992.576-2.04 1.464-.528zm-158.928 3.048c.096.552 0 1.08-.384 1.848-.72 1.464-1.296 1.56-1.512.288-.216-1.32.024-2.304.672-2.616.864-.408 1.056-.336 1.224.48zm158.76.528c.216.24.72.312 1.944.24 1.92-.12 1.944-.072 1.176 1.512-.816 1.68-1.08 1.776-4.488 1.512-4.296-.336-5.016-.024-9.072 3.984-.912.912-1.848 1.968-2.064 2.376-.192.384-.552 1.032-.768 1.44-.216.384-.384.888-.384 1.104 0 .216-.168.528-.36.696-.408.36-.504 2.52-.096 2.76.312.192 1.416-.24 2.904-1.152 1.056-.624 1.224-.672 2.04-.408 1.392.456 1.512.624 1.344 1.944-.168 1.44.312 3.936.96 4.848.36.528.624.648 1.2.6 1.128-.12 1.344-.696.6-1.8-.36-.504-.768-1.56-.912-2.328l-.288-1.44.768-.624c.696-.576.768-.744.648-1.416a1.816 1.816 0 0 1 .24-1.416c.672-1.104 2.928-3.144 3.624-3.312 1.416-.312 1.848-.504 1.92-.912.216-1.08-1.128-1.416-2.76-.696-1.512.696-3.912 2.712-3.912 3.312 0 .12-.24.552-.552.912-.48.624-.576.648-1.32.384-.48-.168-1.368-.216-2.112-.144-.696.072-1.344.048-1.416-.072-.312-.48.672-1.92 2.664-4.008 2.328-2.4 3.072-2.76 5.496-2.76.648 0 2.16.024 3.36.024 2.328 0 2.616-.096 4.056-1.536.48-.456.984-.84 1.176-.84.168 0 .792.48 1.368 1.08.576.6 1.176 1.08 1.344 1.08.408 0 .6.696.336 1.176-.12.24-.624.792-1.104 1.2a19.83 19.83 0 0 0-1.8 1.896c-1.128 1.368-3.168 3.6-5.184 5.688-.84.864-1.512 1.656-1.512 1.776 0 .12-.744 1.104-1.68 2.184-.912 1.08-1.8 2.184-1.944 2.472a41.56 41.56 0 0 1-1.44 1.992c-.648.816-1.176 1.656-1.176 1.872 0 .192-.408.936-.936 1.608-.504.672-1.464 2.256-2.112 3.528a262.372 262.372 0 0 1-1.824 3.528c-.984 1.896-2.088 4.464-2.088 4.848 0 1.464-4.128 2.304-6.72 1.344-1.272-.456-2.4-1.416-2.4-2.04 0-.24.504-.792 1.176-1.272 2.352-1.704 4.104-4.464 4.728-7.56.312-1.632.384-2.88.288-6.48-.12-4.776-.288-5.52-1.248-5.52-.912 0-1.224.576-.888 1.632.84 2.496.936 3.384.744 6.936l-.168 3.552-1.056 2.04c-1.104 2.112-2.232 3.6-2.76 3.6-.192 0-.36-.408-.432-1.032-.048-.552-.216-2.088-.36-3.408-.168-1.32-.384-2.496-.504-2.616-.144-.144-.24-.528-.24-.888s-.168-.96-.36-1.32c-.192-.384-.36-.912-.36-1.176 0-.264-.144-.72-.336-.984-.192-.264-.408-.864-.504-1.32-.096-.432-.408-1.296-.696-1.896-.432-.912-.624-1.104-1.272-1.152-1.128-.12-1.272.672-.384 1.944.816 1.152 2.256 5.664 2.832 8.904.432 2.304.312 6.24-.216 8.304-.384 1.464-1.272 3.12-1.704 3.12-.528 0-1.8-.96-3.144-2.376-1.32-1.392-.912-1.248-6.936-2.544-3.768-.816-6.336-.072-4.944 1.416.432.456.816.624 1.44.6.48-.024 1.68.168 2.664.384.984.216 2.568.48 3.528.6.984.096 1.968.36 2.28.576.312.216.912.672 1.344.984 2.16 1.56 4.704 4.512 6.024 6.96.816 1.488 1.632 3.816 2.184 6.12.168.72.48 1.632.672 2.04.408.792.6 4.992.264 5.64-1.056 2.04-.288 4.488 1.344 4.272.576-.072.744.12 1.728 1.944.6 1.104 1.176 2.136 1.296 2.28.48.576 1.32 2.016 2.016 3.384a35.567 35.567 0 0 0 1.488 2.688c.432.696.792 1.32.792 1.392 0 .096.792 1.392 1.752 2.904a702.04 702.04 0 0 0 3.456 5.568c.936 1.536 2.184 3.336 2.76 4.008 1.344 1.512 3.792 5.256 4.176 6.384.864 2.448.576 6.816-.552 8.928-.384.696-1.368 1.968-2.232 2.832-1.896 1.92-5.472 5.736-7.488 8.016-.84.912-2.016 2.16-2.616 2.76-.6.6-1.296 1.392-1.536 1.776-.24.408-.768.984-1.176 1.32-1.704 1.416-4.536 4.464-4.848 5.232-.192.432-.696 1.2-1.128 1.704-.456.48-.936 1.224-1.104 1.656-.168.408-.552.984-.84 1.248-.48.456-.6.48-.84.168-.168-.192-.24-.48-.144-.6.072-.144.072-.648-.024-1.104-.12-.624-.36-.96-.864-1.224-.696-.36-.72-.408-.552-1.704.096-.72.36-1.656.624-2.088.672-1.152 1.176-2.976 1.176-4.32 0-1.392-.672-2.304-1.656-2.304-1.008 0-1.248.672-.936 2.4.264 1.392.24 1.56-.288 2.616-.624 1.176-2.952 3.672-3.672 3.936-.264.096-.48.024-.552-.192-.096-.192-.288-.36-.48-.36-.576 0-.384-.624.672-2.136.792-1.176.984-1.632.96-2.424-.072-1.368-.48-1.944-1.368-1.872-.696.072-.72.12-.792 1.416-.048.936-.216 1.488-.504 1.752-.408.384-.48.36-.96-.456-.264-.48-.576-1.128-.648-1.44-.24-.936-.96-1.44-1.728-1.176-.912.312-.912.96.072 2.832.456.888.84 1.896.84 2.208 0 .336.168.864.384 1.2.264.384.432 1.296.504 2.76.096 2.04.048 2.232-.576 3.264-.936 1.536-2.04 2.664-2.808 2.856-.96.24-1.248-.168-.912-1.296.408-1.392.36-1.776-.408-2.832-.384-.504-1.056-1.8-1.488-2.856-.768-1.8-.816-2.064-.792-4.56l.024-2.64 1.032-1.512c.696-1.032 1.128-1.464 1.368-1.392 1.56.6 2.136.36 2.376-1.032.312-1.8 1.104-2.232 4.512-2.544.912-.072 1.872-.288 2.16-.48.264-.192.696-.36.936-.36.672 0 1.848-.936 1.848-1.464 0-.72-.528-.768-2.064-.216-2.352.864-3.288 1.128-4.584 1.272-1.104.12-1.272.096-1.272-.264 0-.408.936-1.944 1.704-2.76.216-.24.6-.792.84-1.272.24-.456.672-.888.936-.96.264-.096.864-.48 1.344-.864.864-.696.912-.696 1.512-.312.576.384.624.384.768.024.072-.216.024-.528-.12-.696-.336-.432.072-.936 1.296-1.536 2.592-1.32 3.648-1.752 4.224-1.752.336 0 .72-.12.864-.264.528-.528 8.592-.12 10.728.528.384.12.96.216 1.296.216.336 0 1.08.216 1.656.504.792.384 1.128.432 1.368.24.408-.336.624-1.08.408-1.44-.456-.72-7.752-1.92-11.928-1.992l-2.424-.024.24-.768c.192-.648.576-.936 2.664-1.992 1.32-.696 2.808-1.32 3.264-1.392a8.324 8.324 0 0 0 1.488-.48c.792-.408 2.352-.432 3.168-.072.48.24.72.192 1.416-.24 1.224-.744 1.488-1.128 1.104-1.608-.24-.288-.576-.336-1.704-.216-.792.096-1.776.216-2.184.24-3.36.336-5.448 1.056-8.928 3.096-.792.456-1.56.84-1.704.864-.144 0-.6-.456-1.008-1.032a31.16 31.16 0 0 0-1.488-1.848c-.408-.456-1.008-1.224-1.296-1.68-.312-.456-.912-1.224-1.368-1.68-.84-.888-2.016-2.376-2.64-3.36-.216-.336-.72-.96-1.128-1.392a11.731 11.731 0 0 1-1.224-1.584 10.494 10.494 0 0 0-1.08-1.416c-.312-.336-1.08-1.272-1.704-2.088-.624-.816-1.392-1.752-1.704-2.088-.312-.336-.576-.768-.576-.96 0-.168-.432-1.008-.96-1.848-.528-.84-.96-1.656-.96-1.824 0-.168-.312-.696-.72-1.2-.384-.504-.72-1.128-.72-1.416 0-.312-.144-.504-.432-.504-.408 0-1.968-2.64-1.968-3.312 0-.168-.312-.576-.696-.912-.384-.312-.768-.864-.84-1.224-.096-.384-.456-1.104-.84-1.632-.648-.96-1.656-3.408-2.184-5.4-.168-.6-.504-1.728-.744-2.52s-.504-1.992-.576-2.64c-.096-.672-.312-1.584-.48-2.04-.192-.456-.504-1.56-.696-2.424-.408-1.848-2.04-5.376-3-6.552-.192-.216-.432-.816-.528-1.344-.12-.528-.336-1.416-.48-1.992-.144-.552-.312-2.112-.384-3.48-.12-2.352-.096-2.448.384-2.448.624 0 .696-.984.12-1.464-.216-.192-.312-.504-.24-.84.096-.312.264-1.872.384-3.48.192-2.448.336-3.048.792-3.672.576-.792 1.128-2.352 1.128-3.24 0-1.152 3.336-4.32 5.952-5.64.624-.312 2.136-1.224 3.312-2.016 2.04-1.344 3.216-1.944 3.216-1.608 0 .216-.792 1.392-1.104 1.68-.24.192-1.488 1.992-2.808 4.056-.168.24-.456.672-.648.96-.192.264-.696 1.152-1.08 1.944-.408.792-.792 1.488-.864 1.56-.072.072-.216.432-.312.816-.096.408-.384 1.008-.648 1.368-.24.36-.456.864-.456 1.128 0 .288-.096.576-.24.648-.768.48.264 2.04 1.368 2.04.768 0 2.232 1.536 2.232 2.352 0 .552.96 1.728 1.44 1.728.408 0 1.296-1.2 4.224-5.64.36-.528 1.152-1.56 1.776-2.28.6-.72 1.32-1.656 1.584-2.04.24-.408.624-.864.864-1.008.216-.168.624-.696.912-1.152.504-.84 1.176-1.656 3.024-3.696.528-.624 1.08-1.272 1.248-1.464.144-.192.792-.96 1.416-1.704.624-.744 1.8-2.112 2.592-3.024 1.464-1.728 1.776-1.944 7.8-5.04.6-.312 1.248-.648 1.44-.768.912-.528 5.568-2.664 5.784-2.664.144 0 .6-.144 1.008-.336a26.902 26.902 0 0 1 2.208-.72c.792-.24 1.872-.624 2.4-.888 1.032-.48 3.648-1.368 4.104-1.392.144-.024.408.12.552.312zm-22.992 41.232c1.464.984 2.592 1.248 4.968 1.224 2.568-.048 2.616.024 1.608 1.944-.336.624-.6 1.248-.6 1.368 0 .144-.216.72-.48 1.272-.24.576-.576 1.536-.72 2.136-.12.6-.456 1.656-.72 2.328-.264.672-.48 1.56-.48 1.992 0 .744-.336 1.368-.744 1.368-.192 0-.648-1.176-1.416-3.768-.264-.936-.648-1.848-.84-1.992-.192-.168-.528-.84-.72-1.512-.408-1.344-1.464-3.288-1.8-3.288-.12 0-.408-.264-.624-.6-.384-.6-.384-.648.408-1.8.456-.672.936-1.2 1.08-1.2.144 0 .624.24 1.08.528zm38.328 71.352c.12 1.32.576 2.04 1.944 3.072.744.576 1.536 1.104 1.776 1.2.648.24.48.84-.288 1.008-.456.096-.888.432-1.2.984-.528.912-1.224 1.104-1.224.336 0-.312-.264-.6-.648-.792-.36-.144-1.128-.744-1.68-1.32-1.128-1.104-1.248-1.728-.768-3.48.48-1.776 1.944-2.472 2.088-1.008zM159.6 355.512c0 .456-1.632 3.168-2.256 3.744l-.6.552-.84-.528c-.888-.528-1.056-.816-.624-1.08.144-.072.24-.672.24-1.32 0-1.128.024-1.176.792-1.32.408-.096.888-.24 1.008-.336.144-.072.576-.264.96-.408.576-.192.768-.168 1.032.12.144.192.288.456.288.576zm.864 3.768c-.672 1.2-1.848 2.4-2.352 2.4-.648 0-.528-.576.288-1.152.408-.312.72-.744.72-1.008s.096-.48.24-.48c.12 0 .48-.384.768-.84.528-.768.552-.792.696-.288.072.312-.072.888-.36 1.368zm2.352.864c.528 1.368-.312 3.048-1.728 3.48-1.584.456-2.712-.648-1.368-1.344.6-.312 1.704-1.416 2.04-2.04.312-.576.864-.624 1.056-.096zm46.992.12c1.176-.048 1.296.288.36 1.008-.432.336-1.248 1.464-1.824 2.544-.864 1.608-1.152 1.944-1.632 1.944-.432 0-.672-.216-.96-.912-.312-.768-.336-1.008-.048-1.848.216-.624.576-1.056 1.008-1.272.384-.192.72-.48.792-.672.048-.192.144-.504.216-.72.096-.264.264-.312.648-.192.312.096.96.144 1.44.12zm-43.416 2.88c-.192 1.296-.192 1.296-1.584 1.968-1.08.504-1.488.6-1.848.408-.72-.384-.576-.864.36-1.296.984-.48 1.8-1.872 1.8-3.072v-.792l.744.744c.72.72.744.792.528 2.04zM92.784 11.976c-.264.384 2.616 2.784 3.84 3.216 1.032.36 3.6 1.632 7.104 3.48.576.288 1.152.672 1.272.84.432.528 2.184 1.608 2.592 1.608.216 0 .408-.144.408-.312 0-.336-.744-1.128-1.056-1.128-.096 0-.864-.672-1.704-1.512-1.056-1.056-2.136-1.824-3.552-2.52-1.128-.552-2.16-1.008-2.328-1.008-.144 0-.552-.216-.888-.48-.336-.264-.768-.48-.936-.48-.192 0-1.152-.432-2.16-.96-1.872-.984-2.376-1.128-2.592-.744zm20.088 10.728c-.096.24.432.912 1.632 2.088 2.016 1.968 2.76 2.904 3.696 4.608.36.648.984 1.68 1.368 2.256.384.576 1.008 1.656 1.416 2.4.384.744.888 1.608 1.08 1.944.192.336.768 1.536 1.296 2.688.576 1.272 1.104 2.112 1.32 2.112.6 0 .432-1.848-.336-3.768-.888-2.136-1.272-2.76-2.952-4.752-.384-.432-.672-.864-.672-.936 0-.096-.384-.696-.84-1.368-.456-.672-.84-1.368-.84-1.536 0-.144-.24-.48-.504-.744-.288-.24-.864-1.008-1.296-1.656-.912-1.416-3.288-3.72-3.84-3.72-.192 0-.432.168-.528.384zm10.584.216c-.096.216.192.792.672 1.392.432.552.984 1.296 1.224 1.656.216.36.84 1.104 1.368 1.656.528.552.96 1.104.96 1.2 0 .096.48.96 1.08 1.944 1.08 1.704 1.512 2.808 2.16 5.472.432 1.68.432 3.072 0 5.16-.696 3.264-.696 3.456-.192 4.032.432.456.504.984.648 3.84.096 1.8.216 3.624.312 4.056.096.48.072.696-.096.6-.144-.096-.312-.624-.36-1.176a8.1 8.1 0 0 0-.624-2.112c-.264-.6-.552-1.68-.648-2.4-.072-.72-.24-1.416-.336-1.56-.12-.12-.432-1.008-.72-1.944-.624-2.04-1.008-2.64-1.56-2.424-.432.168-.408.384.336 2.976.24.84.336 1.464.216 1.368-.12-.072-.912-1.176-1.752-2.448s-1.872-2.736-2.28-3.264c-.408-.504-.744-1.056-.744-1.224 0-1.032-4.128-7.368-6.12-9.384-.384-.408-.936-.984-1.224-1.32-.888-1.008-3.24-2.976-3.912-3.216-.336-.144-.912-.432-1.272-.696-.744-.48-1.464-.36-1.248.216.144.384 2.064 1.8 2.424 1.8.096 0 .528.336.912.744.408.408 1.344 1.368 2.088 2.112 1.824 1.8 3.648 4.104 4.392 5.616.36.696 1.008 1.944 1.488 2.808.48.864 1.032 2.16 1.248 2.88.384 1.2.48 1.32 1.224 1.44.648.096.84.264.984.816.12.384.456.984.768 1.32.336.336.672.888.768 1.224.096.336.288.72.408.888.624.768 1.152 2.208 1.296 3.48.168 1.56.336 1.776 1.08 1.368.648-.336.792-.144 1.176 1.8.528 2.736.936 3.144 1.728 1.608l.384-.768.216 1.512c.24 1.8.768 2.136 1.416.864.336-.648.384-1.2.264-3.432-.216-3.96-.84-7.68-1.44-8.448-.288-.384 0-1.896.48-2.616.768-1.176.624-6.48-.216-7.392-.096-.144-.192-.504-.192-.816 0-.312-.288-1.056-.648-1.68a91.743 91.743 0 0 0-.96-1.728c-.168-.336-.624-1.032-1.032-1.56-.384-.528-1.128-1.56-1.632-2.28-1.128-1.584-3.72-4.32-4.104-4.32-.144 0-.336.168-.408.36zm-4.296.84c-.12.216.72 2.136 1.056 2.4 1.272.936 6.36 10.464 6.624 12.36.288 2.28.384 2.52.84 2.52 1.104 0 1.296-2.448.36-4.32-.336-.648-.6-1.392-.6-1.632 0-.264-.192-.72-.456-1.032-.24-.312-.792-1.272-1.2-2.136-.432-.864-.96-1.776-1.2-2.04-.216-.264-.984-1.344-1.704-2.4-1.152-1.704-1.848-2.688-2.664-3.672-.288-.336-.84-.384-1.056-.048zm10.128.408c-.336.312-.144.96.6 2.136.768 1.176 2.184 4.68 2.616 6.432.12.504.456 1.584.72 2.352.912 2.736 1.248 5.376.936 7.512-.408 2.784-.36 3.768.312 4.752.552.816.576 1.008.528 4.296-.024 1.896-.144 4.368-.24 5.52-.12 1.464-.096 2.112.072 2.112.384 0 .576-.408.912-1.896.168-.744.408-1.776.552-2.304.312-1.2.336-4.368.048-4.56-.12-.072-.216-.576-.192-1.152.024-.552-.144-1.368-.384-1.824-.504-1.032-.528-1.992-.024-2.976.72-1.344.528-4.536-.48-8.448-.768-2.928-1.128-4.056-2.04-6.24-.12-.264-.48-1.104-.768-1.872-.552-1.344-2.424-4.008-2.808-4.008a.51.51 0 0 0-.36.168zm-22.728 2.376c0 .216.576.936 1.272 1.608.696.696 1.536 1.632 1.848 2.088.312.456 1.008 1.32 1.536 1.92.552.624 1.272 1.608 1.632 2.232.36.624.936 1.248 1.272 1.368.336.12.72.504.888.84.144.312.504.744.768.936.288.168.888 1.056 1.32 1.92.456.864.912 1.584 1.008 1.584.12 0 .12.168.048.408-.096.24-.048.336.096.24.12-.072.24-.576.264-1.104.048-1.008-.432-2.04-1.704-3.696-.72-.936-.984-1.248-2.28-2.808-.384-.456-1.2-1.608-1.8-2.52-1.032-1.608-2.304-2.928-4.488-4.632-1.104-.84-1.68-.984-1.68-.384zm-9.024 1.32c-.216.36.024.528 2.232 1.392 1.08.432 2.088.936 2.256 1.128.144.192.384.336.504.336.504 0 4.248 1.776 5.856 2.784 2.832 1.776 7.056 6.456 8.136 9.024.36.888 1.176 1.392 1.584.984.456-.456-.504-2.592-1.824-4.056-5.616-6.24-7.584-8.064-9.072-8.4-.816-.168-1.512-.552-2.808-1.584a3.877 3.877 0 0 0-1.92-.768c-.6-.048-1.68-.336-2.4-.6-1.488-.552-2.304-.624-2.544-.24zm-15.84 1.248c-.048.168.168 1.344.504 2.592.72 2.664.84 6.264.24 7.392-.192.384-.576 1.512-.84 2.544-.48 1.752-.792 2.304-3.072 5.472a16.176 16.176 0 0 1-1.392 1.608c-.456.48-.816 1.032-.816 1.248 0 .672-3.24 2.424-4.68 2.52-1.8.168-1.944.24-1.44.792.6.648.384.96-1.08 1.536-1.752.72-1.92 1.344-.336 1.344.84 0 1.656-.264 3.312-1.056 1.2-.6 3.072-1.32 4.176-1.608 2.736-.72 5.736-2.376 7.56-4.176 1.824-1.8 3.264-3.768 3.552-4.8.12-.432.504-1.2.84-1.68.864-1.272 1.152-3.168.864-5.664-.264-2.184-1.272-4.896-1.8-4.704-.36.12-.312.624.192 2.328.24.768.408 2.136.384 3.24 0 1.68-.096 2.088-.84 3.6-1.128 2.256-3.096 5.208-4.296 6.456-.84.84-4.128 3.024-4.584 3.024-.432 0-.048-.96.648-1.608.408-.384 1.032-1.128 1.368-1.608.336-.504.84-1.2 1.128-1.56.288-.36.984-1.56 1.584-2.688 1.728-3.36 1.944-5.952.936-11.496-.432-2.328-1.68-4.152-2.112-3.048zM96.6 30c-.12.216 2.544 4.392 3 4.68.12.072.432.024.696-.12.6-.312 1.104-.12 1.416.6.216.456.408.552.984.456.576-.096.84.024 1.44.672 1.32 1.464 1.944 2.232 1.944 2.4 0 .096.336.528.72.96.696.744 1.2 1.968 1.2 2.88 0 .336.192.432.816.432.696 0 .816-.096.936-.672.168-.816-.504-2.376-1.368-3.168-.36-.336-1.2-1.296-1.872-2.16-1.68-2.112-2.928-3.216-4.584-4.128-.768-.408-1.776-1.176-2.208-1.704-.456-.504-.912-.864-1.056-.792-.144.096-.576 0-.96-.216-.84-.432-.912-.432-1.104-.12zm5.784 6.168c-.264.264-.144.552.216.552.192 0 .36-.096.36-.216 0-.312-.384-.528-.576-.336zM91.512 41.88c-.072.216-.072.696.024 1.08.072.408.024 1.008-.12 1.392-.744 1.8-1.848 3.792-2.496 4.416-1.944 1.872-3.672 3.312-4.008 3.312-.192 0-.576.24-.864.552-.312.336-1.296.792-2.4 1.104-1.008.312-2.208.696-2.64.888a4.556 4.556 0 0 1-1.56.336c-1.392 0-2.568.288-2.568.624 0 1.104 3.552 1.512 6 .696 5.448-1.776 10.248-5.88 11.352-9.744.528-1.776.312-5.016-.336-5.016-.12 0-.288.168-.384.36zm1.752 8.16c-.336.336-.624.696-.624.792 0 .288-2.208 2.544-3.48 3.528a24.165 24.165 0 0 0-1.8 1.56c-.336.36-.96.816-1.368 1.032-.432.24-1.104.576-1.512.792-1.056.552-3.84 1.296-4.848 1.296-1.056 0-2.112.432-2.112.864 0 .456 1.056.696 3 .672 1.32-.024 1.968-.168 2.928-.672.696-.336 1.416-.624 1.608-.624.36 0 .744-.192 3.264-1.632 2.16-1.224 6-5.88 6-7.296 0-.912-.36-1.008-1.056-.312zM75.888 66.648c-1.032.408-1.296 3.48-.528 6.408 1.272 4.968 4.8 10.032 8.88 12.744 3.12 2.064 3.72 1.032.768-1.296-2.856-2.232-4.32-3.96-6.312-7.464-2.112-3.672-2.256-4.128-2.256-6.6.024-1.176.096-2.568.216-3.072.216-.912.048-1.056-.768-.72zm15.456 4.08c-.648.672 1.608 6.288 4.32 10.752.312.528.72 1.224.888 1.56.168.336.792 1.368 1.416 2.304.624.912 1.272 2.064 1.464 2.52.216.456.528 1.2.744 1.704.84 1.944.192 4.632-1.8 7.368-1.248 1.752-.48 2.232 1.512.96 1.944-1.248 2.04-1.488 2.952-6.456.456-2.616.48-6.936.024-8.04-.192-.432-.744-1.968-1.224-3.408-1.008-2.928-1.92-4.56-2.952-5.184-1.608-.936-2.04-.072-.624 1.296 1.392 1.344 2.016 2.832 3.192 7.728.504 2.112.648 4.008.312 4.008-.096 0-.912-1.224-1.824-2.712-.912-1.464-1.848-2.976-2.088-3.336-.264-.36-.456-.72-.456-.792 0-.072-.504-.96-1.128-1.992-.648-1.008-1.512-2.616-1.968-3.528-.456-.936-.96-1.944-1.104-2.28a7.283 7.283 0 0 1-.48-1.392c-.144-.744-.864-1.392-1.176-1.08zm-56.76 2.088c-.408.84-.744 1.704-.744 1.896 0 .216-.096.456-.24.528-.12.072-.24.816-.24 1.632s-.096 1.632-.216 1.824c-.12.168-.12.648 0 1.08.096.408.36 1.68.576 2.856.336 1.944 1.296 4.224 2.184 5.232.192.192.336.48.336.624 0 .144.336.6.72 1.032.408.432.72.864.72.96 0 .12.696.84 1.56 1.632.864.792 1.56 1.488 1.56 1.584 0 .384-2.4-1.176-3.624-2.352-2.016-1.896-3.768-5.664-4.512-9.624-.096-.528-.312-1.2-.48-1.512-.264-.48-.24-.648.096-1.008.456-.504.288-.96-.36-.96-.552 0-.768.552-.504 1.272.12.288.096.792-.024 1.104-.144.384-.096.888.168 1.56.192.552.408 1.512.48 2.184.336 3.264.792 4.296 3 6.816 2.256 2.568 5.4 4.416 7.992 4.704 1.392.168 1.728.336 4.968 2.52 1.32.888 2.04 1.152 2.472.936.624-.36.504-.528-.768-1.128-1.392-.672-2.904-1.872-2.904-2.328 0-.168.384-.528.84-.816.552-.312.84-.672.84-1.008 0-.504-.072-.504-1.368-.36-3.936.48-3.48.528-4.968-.576-.744-.576-1.32-1.08-1.248-1.128.048-.048.72.096 1.488.312.888.264 2.112.384 3.264.36 1.032-.024 1.896.072 1.992.216.264.408 1.704.264 2.136-.216.576-.624.312-.984-.696-.984-1.656 0-4.68-2.664-6.384-5.64a72.036 72.036 0 0 0-1.608-2.688c-.624-.936-.792-3-.432-4.704.192-.84.168-.888-.408-.888-.432 0-.696.216-.984.816-.528 1.152-.48 1.896.312 4.128.888 2.52 2.352 4.92 4.416 7.2.48.552.888 1.128.888 1.296 0 .552-1.8.096-3.984-1.008-3.336-1.656-5.064-3.84-5.616-7.032-.144-.792-.384-1.992-.528-2.688-.288-1.344-.168-2.544.672-6.192.072-.408.48-1.056.888-1.488.6-.648.672-.84.408-1.152-.168-.192-.552-.36-.864-.36-.432 0-.696.288-1.272 1.536zm47.376-.288c.264 1.152 1.584 3.432 4.944 8.52 1.104 1.632 3.864 5.184 4.872 6.24 1.488 1.536 2.928 4.296 2.664 5.112-.216.696.072 1.44.576 1.44.264 0 .6-.36.864-.984.72-1.56.216-2.952-1.896-5.472-.936-1.104-2.4-2.952-3.264-4.08-.864-1.152-1.8-2.352-2.088-2.664-.312-.312-.552-.648-.552-.744 0-.072-.624-.984-1.368-1.968-.768-1.008-1.584-2.112-1.824-2.496-1.776-2.832-2.304-3.552-2.688-3.624-.336-.072-.384.024-.24.72zm45.504-.144c-.288.36-.504.888-.504 1.2 0 .312-.216 1.128-.48 1.8-.288.696-.576 2.088-.648 3.144-.12 1.56-.24 1.968-.72 2.472-.84.816-.648 1.416.504 1.512.936.072 1.584-.288 2.136-1.272.168-.264.336-1.512.408-2.76.096-1.656.264-2.544.624-3.24.624-1.2.912-2.352.696-3-.24-.72-1.392-.648-2.016.144zm-82.92 5.856c-.576.696-.6.888-.48 2.112.096.744.408 1.848.696 2.448.744 1.464 3.168 4.464 4.584 5.64 3.336 2.784 6.624 6.816 7.728 9.48.336.816.504.96 1.008.912 1.32-.144.792-1.632-1.92-5.472-1.128-1.584-2.664-3.264-4.944-5.4-5.208-4.872-5.424-5.184-5.568-8.04-.048-1.128-.192-2.136-.288-2.232-.096-.12-.456.144-.816.552zm13.896 4.536c-.168.288.936 2.928 1.656 3.96.288.384 1.44 1.68 2.592 2.88 2.4 2.52 3.072 3.336 3.072 3.768 0 .168.312.648.696 1.056.384.384 1.008 1.248 1.392 1.92.816 1.392 1.368 1.56 1.464.408.048-.576-.096-1.008-.624-1.68-.384-.48-.912-1.272-1.152-1.728-.624-1.152-1.992-2.784-4.344-5.16-1.104-1.08-1.992-2.04-1.992-2.136 0-.096-.216-.408-.504-.696-.264-.288-.696-.912-.936-1.392-.552-1.032-1.104-1.536-1.32-1.2zm-9.48 12.12a.38.38 0 0 0 .384.384c.216 0 .336-.12.288-.288-.144-.432-.672-.504-.672-.096zM150.6 359.04c-.096.144-.072.384.072.528.144.144.288.144.408-.048.096-.144.072-.384-.072-.528-.144-.144-.288-.144-.408.048zm11.112-278.616c-.312.168-.432.552-.432 1.32 0 2.112-1.416 3.84-4.176 5.136-1.632.744-4.344 1.296-5.28 1.056-.84-.192-1.464.072-1.776.744-.36.768-.144 1.32.528 1.344 4.176.168 6.864-.792 10.272-3.6 1.344-1.128 1.656-1.536 1.968-2.592.48-1.56.48-2.472 0-3.144-.408-.6-.528-.624-1.104-.264zm35.544.216c-.456.24-.984.624-1.152.816-.192.216-.456.384-.6.384-.168 0-.696.432-1.2.936-1.296 1.344-1.68 2.832-1.2 4.872.576 2.472 1.584 3.552 4.2 4.536.72.264 2.712 1.176 4.416 2.016 1.728.816 3.816 1.728 4.656 2.016.84.288 1.752.696 2.04.888.264.168.72.336.984.336.816 0 5.808 1.68 6.12 2.04.456.552.096 1.464-.696 1.8-1.248.504-2.04 2.4-1.032 2.4.504 0 2.856-1.92 3.456-2.856.504-.72.552-1.92.144-2.496-.432-.528-3.024-1.68-5.328-2.328-2.736-.768-5.976-1.992-8.304-3.12-1.128-.552-2.544-1.224-3.192-1.464-2.4-.96-3.48-1.656-4.464-2.88-.936-1.176-.984-1.32-.984-2.832 0-1.512.048-1.656.792-2.352.912-.864 1.632-1.272 2.304-1.272.48 0 1.224-.576 1.224-.96 0-.312-.72-.96-1.032-.96-.168.024-.672.216-1.152.48zm-8.856 7.608c-.384.144-.72.552-.72.84 0 .36 3.456 4.104 4.224 4.56 1.152.672 2.256 2.928 2.424 4.92.192 2.4-.816 5.424-2.4 7.2-.408.456-.408.576-.12 1.2.24.504.48.672 1.032.672.576 0 .792-.168 1.104-.84.24-.456.696-1.104 1.032-1.416.336-.336.624-.744.624-.912 0-.168.288-1.176.648-2.232.624-1.872.648-1.968.336-4.128-.456-3.384-.792-3.888-5.208-8.16-1.656-1.584-2.28-1.944-2.976-1.704zm38.64 16.32c-3.384.504-7.152 1.224-8.64 1.656-.72.216-1.968.48-2.76.6-1.656.24-2.736.456-5.76 1.152a61.45 61.45 0 0 1-3.72.768c-.864.144-2.736.624-4.2 1.056-3.36 1.032-7.704 2.184-10.92 2.88-1.392.312-2.832.672-3.192.816-.384.144-1.08.264-1.584.264-1.56 0-3.096.6-4.944 1.944-1.656 1.2-2.16 1.8-2.856 3.384-.336.744-.72 1.416-.84 1.512-.36.216-1.392 2.424-1.728 3.72-.168.624-.216 1.488-.12 1.968.312 1.728 2.832 3.48 5.208 3.648 1.68.12 4.704-.504 5.568-1.152 1.752-1.344 1.92-1.512 1.728-1.8-.24-.408-2.28-.144-3.696.48-1.44.624-3.12.6-4.536-.12-1.896-.96-2.064-1.272-1.752-3.216.288-1.92 1.296-3.744 3.216-5.88 1.68-1.872 2.664-2.352 5.568-2.712 2.736-.336 7.392-1.2 8.28-1.512.336-.12 1.416-.456 2.4-.744s2.232-.672 2.76-.864a24.205 24.205 0 0 1 2.352-.576c.792-.168 1.872-.48 2.4-.744.552-.24 1.344-.456 1.776-.456.408 0 1.056-.12 1.416-.24.36-.144 1.464-.36 2.472-.504a25.563 25.563 0 0 0 3.624-.864c1.176-.384 2.76-.648 4.56-.792 3.408-.264 6.552-.672 7.272-.936.288-.12.888-.144 1.32-.096.456.072 1.272-.072 2.04-.36.672-.264 1.512-.48 1.824-.48.624-.024 1.464-.672 1.464-1.152 0-1.104-1.704-1.296-6-.648zm-41.832 27.36c-.288.288-.168 1.032.288 1.968.48.912 1.128 1.224 4.104 1.848 1.176.264 1.728.696 2.328 1.872.456.864.576 1.416.456 2.04-.072.48-.024 1.296.096 1.8.288 1.248-.024 1.752-2.328 3.744-.984.864-2.136 2.088-2.568 2.76-1.416 2.208-1.968 5.784-1.32 8.424.312 1.176 1.272 1.92 2.136 1.656.24-.072.96.096 1.56.36 1.008.456 1.176.48 1.512.168.24-.216.816-.432 1.32-.528 1.32-.264 1.968-.84 1.752-1.632-.12-.552-.288-.648-1.056-.648-.504 0-1.032.12-1.176.264-.216.216-.696.192-1.872-.048-1.848-.36-2.04-.672-1.608-2.712a37.93 37.93 0 0 0 .432-2.64c.216-1.848.72-2.664 2.472-3.984.792-.6 1.464-1.152 1.464-1.248 0-.096.336-.552.72-1.008.48-.528.816-1.272.984-2.16.264-1.2.216-1.464-.24-2.568-.264-.696-.504-1.536-.504-1.92 0-1.752-1.56-3.6-3.528-4.176-.744-.216-1.608-.336-1.92-.264-.408.12-.912-.072-1.8-.696-1.344-.888-1.464-.936-1.704-.672zm2.376 36.288c-.216.336-.24 3.888-.048 4.992.192 1.008.168 1.032-.504 1.032-1.32 0-1.728 1.128-.672 1.824.792.504.768 1.008-.12 2.232-1.056 1.464-1.68 1.68-2.976 1.032-.912-.432-1.128-.696-1.56-1.848-.888-2.4-.456-5.88.744-5.88.768 0 .792-.72.072-1.344-.84-.72-1.368-.72-2.16-.024-1.248 1.056-1.584 5.088-.624 7.2.6 1.296 2.712 3.768 3.48 4.104 1.08.432 2.016.408 3-.096.552-.264.984-.576.984-.696 0-.096.264-.312.6-.456.552-.264 1.56-2.04 1.56-2.784 0-.504.048-.504 1.8.336 1.728.816 4.056 1.176 4.872.744.672-.36.72-1.704.12-2.256-.384-.312-.504-.336-1.032-.048-.336.192-1.128.336-1.8.36-1.8 0-2.616-.6-3.6-2.688-.72-1.512-.84-1.968-.84-3.552 0-1.776-.216-2.4-.864-2.4-.168 0-.36.096-.432.216zM109.92 233.28c-.384.696-.072 1.92.456 1.92.24 0 .624-.216.864-.48.36-.384.408-.624.216-1.152-.288-.84-1.152-.984-1.536-.288z"/>
</svg>
